/* XPM */
static char *dab6c8b8f103422ab800e25d40bbdc77T8sUwRSPuaSmAYzb[] = {
/* columns rows colors chars-per-pixel */
"64 64 231 2 ",
"   c #191501",
".  c #0E0D00",
"X  c #210E00",
"o  c #2A1B00",
"O  c #241802",
"+  c #331600",
"@  c #331A00",
"#  c #3C1D00",
"$  c #352100",
"%  c #3C2200",
"&  c #2E2003",
"*  c #441D00",
"=  c #4A1E00",
"-  c #442300",
";  c #4C2500",
":  c #442901",
">  c #4C2A00",
",  c #532500",
"<  c #592600",
"1  c #532A00",
"2  c #592A00",
"3  c #4C3209",
"4  c #553302",
"5  c #583606",
"6  c #7F663D",
"7  c #9F5D11",
"8  c #A5651D",
"9  c #8D5C2B",
"0  c #875B2A",
"q  c #985E28",
"w  c #8C632D",
"e  c #87622E",
"r  c #94642D",
"t  c #9A652C",
"y  c #956A2D",
"u  c #9C6B2C",
"i  c #9B6926",
"p  c #8E6432",
"a  c #84643D",
"s  c #856B3D",
"d  c #8D6B3D",
"f  c #8A6738",
"g  c #936532",
"h  c #996633",
"j  c #946A34",
"k  c #9C6C32",
"l  c #976B38",
"z  c #9F7132",
"x  c #9E723E",
"c  c #94723D",
"v  c #9D702D",
"b  c #A46C25",
"n  c #A1662B",
"m  c #A36C2D",
"M  c #AB6D2A",
"N  c #A66923",
"B  c #A4712E",
"V  c #AD742B",
"C  c #B1722B",
"Z  c #A26C31",
"A  c #A06E39",
"S  c #A66A32",
"D  c #A47233",
"F  c #A3743D",
"G  c #A37A3E",
"H  c #AD7A3D",
"J  c #AB7638",
"K  c #B07534",
"L  c #846641",
"P  c #886742",
"I  c #866B44",
"U  c #8A6B44",
"Y  c #8C6D49",
"T  c #856B48",
"R  c #966D43",
"E  c #996D46",
"W  c #9B7543",
"Q  c #867041",
"!  c #A57541",
"~  c #B07C40",
"^  c #CE8B3A",
"/  c #D38F3D",
"(  c #D6923E",
")  c #B58E5A",
"_  c #B88D58",
"`  c #B58E62",
"'  c #B89466",
"]  c #AD927F",
"[  c #BFA87F",
"{  c #D59544",
"}  c #DA9544",
"|  c #D69945",
" . c #DC9B46",
".. c #D5944C",
"X. c #DB964B",
"o. c #D69B4C",
"O. c #DC9B4C",
"+. c #D69B51",
"@. c #DD9C52",
"#. c #DB9D59",
"$. c #D39D5D",
"%. c #CF9043",
"&. c #E49D45",
"*. c #EA9E47",
"=. c #E2964C",
"-. c #E29C4C",
";. c #E99D4C",
":. c #E29D52",
">. c #E99E51",
",. c #E19D5B",
"<. c #DEA147",
"1. c #DAA04E",
"2. c #DDA253",
"3. c #DDA25A",
"4. c #DFAA5F",
"5. c #E1A147",
"6. c #ECA046",
"7. c #E4A14C",
"8. c #EAA24C",
"9. c #EBA94F",
"0. c #E3A253",
"q. c #EAA453",
"w. c #EEAC52",
"e. c #E3A45B",
"r. c #E4A85E",
"t. c #ECAB5D",
"y. c #E3A757",
"u. c #F1AC5E",
"i. c #F0AF52",
"p. c #DEA560",
"a. c #DEAB63",
"s. c #DEAA6B",
"d. c #D9A66E",
"f. c #C7AB7C",
"g. c #DDAB74",
"h. c #DCAD7D",
"j. c #D4A777",
"k. c #DDB37B",
"l. c #DFB87F",
"z. c #D5B47F",
"x. c #CEA16A",
"c. c #E4A663",
"v. c #E9A663",
"b. c #E4AB63",
"n. c #EAAB64",
"m. c #E5A76A",
"M. c #E3AA6A",
"N. c #EBAD6A",
"B. c #E8A669",
"V. c #F1AD64",
"C. c #F2AE69",
"Z. c #E2B266",
"A. c #EBB466",
"S. c #E5B46C",
"D. c #ECB46B",
"F. c #EDBA6E",
"G. c #F3B264",
"H. c #F5B966",
"J. c #FCBC65",
"K. c #F3B36C",
"L. c #FBB669",
"P. c #F4BA6B",
"I. c #FDBB6B",
"U. c #FAB567",
"Y. c #E8AD72",
"T. c #E5B574",
"R. c #EAB374",
"E. c #E6BA73",
"W. c #ECB973",
"Q. c #E5B67D",
"!. c #EBB57D",
"~. c #EFB878",
"^. c #F4B671",
"/. c #F5BB73",
"(. c #FABD76",
"). c #F5BD7B",
"_. c #FBBE7B",
"`. c #F4B778",
"'. c #F4C277",
"]. c #FCC276",
"[. c #F5C37B",
"{. c #FDC37C",
"}. c #FEC97D",
"|. c #FDC067",
" X c #AD9781",
".X c #B19882",
"XX c #B19780",
"oX c #BEA785",
"OX c #CEAC83",
"+X c #C1A785",
"@X c #D1AE84",
"#X c #D5B583",
"$X c #DDB684",
"%X c #DFBB83",
"&X c #DCB98D",
"*X c #C8B898",
"=X c #DBBB92",
"-X c #E5B685",
";X c #E4BB84",
":X c #EBBD86",
">X c #E5BD8B",
",X c #EBBD8B",
"<X c #E8B685",
"1X c #F2BF85",
"2X c #FCBF81",
"3X c #F1BE8B",
"4X c #ECBE91",
"5X c #E0BF96",
"6X c #ECC184",
"7X c #E5C28C",
"8X c #ECC28A",
"9X c #E6C286",
"0X c #F3C384",
"qX c #FDC383",
"wX c #FCCA84",
"eX c #F1C38B",
"rX c #FCC58A",
"tX c #FDC98C",
"yX c #F6CA88",
"uX c #E5C294",
"iX c #ECC394",
"pX c #EDC398",
"aX c #EBC799",
"sX c #F2C493",
"dX c #F9C691",
"fX c #F4CA95",
"gX c #F4CC99",
"hX c #F8CA96",
"jX c #E7CFA9",
"kX c #E6D0A9",
"lX c #E8D2AB",
/* pixels */
".   3 - - % : : 1 1 : - : : - % X X : 1 * * = = * * : : - = ; :     - ; - # - : , 1 > - - : % @ X X > 1 * * : - = * > : - : 1 1 ",
"  *XaX,XgX>X;X-X).0X8X9X6X,X>X5X X@ gX8X,X-X3X3X,XsX7X;XpX4XpX&X& *XuX3XgXuX>X-X1X0X>X;X;X6X9XuX X@ gXeX4X-X,X,X4X4X9X%XiX7XsX,X",
"# >XR.C.^.r.#.n.G.G.N.n.n.n.N.Q.P % E.F.b.K.C.n.b.n.A.A.K.N.qXF : >X!.C.^.a.#.N.G.V.n.b.N.n.D.Q.Y * R.I.n.D.N.b.B.c.D.A.D.D.0XK ",
"* g.n.>.=.O.:.:.8.;.-.=.-.-.0.s.a % F.|.7.q.-.} O.| <.7.} O.wXy , h.v.>.X.=.-.-.6.8.-.-.-.-.:.m.a : D.J.0.q.O. .:.}  .7.( o.{.V ",
"; 1XC.=.q.X.q.X.-.-.-.-.8.-.:.M.U @ '.H.&.;.-.q.X.0.5.i.w.X./.F = ,XC.=.q.-.q.( 5.5.-.-.-.=.:.s.Y @ '.J.-.7.=.0.X.O.<.w.9.| /.D ",
"; h.n.X.e.X.X.e.e.e.e.:.:.:.2.s.a 3 E.H.@.0.X.:...o.|  .:.q.{.k , Q.N.@.e.X. . .0.2.7.@.:.#.e.g.6 3 S.U.0.0.X.O.+.o.{ <.8.y.[.B ",
"; k.tX{.{.qX{.qXqXtXqX'.[.qXqXdXP % T.}.{.}.(._.2X_.[.{.(.{.tXW ; $XtXqX].qX(.{.wXwX{.{.qXqXqXfXL # Q.}.{.{._.qXqX2X{.{.].}.tXF ",
"- ' r u k y h y e j j u z z u j a * F m u m t S h h g j m t F 0 * ` t k k y k y e j k y k k u c a # F m i m t m t g r j u t A 9 ",
"$ - > , 1 > ; ; $ @ > 4 > > > 1 * - , , 1 ; , , = - % % 1 1 , , % : ; ; > > ; : # o > 1 > > ; 1 * - , 1 , , , , = * # % > 4 1 < ",
"&X7X>X;X;X;X:XuXoX% gX6X8X8X6X8X:X1X3X1X8X8X,X,XpXOX% kX7X,XdX:X>X9X6X9X,X>X,XaXoX% gXeX8X9X6X0X:X1X:X:X:X,X3X3XpXOX% kXuX;XdX3X",
"M.M.b.b.b.b.n.~.c ; D.K.p.N.D.n.V.V.n.c.a.a.b.B.0XF ; #X6XF.C.C.Z.M.c.b.B.B.B.!.R , R.P.c.r.H.t.u.u.b.r.a.a.c.c.0XF > #X6XK.K.K.",
"O.o.O.O.-.=.-.b.w 4 K.I.@.{ q.&.6.*.*.O.o.o.:.:._.~ : 7XZ.2.>.;.&. . .-.:.:.:.N.p , ^.I.O.| 7.&.*.*.7.O.1.O.:.=.{.~ - 8Xb.e.q.>.",
" . .O.O.-.O.:.n.W - P.I.@...t.8.&.&.-.O.1.1.=.@.2XA 2 ;XZ.1.8.:. . . .-.O.O.:.c.W * ^.I.O.X.q.8.*.&. .O.1.<.=.:.{.k 1 -XZ.1.0.:.",
":.0.O.@.@.@.:.M.d 4 K.U.+.:.-.-.1.O.O.X.o.O.#.#.qXD - k.S.1.2.X.0.:.:.@.@.@.:.M.d 5 N.U.@.:.0.:.:.O.o.o.1.1.:.,.qXz - k.A.0.@...",
"].{.].(.{.{.{.yXU % ~.}.~.{.].{.{.{._.(.'.}.qXrXrXF ; ;X{.].).qX_.{.{._.{.].].wXI % W.}.).{.qX{.{.{.0X{.].].qXqXtXF ; ;X{.{._.tX",
"r u u y k Z u j I # F B y k B u w g u m B B Z n k g ; _ u M t r g k Z y u u u y Q @ G B r x u k p g i u m M S m k g > _ u Z t p ",
"o $ ; , 1 > ; ; ; , > ; > > > : + + > 1 1 , , , ; ; > : 1 1 1 ; @ % : , , ; , ; ; , , , > > ; - @ @ 1 1 ; , < , = = > : > 1 1 1 ",
"  *XuX3XgX$X>X,X0X0X,X>X;X6X8XuXXX# gX0XeX<X3X0X;XiX9X%XsX,XsX&XO *XuX8XgX-X>X:XeXeX3X<X9X9X8XaX X@ fXrX4X-X,X:X,XsX8X>XiX8XiX,X",
"@ 4X).v.N.c.p.c.G.G.b.c.n.n.D.<XP * T.H.n.N.n.n.c.b.A.H.N.N.{.F * aX).n.N.B.c.v.H.A.n.v.r.Z.N.!.Y # S.I.n.n.A.b.B.B.C.A.A.D._.J ",
"- d.e.>.=.=.7.-.*.6.-.-.-.-.:.m.a * F.J.8.;.-.-.7.|  .7.} -.wXt , j.v.>.=.-.8.-.7.&.*.-.7.1.,.m.a - P.J.7.0. .-.:.}  .8.{ -.wXN ",
"= <XN.=.0.} 0.&.&.-.&.-.-.:.,.s.Y @ '.J.&.-.-.7.O. . .i.9.} ].A ; :XC.-.e.} 8. .5.5.7.-.2.O.:.s.Y @ ].J.-.7.=.0.:. .7.i.8.O./.B ",
"= <XK.X.:.O.O.} y.y.2.O.:.@.,.Y.L > E.H.7.0.O.O...X.| <.-.0.0Xk = ,X`.X.@.O.O.| 0.y.0.:.@.2.e.g.a 3 S.H.:.q.O.X.X...o.<.7.y.{.D ",
"= j.1X_.{.qX].}.{.wX}._.2XqXqXhXY # R.{.{.qX{.{._.qXqX}.].{.tXF ; h.1X_.[.qX'.}.[.wX{.(.0XqXqXhXY - T._.{.{.{.qX2X2X{.{.(.qXtXG ",
"# ` r m k y u r w j y y k k u j P # G B i Z n S r j w t Z m A 0 ; ' g Z k y u y e j k u k z k j a # F D m m t m t g w t D t Z 9 ",
"+ - ; ; , > ; ; $ $ - 1 > ; 4 1 * - , 1 > , , , ; - # - > 1 1 ; % : ; 1 1 1 ; - # @ 1 1 ; 1 1 1 * - 1 1 1 , , , = - % : > 1 1 1 ",
"f.%XQ.;X,X,X,XuX+X% gXeX8X9X6X6X:X:X1XeX6X,X3X3XpX@X% kX7X;XrXeX>X>X:X:X:X,X,XpX+X* gX8XeX:X6X0X1XeX6X6X6X:X3X3XpXOX% lX7X;XdX0X",
"+.3.r.r.B.M.B.R.E - ~.P.c.A.t.t.u.t.n.r.a.a.c.B.0X! > #X6XF.N.K.b.n.r.v.B.B.B.!.E = R./.c.n.G.w.u.u.r.r.a.c.v.B.qXW > #X6XP.C.K.",
"^ ( }  .@.:.:.B.p < K.I.X.| 8.*.6.*.-.-.2.1.@.@.qXH * 7XZ.y.8.;. .-.&.-.:.:.:.B.g , ^.I.=.=.-.&.*.*.-.1.1.1.:.:.(.~ ; 7XZ.0.q.>.",
"^ ^ { } O.X.:.M.W * ^.I.O.O.q.9.7.&. .O.O.2.@.@._.Z 1 Q.Z.1.0.:. .-.=.-.-.:.:.M.! = `.I.=.=.q.9.*.&.O.o.1.1.-.@.{.v > l.Z.<.:.O.",
"^ { O.X.@.:.:.M.U 1 K.L.@.e.O.=.1.O.O.O.o.1.:.#.rXD = k.S.2.@...:.O.:.O.:.@.@.c.p 5 S.I.@.:.:.1.0.O.o.o.1.1.-.:.wXD - k.A.0.@...",
"N.^.(./.(.].].wXs % ).}.).qX_.{.{.'.0X{.{.}.{.rXtXA = ;X}.}.'.{._.{.{.(.}.'.].yXs % '.}.).2XqX{.{.0X[.{.].}.{.qXqXF > ;X}.].).rX",
"0 r u t t u i t s % z D t j D y p j y m v B m S h g , ` y v i r j k k m u u i y I $ x v t S u k w p y v B m m m h j > _ i B r w ",
"X o ; , : : , ; : > ; , 1 1 ; : @ + , 2 1 ; , 1 , ; > : > , , - o % , , > ; ; ; - > ; ; 1 1 ; : + + 1 1 , , , , - - : : 1 1 , 1 ",
"  *X4X<XgX>X4X<XeXeX,X,X9X9X:XuX X@ hX0XeX-X:X8X<XeX7X;XgX4XsX>Xo *XsX3XgX7X4X,XeXeX,X,X,X6X8XuXXX@ gX6X8X-X,X3X-XsX7X%XsX4XsX8X",
"+ $XK.B.N.$.#.v.G.u.n.n.n.b.N.!.P - R.H.n.n.n.b.c.N.A.A.A.N._.G : >X).C.D.3.#.v.G.G.N.n.n.b.A.Q.P % S.P.b.K.N.c.M.b.D.H.K.N.).H ",
"* x.e.>.=.-.q.*.&.5.-.-.-.7.,.m.a - P.J.0.7. .-.:.}  .8.| X.wXu ; g.n.>.O.=.>.;.-.8.-.:.7.@.:.M.a - F.|.7.q.-. .-.| <.5.( O.}.b ",
"= <XB.=.e.-.q.( 5.5.&.-.:.=.:.m.Y + '.I.7.&.-.0.=.X.&.w.q.O.].D , 3XC.-.y.O.w.} 5.<.7. .O.O.2.s.U @ '.H.-.-.=.q. .o.<.w.w.X.(.D ",
"= Y.B.=.e.{ {  .0.y.:.:.:.@.,.g.L > S.H.-.0.o. .X.X.| O.7.0.0Xk , $XB.@.e...| O.2.0.2.2.2.@.3.d.a 3 S.H. .0.O.O...o.|  .-.q.[.D ",
"* j.2X2X].qX'.wX[.wX{.{.qXqX1XdXP # Q.}.}.{._.2X2XqXqX}._.{.rX! - h.tXqX).}.{.wXyXyX{.{.{.qXqXdXP % T.}.].{.{.qX2XqXqX}.].qXrXF ",
"* ` p n k u u y e j y u k Z Z k P # F B n m n n t g w y D t x 0 : ' r k D h y r e j y y u k u j P # G D u m n n t g w r D Z k w ",
"+ * > , 1 > ; : @ @ > 1 > > > 1 * - ; , 1 ; , , ; - # - > 4 , , # - > ; , , - - % @ , 1 ; > > 4 * * , 1 , , , , = * # % > 1 2 , ",
"#X$X;X;X,X>X,XuXoX% gX8X8X;XeX0X:X1XeX6X:X,X3X3XuXOX% lX>X;XeXsX>X,X8X:X3X,X,XpX+X# gX8X8X6X0X0XeX3X:X;X;X;X3X3XpXOX% kXuX9XdXrX",
"2.3.4.e.c.B.N.<XR , R.^.b.b.H.t.V.u.n.b.a.c.B.B.0Xx > #XeX/.D.V.b.n.b.n.B.B.N.!.E , R.^.r.n.G.w.t.t.n.n.M.M.c.B.0XF ; #X6X^.N.K.",
"/ { } | =.:.:.c.g 1 ^.I.O.} 8.&.*.*.-. .1.#.:.:.qXH * 9XZ.0.q.;.-. . . .>.=.:.M.p < ^.I.-.} 7.&.6.;.-.O.1.1.:.#._.~ - 8Xa.0.q.>.",
"/ } O. .:.=.:.M.W * ^.L.:.X.q.8.6.-.X.o.1.1.:.@.{.z 1 $XZ.o.0.:. . .o. .:.=.2.M.E = (.L.@.X.q.7.*.-. .O.O.1.@.@.qXS 1 $XZ.1.0.:.",
"} X.o.O.O.:.2.s.d 5 N.U.+.:.0.=.1.1.+.o.o.1.:.#.qXx - k.A.0.@...:.:.O.O.:.@.3.s.d 5 S.I.X.#.0.7.O.@.@.@.1.O.@.@.qXD = k.S.2.#...",
"K.(.(.).].].].yXU - W.}.).2XqX{.{.qX[.{.}.{.2X2XtXG * ;X}.].(.0X{.}.'.].(.].].yXP - E.{.)._.qX{.wXqX2X).].}.qXrXrXD ; ;X}.].).qX",
"9 h u u n u i y d # G m t F Z k p p j u m S S S h g > _ u B y w y k k u m u i y U # G u r F k k p g h m m m S Z k h , _ y D h q ",
"O + * , 1 , ; > ; 1 ; ; 1 1 , - @ + > 4 ; , < , , - > : , 1 1 ; $ @ ; 1 1 > > ; ; 1 > > 1 1 ; - + + > 1 , ; , < = - > : 1 1 , 2 ",
"X *X4X,XsX$X;X,X0X0X8X;X>X:X4X5X.X@ gX8X,X-X3X3X<X4X7X;XpX3XpX=Xo *XuX:XsX-X>X:X0X0X;X;X:X,X8XuX] + gXeXsX-X<X:X,XiX7Xl.sXiXiX,X",
"+ >X~.v.N.a.p.r.K.G.b.c.b.n.N.<XP % k.|.n.N.V.n.c.b.H.A.D.N.0XG % uX).n.N.b.p.r.U.G.n.c.r.b.A.-XY - S.P.n.D.n.n.c.c.A.F.N.N.).H ",
"* x.,.-.-.@.2.-.-.*.:.@.:.:.:.M.s % F.|.7.q.=.-.@.| <.5.} -.}.u , j.e.0.7.:.2.O.7.8.1.O.7.-.1.s.a - F.H.7.-.-.-.O.| <.5.} -.wXb ",
"* Q.c.=.e.X.0.O.-.7.O.=.-.O.0.s.Y @ '.|.-.;.-.>.X. .&.9.w. .).z > :Xn.-.:.} 0.O.-.-.O.@.-.O.2.s.U @ '.I. .-.-.0.o.O.<.w.9.X./.D ",
"* Q.K.X.@.@.#...r.r.3.@.@.@.:.s.L 3 g.H.7.0.X.:...o.o. .-.e.).k ; ;X^.X.@.+.@.o.r.y.2.O.O.@.e.s.L 3 E.H.7.e.O.:...o.|  .-.q.'.D ",
"* j.2X2X).qX_.rXqXrXqX_._.{.qXtXP - T.}.{.{.(._.qX2XqX}.(.{.tXF ; g.qX{._.qX_.qXrXqXqX(._.qXqXdXI # T.].(.{._._.2X{.{.{._.{.rX! ",
"* ` q Z n t k t p j h m Z Z u k a # G D m Z t S h g w t m Z F 0 1 ' t Z Z t k g p h k k Z Z u k P # G D u B n n g h w r D k k 9 ",
"+ * , , , 1 ; ; @ @ 1 1 , 1 1 1 * - , , 1 1 , , = - # - 1 , , , * : ; , , , ; ; % @ 1 1 ; 1 1 1 * - , 1 1 , , , = - % % > 1 1 < ",
"@X-X-X;X,X:X,X8X[ % fXeXeX6XeX0XeX1X:X1X9X8X3X4XaX@X% lXuX,XdX4X>X>X8X8XeX:X<X,X[ % fXeXsX:XeXeX:X1X1X:X6X,X3X3XpXOX% kXuX9XdXrX",
"$.p.p.b.b.c.n.T.c : S.(.c.c.A.t.u.u.t.r.4.a.M.c.1XF : #X6XD.C.C.M.M.c.b.b.M.b.E.c > S.^.M.a.A.r.u.u.t.b.a.a.M.c.1XF ; #X6XW.C.K.",
"%.| O. .O.o.1.a.e 1 P.J.O.| 7.-.;.*.*.-.O.1.O.@.qX~ : 8XZ.y.q.>.@.o.o. .1.X.0.b.w > K.I.O.| 0.-.*.*.-. .o.o.=.:._.H * 8XM.e.q.>.",
"/ { { } O.O.1.c.W - /.L.o.O.y.8.7.5.&. .o.2.:.:._.Z , k.Z.1. .-.0.O.O.O.-.O.1.b.c - /.J.o.o.q.-.5.&. .O.1.1.O.@.{.A 1 Q.Z.1.8.:.",
"^ %.{ | O.O.:.a.a 5 D.L.+.3.e.| 7.O.O...1.o.@.#.rXJ - l.A.2.2.+.@.2.O.@.2.@.#.a.s 5 D.I.+.2.y. .7.O.X.O.o.1.@.#.qXD * k.Z.2.@...",
"u.K.P.^._.{.{.yX6 % ~.{.)._.{.{.{.{.}.].].}.{.qXrXF ; -X}.].)._.(.].{._.{.{.{.rXa # ).{.).qX}.].}.{.(.].}.].qXqXtX! ; ;X}.].).rX",
"7 8 8 N N M N k I @ J C M K M C i m m V V V K S S g , _ b C n n M C M M M M M u T @ J C n K V C u y m M C C C S S h > _ b V n q "
};
