/* XPM */
static char *_781f9640d6f4af9a239aafa1844a70d7C6nmYEL1P4MwpAH[] = {
/* columns rows colors chars-per-pixel */
"64 64 244 2 ",
"   c #190D06",
".  c #271907",
"X  c #3B1D01",
"o  c #331B03",
"O  c #2C230A",
"+  c #282109",
"@  c #332403",
"#  c #3D2402",
"$  c #3C2B04",
"%  c #33250B",
"&  c #3A260B",
"*  c #3C2B0C",
"=  c #362B0B",
"-  c #2D2412",
";  c #3D2C13",
":  c #372811",
">  c #3F310E",
",  c #432401",
"<  c #432D02",
"1  c #4B2C02",
"2  c #432E0A",
"3  c #492C0A",
"4  c #453204",
"5  c #4B3304",
"6  c #4D3906",
"7  c #44320B",
"8  c #4B350C",
"9  c #4D390D",
"0  c #47390C",
"q  c #513604",
"w  c #52360C",
"e  c #533B0C",
"r  c #553B09",
"t  c #422D13",
"y  c #443312",
"u  c #4C3613",
"i  c #4C3A13",
"p  c #4D3B1B",
"a  c #473815",
"s  c #533C13",
"d  c #543C1A",
"f  c #533E23",
"g  c #54420D",
"h  c #5C430D",
"j  c #564214",
"k  c #5B4314",
"l  c #5D4B14",
"z  c #55421A",
"x  c #5A431A",
"c  c #5D4A19",
"v  c #4D4115",
"b  c #634B14",
"n  c #654D1A",
"m  c #68551A",
"M  c #5C4522",
"N  c #664E23",
"B  c #6F5522",
"V  c #845517",
"C  c #987738",
"Z  c #906D32",
"A  c #A27E3C",
"S  c #967A46",
"D  c #937C56",
"F  c #8A724F",
"G  c #A47D46",
"H  c #947F60",
"J  c #9D833F",
"K  c #A5833D",
"L  c #96814C",
"P  c #9C854B",
"I  c #958254",
"U  c #9B8453",
"Y  c #9D8954",
"T  c #95835C",
"R  c #9A8459",
"E  c #9D8B5C",
"W  c #A3864D",
"Q  c #A88647",
"!  c #A48C54",
"~  c #AA8C53",
"^  c #A48D5B",
"/  c #A98E5B",
"(  c #A58554",
")  c #B28D57",
"_  c #AB9354",
"`  c #A6915C",
"'  c #AB935C",
"]  c #AD975D",
"[  c #B1955B",
"{  c #B49B5D",
"}  c #BC9C5D",
"|  c #B89554",
" . c #AF8E4F",
".. c #958363",
"X. c #9D8B63",
"o. c #9B8767",
"O. c #A38C63",
"+. c #A58D68",
"@. c #A59263",
"#. c #AB9463",
"$. c #AE9A64",
"%. c #AD9B6B",
"&. c #A8956C",
"*. c #B49C63",
"=. c #B39C6A",
"-. c #B69964",
";. c #A69770",
":. c #B29E72",
">. c #BAA265",
",. c #B5A26B",
"<. c #BCA36B",
"1. c #B5A065",
"2. c #BAA572",
"3. c #BAA577",
"4. c #D7AE5B",
"5. c #C19E66",
"6. c #C2A56D",
"7. c #C5A668",
"8. c #DCBC6C",
"9. c #DBB567",
"0. c #C2AB73",
"q. c #C7AC77",
"w. c #CAB376",
"e. c #D8B978",
"r. c #D1B170",
"t. c #E3BD6D",
"y. c #E5B96B",
"u. c #E3BE73",
"i. c #E4BD77",
"p. c #F1BD72",
"a. c #C49649",
"s. c #DDC26D",
"d. c #DEC473",
"f. c #DFC47A",
"g. c #E7C36D",
"h. c #E3C373",
"j. c #EBC573",
"k. c #E4CA74",
"l. c #ECCA73",
"z. c #E4C47C",
"x. c #EAC57D",
"c. c #E5CB7C",
"v. c #EBCC7C",
"b. c #F6CA79",
"n. c #ECD27D",
"m. c #E9D074",
"M. c #F3D27D",
"N. c #FCD47D",
"B. c #F5D97E",
"V. c #FADB7D",
"C. c #F2DA77",
"Z. c #FCE07F",
"A. c #BCB49B",
"S. c #BFAB88",
"D. c #C8B384",
"F. c #D8BD8C",
"G. c #C8B998",
"H. c #D7BD93",
"J. c #C1AB87",
"K. c #E0BE98",
"L. c #C8BCA4",
"P. c #D4BDA3",
"I. c #DBC285",
"U. c #DCC698",
"Y. c #E5C482",
"T. c #E5CC83",
"R. c #EBCC84",
"E. c #ECCD8A",
"W. c #E8C788",
"Q. c #F3CD84",
"!. c #F2CE8B",
"~. c #F7CB86",
"^. c #EDD283",
"/. c #ECD38C",
"(. c #E4D089",
"). c #F3D484",
"_. c #FBD584",
"`. c #F5DA83",
"'. c #FBDB84",
"]. c #F3D58B",
"[. c #FBD58B",
"{. c #F5DA8C",
"}. c #FBDC8C",
"|. c #E5CC9B",
" X c #E8C997",
".X c #F4CF95",
"XX c #EDD492",
"oX c #EDD993",
"OX c #EDDA9C",
"+X c #E8D39B",
"@X c #F3D593",
"#X c #FBD593",
"$X c #F5DB93",
"%X c #FBDC93",
"&X c #F3D59B",
"*X c #F5DC9B",
"=X c #FBDD9B",
"-X c #FBD49D",
";X c #FBE286",
":X c #F7E18B",
">X c #FCE18C",
",X c #F6E192",
"<X c #FDE295",
"1X c #F6E29D",
"2X c #FCE39C",
"3X c #FEE89C",
"4X c #FFE893",
"5X c #D9C8A9",
"6X c #D8CBB3",
"7X c #E6CBA6",
"8X c #ECD4A4",
"9X c #EEDBA5",
"0X c #ECD5AB",
"qX c #EEDCAD",
"wX c #E5D3A7",
"eX c #F4DCA4",
"rX c #FBDEA3",
"tX c #F4DBAC",
"yX c #F9DDAB",
"uX c #F1D6A5",
"iX c #E9D7B5",
"pX c #F4DDB2",
"aX c #F9DEB4",
"sX c #F5E2A3",
"dX c #FDE4A3",
"fX c #FEE9A4",
"gX c #F5E3AC",
"hX c #FCE4AB",
"jX c #FDE9AC",
"kX c #F7E8AF",
"lX c #F5E3B4",
"zX c #FCE4B4",
"xX c #FDEAB4",
"cX c #F4E3BA",
"vX c #FDE5BA",
"bX c #F6E9BD",
"nX c #FEEABB",
"mX c #EDE1B3",
"MX c #FDECC3",
"NX c #FAE8C6",
"BX c #FFF1C8",
"VX c #FFECD6",
"CX c #EAE0C5",
"ZX c #F3DFC6",
/* pixels */
"  . o 4 3 3 5 6 j j s 9 j z a > . . a j 3 1 1 3 , X 3 X X # X :     @ # , , , 2 8 8 < < 2 2 > =   + - v 2 # u < 2 t t ; t # X , ",
"  G.U.I. X8XeX*XeXsXrXrXyXtXgXcXiX* qX9XuX&X.X XK.uXK.K. XU.7XP.- P.8X+XaX7XuX8XtXgXaXyXvXvXxXCXA.+ BXmXMXlXzXnXaXvXpX8XtX|. XH.",
"o F.e.j.~.~.x.'.).'.[.[.#X[.%XhX3.< OX$XR.].Q.v.z.z.K.K.c.Y.+X( & 7X+X].-XW.W.%X$X*X&X=X=X=XsXkX;.= bXsXdXfX%X=X*X*XsX*X].E.W.( ",
"1 e.y.p.p.b.b.N.N.N.N._._._._.%X0.5 *X}.l.l.l.g.j.y.p.p.9.8.=XG 3  X].v.x.R.).R.{.{._.{.%X$X$XdXT = sXfX%X<X{.{.$XT.{./.v.v.=XQ ",
", F.u.p.b.b.N.N.'.'.N._._._.}.=Xq., =X{.N.l.b.l.g.g.h.R.v.8.@XW < yX@Xc.!.W.#Xz.(.].].@X%X$X@XeXX.= hX3X{.{.%X{.{.{.,X,X:Xc.#X) ",
"q K.p.b._.b.).'.}.<X_._._._.}.2X=.N rX%X].M.l.l.h.h.i.Y.T.Y.rX~ 4 9X*XR.#XY.E./.*X*X*X#X=X%X*XgX..z lX1X%X=X%X#X/./.@X/.{.].rX) ",
"1 K.~._.~.-X<X%X=XdX<X<X<X<X<XfX3.u eX1X2X3X%X,X=X*XhXdX*XdXhX^ 4 wXjXdXhXhXdXxXzXxXhXrXhXhXxXxXo.; NXxXjXsXdXhXhXkXxXjXfXfXyX[ ",
"1 K.| r.r.5.e.6.2.w.w.r.e.e.w.w.:.7 I.w.-.<._ ] Y P D E ^ U ^ S > G.I ! #.^ ` E T O.#.#.=.=.#.@...; :.3.$.-.` $.E @.X.O.%./ #.D ",
"# 8 r r h k g g 7 0 g l l l m l 9 i e s k e w 6 3 u o t u s 9 8 > > a 9 u 9 9 7 ; % a x s 5 x d * 2 u s d d s 9 7 y ; ; f z s s ",
"U.|.&X&XrXsXsXlXcXi xXjXjXdXsXkXkXxXjXfXaXzXgXlXaX6Xt NXiXpXvXlXmXcXvXzXzXxXbXMX5X= MXzXMXvXvXnXnXnXnXvXvXvXzXzXMXCX; VXNXvXzXeX",
"8.i.b.~._._.$X2XI.q $X}.].<X>X4X>X{.`.{.].@XXXXXlX#.7 8XgXsXOX1XOXOX*X*X1X1X1XkX%.$ jXdX2XdX*XdX3X3X3XsXhXhXdXfXjX,.7 cXvXdXdX<X",
"9.y.p.b.N.N._.<X6.h <X>X_.N.'.M.`.B.M.M.R.R.R.T.dX=.1 zX*X].{.).T.T.R.E.).).oX1XE 6 sX3X$X].<X,X:X:X}.{.&X=X$X$XfX0.0 MXhX*X`.>X",
"4.y.j.b.b.M.M.$X0.q =X'._.).}.M._.M.M.M.R.^.T.c.2X_ q 8X&XE.R.v.T.T.W.!.~.].oXsX%.4 dX1X{.E.<X$X,X$X{.%X*X%X$X{.fX] k vXyX$X<X).",
"4.g.p.b.N.N.`.=X2.n <X'._._.M.'.).Q.v.R.R.T.T.c.jX] 1 uXuXXXT.f./.(.!..X!./.OX9XE z sXdXXX2X2X$X$X$X@X@X-X*X$X*XdX2.< vXhXrX@XR.",
"g.b.~._._.%X<XsX&.< dX2X2X<X%X3XdXdXdXdXdXdX3X1XfX' 4 iXvXfX2XdXdXdXhXyXdXdXjXnXo.; lXjXgXhXhXhXzXzXfXfXhXjXfXgXxX,.7 MXzXzXyXdX",
"Q ) | | } >.-.=.&.7 0.>.-.<.} ] ! / / ] -.] _ ! P I 8 J.E ` P L ! ^ O./ / / ` X.o.; :.%.@.=.$.%.X.X.O.&.%.,.$.$.#.T d G.@.:.U ( ",
". # 5 e w w w s p d e r e s 6 4 @ O v > j 0 6 6 < 2 u t a u 0 7 O : y i 3 9 9 i y p i w p p i a O : y z u u s i 7 u p p p i s s ",
". 6XtXeXzXaXzXlXzXzXhXgXaXzXkXlXA.O NXmXqX+XzXyXtXvXaXpXnXlXcXiX- 6XbXxXnXpXlXbXbXnXxXzXNXMXMXNXA.O VXmXBXnXzXnXnXMXNXcXNXvXcXpX",
"# qX$X@X#X%X%X%X,X$X{.{.-X*X$XsXX.@ 9XfX/.$X,XE.T.XX*XOX$XoXsX#.@ lXjX*X*X=X*XsXjXdX2XsXrXrXdXkXX.@ nX1XsXjX%XdXeXsXjXdXdX*XrX-.",
"< |.].`.).`.'.).:X}.'.}.{.].].*XT 4 sX,Xn.v.g.k.v.z.c.^.c.c.fX! 0 +X$X`.].@X$X].1X$X}.%X=X*X*XsXT > kXfX{.%X{.<X<X(.$X{.^.).fX) ",
", hX$X_._.M.>XB.:X`.'.`.].].].&Xo.# jX{.T.v.h.).h.c.c.).).h.=X` < lX$X^.].R.@X(.XXXX].].#X&X@X*X+.= hXdX{.{.{.]././.$X,X>Xc.@X~ ",
"u yX&XQ.=X_.`.`.4X2X>X}.#X-X=XrXD p sX2X^.^.c.d.e.f.I.c.T.R.hX/ 4 gX2XR.@XE.@XXXeX*X*X%X*X*X*XeXT p kX1X%X<X=X$X/./.oX/.{.{.rX) ",
"7 pXhXdX2XjXdX3XsXdXdX2XdXhXhXlXo.t qXjX2X3XdXdXdXhXjXjX1XdXhX@.4 wXhXhXdXzXhXxXlXbXhXhXzXjXjXxXo.; xXjXfXdXeXfXjXhXxXjXsXdXyX( ",
"7 5X/ { -._ $.` ` @.[ *.-.-.$.@.H 2 %.$.` Y W Y L I I R E Y E D 7 G.R ` ^ ^ #.E E O.` #.#.#.#.@...; %.2.=.-._ ' ` #.R O.=.^ O.S ",
"2 8 w w w s w 7 y t w d e s s s 2 2 8 6 u w 6 8 < 7 X t p 9 9 8 * > 8 9 w w 8 y = & 7 k 7 s z i > 7 9 s s s e e 0 7 ; ; d d w 1 ",
"lXvXzXzXzXvXvXMX6Xt vXzXvXhXxXfXhXlXhXlXlXaXtXgXpX5X; VXiXlXlXhXmXcXzXzXvXvXvXbX5X* BXaXnXvXzXxXbXxXxXnXvXvXzXlXnXcX; VXaXpXyX X",
"1X2X<X<X=X=XsXkX:.8 yXdX%X<X<X{.,X:X$X$X&XXXoXXXdX` u 7XlXdX$X$XoXOXoX$X*X$X*XgX&.$ hX=X=X3X*X1X,X,X,X<X2XdX3X2XdX,.9 vXhX&X$Xv.",
":X}.}.}.%X}.%X1X/ 5 2X2X}.`.;X;X;XV.B.).).(.c.c.fX*.2 aXeX/.`.n.I.c.n.^.R.T./.1XI 6 2XfX].{.>X>X;X;X`.}.%X%X>X`.2Xw.6 zXhX].n.l.",
"`.}.}.}.%X[.:X1X=.1 dX$X}.'.}.}.'.`._.).E.R.c.c.2X_ 5 tX+XE.c.n.c.T.c.R.R.R.(.*X#.< dX2X).).<X{.:X:X;X}.%X%X{.{.3X{ r zX@X=X[.j.",
",X,X[.%X%X%X,X1X^ n =X$X}.>X}.%X{.].).Q.E.E.^.(.jX' < tXeX/.T.z.T.R.R.!.E.E.XXOXR s hX=X$X}.2X$X,X>X{.{.%X<X<X<X2Xw.4 zXrX@XR.v.",
"2XdX3X<X2X2X3XfX@.4 fXjX3X2X3XdXfXhXrXdXfXhXdXdXjX` 4 wXnXgXsXdXdXdXdXrXdXhXhXkX..t vXfXdXdXdXdXhXdXdX3XdXdX3X1XfX,.w xXzX*XrXrX",
"#.=.<.7.7.7.>.,.:.$ w.0.{ 6.<.=.+.O./ [ #.#./ ! Y T > S.Y #.P I E E ^ ~ / ^ ^ X.H t :.=.[ *.-.=.@.#.=.-.<.<.>.1.1.` z H.=.0.( ~ ",
"O = j h k s j l z x l k k l g 9 % = 8 j s 8 s 3 7 2 a 0 9 5 u a - : 0 6 2 u s 8 8 i w w s d 9 0 % ; a z s s e g 5 u d u d d s s ",
"- VXxXsXMXaXxXhXhXhXhXhXhXhXjXbX5X: bXlXpX0XlXlXtXcXlXqXxXgXcXiX- 6XbXxXvXaXpXtXlXzXzXzXnXnXbXMXG.O MXbXnXxXhXzXxXvXvXMXvXzXvXaX",
"= bX2X4X%X%X<X'.}.}.}.%X%X%X<XdX:.$ sXfX&X=X$X/.E.XX*X*X$X$XdX%.> mX1X2X=XXXE.,X*X1X=X%X=X2X2XjX;.$ gX1X,XfX<X<X<X3X=X2X<X<X2Xr.",
"j sX%XV.N.}.C.V.V.V.V.'._._._.<X6.5 1X<X^._.v.c.c.c.T.^.c.c.jX! 0 wX:X^.R./.^.R.`.{.{.}.%X}.$XdXE 0 OX3X`.'.>X>X}.}.{.>X}.>X<X} ",
"j jX}.`.}.'.V.V.;XV.V.'._._.>X=Xw.< dX<X^.).k.M.h.c.T.{.{.z.rX/ < jX{.k.Q.z.).z.R.^.].[.[.{.`.dX@.> 1X<X:X'.>X'.'.>X`.>X`.B.<X7.",
"N sX{.>X_.N.Z.V.;X'.V.'._.[.%X=Xq.B =X<X].`.h.k.d.f.I.W.E.XXhX/ 4 9X$Xc.!.Y.f.^.XXoX{.{.%X$X%XdXE z sX$X<X>X>X>X}.2X,X%X:X<XrX} ",
"n zX3X%X=X<X%X<X<XdX<X<X=XdX2XgXw.w *X2X2X2X<X2XfXsXhXhXsXhXhX^ 0 |.dX3XrXdXeXsXeXhXdXdXdXfXdXxX+.7 lXfXfX2X,X3X2XfXsX2X3XjXfX6.",
"N 8Xe.Y.F.i.f.e.w.e.e.e.e.e.e.e.D.0 I.w.w.>.{ _ Y Y I R ^ R / D 7 D.L ! ( L ! Y D X._ ] =.-.*.%.o.7 3.0.1.>.*.1.*.@.@.=.<.' =./ ",
"i x n b b b b l 7 i k m l b m b 9 s k b b k r r < 7 @ y s 9 6 9 * 7 7 5 1 5 7 $ % & 6 x w s s k 7 8 6 j s s r e 8 u t t M x s r ",
"kXjXjXjXjXhXjXbXiX7 xXjXhXsXfXjXxXjXfXdXyXyXdXgXaX7X& NX0XtXsXgXqXqXyXyXyXyXyXcXP.& nXyXvXzXzXxXlXxXxXzXzXzXzXlXvXvXt VXNXaXzXfX",
"{.:X%X}.}.=X2XsXD.e 2X2X[.<X}.>X}.}.:X;X{.].]./.sX` 8 |.dX,X{.{././.E.E.^.(./.9X@.< eX$X*X2X$X2X>X:X<X<XdX=X3XdXdX2.w vXzX2X3X<X",
"`.V.'.'.}._.<XsX-.r =X<X}.'.;XV.'.B.B.M.).).n.T.3X} 1 rX@XR.m.m.d.d.h.x.k.k.I.oXU 6 $X2X].{.}.}.;X;X>X}.%X=X}.,X3Xw.e vXfX/.`.'.",
"V.`._._.'._.:X1X2.6 2X`.}.M.;X_.}._.'.M.M.v.v.v.%X_ 5 uXE.c.k.k.d.s.u.h.h.h.f.oX` < 2X<X].^.>X'.:X;X}.}.%X%X[.}.2X{ r nX&X<X4XM.",
":X}.%X%X}.>X<XsX#.b *X%X%X=X{.<X{._._._.).Q.v.c.3X] < 8X&XT.h.s.k.c.x.x.j.z.(.XXI s dX$X@X#X=X$X%X}.}._.%X=X<X<X2Xw.5 nXyX*X{.^.",
"<X2X=X=X<X3X3XkX&.2 dXdX2XdX=XdXfXdX<X<X<X<X4X<XdX^ 3 7XxXrX2X2X,X<XrX2X=X<XdXlX..& hX2XdXdX3X3XdXdXdX3XdXdX3X2XjX>.6 nXjX1XdXfX",
"=.0.<.7.} } { $.;.< 0.-.) 6.7.-.O.#.{ -.-.{ _ W P U t J.I #.P C P P ( W W W Y Y T & $.] ] -.[ =.O.#.[ *.<.>.1.*.=.` p I.=.2._ ! ",
": ; 9 l w s s i a d e e s s e 9 . = 0 g j 4 w q < < u y y u 8 7 @ % 4 6 1 w 7 8 0 i s 9 9 i 0 a % : 0 c j e e w s y p v j 9 j z ",
"- CXMXzXzXvXnXhXxXxXzXfXzXnXxXnX5X+ bXgXlXgXyXrXuXpXtX0XaXlXgXwXO 6XqXgXzXtXtXzXsXhXlXaXxXxXbXNXG.O bXmXnXzXnXnXvXnXcXlXxXlXlXlX",
"@ cXdX,X%X<X,X3X2X<X>X%X=X=X2XjX;.. 1X3X/.%X].v.R.^.$X{.@XXXdX_ $ qX*X).].E.W.$X2X,X=X*X2X2XsXjX;.$ kX1X=X<X=X$X2X2XfXsX3X<XsX6.",
"9 hX<X%X_.>X>X`.:X`.'.>X[.%X,X2XO.0 1X'.).v.j.l.k.s.s.k.s.h.2XJ 6 (.^.b.v.v.R.).`.).).].{.^.{.*XL 4 1XfX}.'.>X'.}.^.$X`.n.`.3X| ",
"8 xX%X[.>X_.>X`.>X>X'.'.%X#X%XdXO., =X`._.j.j.j.t.k.k.C.n.s.=X .< rX^.j.b.i.R.c.^.R.R.).].).].*XX.$ dX2X{.}.'.'.{.`.,X,X,X^.%X| ",
"s zX=X{.<X_.`.4X4X<X>X}.%X%X=XdXo.d sX4X).).j.g.8.8.s.d.k.c.<XW 5 sX%Xh.x.x.R.Y.XX]./.!.!.@X@X*XT j lX$X%X=X).'.^.]././.{.{.=X| ",
"i hXjXfX=XfX2X,XdXdX3X2XdXdXdXzXo.$ eX3X$X-X%X<X=X2XdXsX$X2XdX! 4 U.*X3X=XdXdXjXgXhXhXdXfXfXdXxXT * gXjXfXdX2XdXdXdXjXjXsX3XrX~ ",
"d 5X_ *.[ [ 1.` ` @.[ *.-.-.{ #.E 7 $.>.[ ~ Q P S S S I ! Y ( S 4 D.L ~ ( P ` U D E ^ / ^ #.` ^ ..> &.2.@./ $.! E E R X.` Y ^ S ",
"7 9 e e r e 0 0 = ; 9 k w k g e 4 0 6 w r q 5 5 < 2 @ t 8 6 5 0 > 4 5 5 q 5 7 7 : * u z 9 8 j 9 * > 0 9 s s u 8 4 a & ; i i s 1 ",
"lXxXjXjXzXvXxXbX6Xy vXzXxXrXjXjXgXjXgXgXyXyXeXeXtXH.t ZXqX9XhX9XqXqXtXyXyXpXtXlXG.* vXpXaXvXlXnXlXlXxXxXvXvXvXbXMX6X; VXpX8XuXuX",
",X,X}.%X<XrXsXkX3.0 sXdX<X,X4X>X:X:X@X].!.E.R.R.&XY < U.eX$X^.{.(.(.T.]././.oXOXX.4 sX*X@XrX$X1X1X1X$X$X&XeXeXOXlX$.8 7XeX@XY.x.",
"n.B.'._.}.%X$XsXE 6 1X,X_.;X`.V.C.M.M.v.x.x.t.9.{._ < qX/.c.v.k.d.d.h.h.k.d.f.oXL w ,X>XR.z.^.v.`.n.n.R.E.E.E.E.dX*.5 tXXXz.h.9.",
"m.M.'._.[.[.$X1X=.w fX{._._.'.'.V.V.M.Q.x.j.t.9.].S 5  XT.d.h.d.h.8.t.t.u.8.k.(.R < #X].x.i.).v.n.v.v.v.b.~.W.R.-X) w K..X9.9.4.",
"v.M._._._.%X$X2X^ n rX#X<X}.%X_._.b.R.x.u.u.y.9.[.Q ,  XR.h.8.9.h.j.u.u.i.h.z.I.D d @X{.z.W.x.u.c.z.i.u.F.W.i.Y.-X) 1 K.W.e.4.a.",
"~.!.[.#X%X<X3XsXO., rXrXdX#X%X=X-X%X#X[.~.~.v.x.E.S #  X%X{.!.#X{.%X#X[.#X{.$XOXF o E.@X!.-X!.#X@X.X.X-X-X-X#X@X@X~ , K.K.K.r.y.",
" .| a.| | } { ' ^ # q.5. .7.} } ) ) G Q K A A Z Z Z , #.C K C C Q K Q A Q Q J L F X ( Q C G A A S G G G ( W Q A S S X 5.C Z V V "
};
