/* XPM */
static char *result[] = {
/* columns rows colors chars-per-pixel */
"128 128 29 1 ",
"  c black",
". c #010101",
"X c #050606",
"o c #080A0B",
"O c #090A0B",
"+ c #090B0C",
"@ c #0C0F10",
"# c #0D0F10",
"$ c #0D0F11",
"% c #111416",
"& c #121517",
"* c #171B1D",
"= c gray50",
"- c #858C32",
"; c #868F3C",
": c #878F3C",
"> c #868F3D",
", c #808080",
"< c #818181",
"1 c #838688",
"2 c #838689",
"3 c #848789",
"4 c #84898C",
"5 c #868B90",
"6 c #868C90",
"7 c #868C91",
"8 c #878E94",
"9 c #888F95",
"0 c #98B1C4",
/* pixels */
"  OOOOOOO X  OOOOOOOooX  +oOO     OOOOOOO X  OOOOOOOooX  +oOO     OOOOOOO X  OOOOOOOooX  +oOO     OOOOOOO X  OOOOOOOooX  +oOO   ",
" O0000000*0%$0000000000%#0000&O  O0000000*0%$0000000000%#0000&O  O0000000*0%$0000000000%#0000&O  O0000000*0%$0000000000%#0000&O ",
" o00000000000000000000000000000O o00000000000000000000000000000O o00000000000000000000000000000O o00000000000000000000000000000O",
" @00000000000000000000000000000O @00000000000000000000000000000O @00000000000000000000000000000O @00000000000000000000000000000O",
"o000000000000000000000000000000oo000000000000000000000000000000oo000000000000000000000000000000oo000000000000000000000000000000o",
"o000000000000000000000000000000oo000000000000000000000000000000oo000000000000000000000000000000oo000000000000000000000000000000o",
"o000000000000000000000000000000oo000000000000000000000000000000oo000000000000000000000000000000oo000000000000000000000000000000o",
"o000000000000000000000000000000oo000000000000000000000000000000oo000000000000000000000000000000oo000000000000000000000000000000o",
"O000000000000000000000000000000oO000000000000000000000000000000oO000000000000000000000000000000oO000000000000000000000000000000o",
" 900000000000000000000000000090o 900000000000000000000000000090o 900000000000000000000000000090o 900000000000000000000000000090o",
"O000>00000000000000000000000051 O000>00000000000000000000000051 O000>00000000000000000000000051 O000>00000000000000000000000051 ",
" 60000--000:00000000;0000000001  60000--000:00000000;0000000001  60000--000:00000000;0000000001  60000--000:00000000;0000000001 ",
" 104160000000000000000000000001  104160000000000000000000000001  104160000000000000000000000001  104160000000000000000000000001 ",
" ,3=,,211600000800000411117004,  ,3=,,211600000800000411117004,  ,3=,,211600000800000411117004,  ,3=,,211600000800000411117004, ",
"    ,,.,,,21111,11111,,,,,<1o       ,,.,,,21111,11111,,,,,<1o       ,,.,,,21111,11111,,,,,<1o       ,,.,,,21111,11111,,,,,<1o   ",
"       .                               .                               .                               .                        ",
"OOOOooX  +oOO     OOOOOOO X  OOOOOOOooX  +oOO     OOOOOOO X  OOOOOOOooX  +oOO     OOOOOOO X  OOOOOOOooX  +oOO     OOOOOOO X  OOO",
"0000000%#0000&O  O0000000*0%$0000000000%#0000&O  O0000000*0%$0000000000%#0000&O  O0000000*0%$0000000000%#0000&O  O0000000*0%$000",
"000000000000000O o00000000000000000000000000000O o00000000000000000000000000000O o00000000000000000000000000000O o00000000000000",
"000000000000000O @00000000000000000000000000000O @00000000000000000000000000000O @00000000000000000000000000000O @00000000000000",
"000000000000000oo000000000000000000000000000000oo000000000000000000000000000000oo000000000000000000000000000000oo000000000000000",
"000000000000000oo000000000000000000000000000000oo000000000000000000000000000000oo000000000000000000000000000000oo000000000000000",
"000000000000000oo000000000000000000000000000000oo000000000000000000000000000000oo000000000000000000000000000000oo000000000000000",
"000000000000000oo000000000000000000000000000000oo000000000000000000000000000000oo000000000000000000000000000000oo000000000000000",
"000000000000000oO000000000000000000000000000000oO000000000000000000000000000000oO000000000000000000000000000000oO000000000000000",
"000000000000090o 900000000000000000000000000090o 900000000000000000000000000090o 900000000000000000000000000090o 900000000000000",
"000000000000051 O000>00000000000000000000000051 O000>00000000000000000000000051 O000>00000000000000000000000051 O000>00000000000",
"0000;0000000001  60000--000:00000000;0000000001  60000--000:00000000;0000000001  60000--000:00000000;0000000001  60000--000:0000",
"000000000000001  104160000000000000000000000001  104160000000000000000000000001  104160000000000000000000000001  104160000000000",
"00000411117004,  ,3=,,211600000800000411117004,  ,3=,,211600000800000411117004,  ,3=,,211600000800000411117004,  ,3=,,2116000004",
"11111,,,,,<1o       ,,.,,,21111,11111,,,,,<1o       ,,.,,,21111,11111,,,,,<1o       ,,.,,,21111,11111,,,,,<1o       ,,.,,,21111,",
"                       .                               .                               .                               .        ",
"  OOOOOOO X  OOOOOOOooX  +oOO     OOOOOOO X  OOOOOOOooX  +oOO     OOOOOOO X  OOOOOOOooX  +oOO     OOOOOOO X  OOOOOOOooX  +oOO   ",
" O0000000*0%$0000000000%#0000&O  O0000000*0%$0000000000%#0000&O  O0000000*0%$0000000000%#0000&O  O0000000*0%$0000000000%#0000&O ",
" o00000000000000000000000000000O o00000000000000000000000000000O o00000000000000000000000000000O o00000000000000000000000000000O",
" @00000000000000000000000000000O @00000000000000000000000000000O @00000000000000000000000000000O @00000000000000000000000000000O",
"o000000000000000000000000000000oo000000000000000000000000000000oo000000000000000000000000000000oo000000000000000000000000000000o",
"o000000000000000000000000000000oo000000000000000000000000000000oo000000000000000000000000000000oo000000000000000000000000000000o",
"o000000000000000000000000000000oo000000000000000000000000000000oo000000000000000000000000000000oo000000000000000000000000000000o",
"o000000000000000000000000000000oo000000000000000000000000000000oo000000000000000000000000000000oo000000000000000000000000000000o",
"O000000000000000000000000000000oO000000000000000000000000000000oO000000000000000000000000000000oO000000000000000000000000000000o",
" 900000000000000000000000000090o 900000000000000000000000000090o 900000000000000000000000000090o 900000000000000000000000000090o",
"O000>00000000000000000000000051 O000>00000000000000000000000051 O000>00000000000000000000000051 O000>00000000000000000000000051 ",
" 60000--000:00000000;0000000001  60000--000:00000000;0000000001  60000--000:00000000;0000000001  60000--000:00000000;0000000001 ",
" 104160000000000000000000000001  104160000000000000000000000001  104160000000000000000000000001  104160000000000000000000000001 ",
" ,3=,,211600000800000411117004,  ,3=,,211600000800000411117004,  ,3=,,211600000800000411117004,  ,3=,,211600000800000411117004, ",
"    ,,.,,,21111,11111,,,,,<1o       ,,.,,,21111,11111,,,,,<1o       ,,.,,,21111,11111,,,,,<1o       ,,.,,,21111,11111,,,,,<1o   ",
"       .                               .                               .                               .                        ",
"OOOOooX  +oOO     OOOOOOO X  OOOOOOOooX  +oOO     OOOOOOO X  OOOOOOOooX  +oOO     OOOOOOO X  OOOOOOOooX  +oOO     OOOOOOO X  OOO",
"0000000%#0000&O  O0000000*0%$0000000000%#0000&O  O0000000*0%$0000000000%#0000&O  O0000000*0%$0000000000%#0000&O  O0000000*0%$000",
"000000000000000O o00000000000000000000000000000O o00000000000000000000000000000O o00000000000000000000000000000O o00000000000000",
"000000000000000O @00000000000000000000000000000O @00000000000000000000000000000O @00000000000000000000000000000O @00000000000000",
"000000000000000oo000000000000000000000000000000oo000000000000000000000000000000oo000000000000000000000000000000oo000000000000000",
"000000000000000oo000000000000000000000000000000oo000000000000000000000000000000oo000000000000000000000000000000oo000000000000000",
"000000000000000oo000000000000000000000000000000oo000000000000000000000000000000oo000000000000000000000000000000oo000000000000000",
"000000000000000oo000000000000000000000000000000oo000000000000000000000000000000oo000000000000000000000000000000oo000000000000000",
"000000000000000oO000000000000000000000000000000oO000000000000000000000000000000oO000000000000000000000000000000oO000000000000000",
"000000000000090o 900000000000000000000000000090o 900000000000000000000000000090o 900000000000000000000000000090o 900000000000000",
"000000000000051 O000>00000000000000000000000051 O000>00000000000000000000000051 O000>00000000000000000000000051 O000>00000000000",
"0000;0000000001  60000--000:00000000;0000000001  60000--000:00000000;0000000001  60000--000:00000000;0000000001  60000--000:0000",
"000000000000001  104160000000000000000000000001  104160000000000000000000000001  104160000000000000000000000001  104160000000000",
"00000411117004,  ,3=,,211600000800000411117004,  ,3=,,211600000800000411117004,  ,3=,,211600000800000411117004,  ,3=,,2116000004",
"11111,,,,,<1o       ,,.,,,21111,11111,,,,,<1o       ,,.,,,21111,11111,,,,,<1o       ,,.,,,21111,11111,,,,,<1o       ,,.,,,21111,",
"                       .                               .                               .                               .        ",
"  OOOOOOO X  OOOOOOOooX  +oOO     OOOOOOO X  OOOOOOOooX  +oOO     OOOOOOO X  OOOOOOOooX  +oOO     OOOOOOO X  OOOOOOOooX  +oOO   ",
" O0000000*0%$0000000000%#0000&O  O0000000*0%$0000000000%#0000&O  O0000000*0%$0000000000%#0000&O  O0000000*0%$0000000000%#0000&O ",
" o00000000000000000000000000000O o00000000000000000000000000000O o00000000000000000000000000000O o00000000000000000000000000000O",
" @00000000000000000000000000000O @00000000000000000000000000000O @00000000000000000000000000000O @00000000000000000000000000000O",
"o000000000000000000000000000000oo000000000000000000000000000000oo000000000000000000000000000000oo000000000000000000000000000000o",
"o000000000000000000000000000000oo000000000000000000000000000000oo000000000000000000000000000000oo000000000000000000000000000000o",
"o000000000000000000000000000000oo000000000000000000000000000000oo000000000000000000000000000000oo000000000000000000000000000000o",
"o000000000000000000000000000000oo000000000000000000000000000000oo000000000000000000000000000000oo000000000000000000000000000000o",
"O000000000000000000000000000000oO000000000000000000000000000000oO000000000000000000000000000000oO000000000000000000000000000000o",
" 900000000000000000000000000090o 900000000000000000000000000090o 900000000000000000000000000090o 900000000000000000000000000090o",
"O000>00000000000000000000000051 O000>00000000000000000000000051 O000>00000000000000000000000051 O000>00000000000000000000000051 ",
" 60000--000:00000000;0000000001  60000--000:00000000;0000000001  60000--000:00000000;0000000001  60000--000:00000000;0000000001 ",
" 104160000000000000000000000001  104160000000000000000000000001  104160000000000000000000000001  104160000000000000000000000001 ",
" ,3=,,211600000800000411117004,  ,3=,,211600000800000411117004,  ,3=,,211600000800000411117004,  ,3=,,211600000800000411117004, ",
"    ,,.,,,21111,11111,,,,,<1o       ,,.,,,21111,11111,,,,,<1o       ,,.,,,21111,11111,,,,,<1o       ,,.,,,21111,11111,,,,,<1o   ",
"       .                               .                               .                               .                        ",
"OOOOooX  +oOO     OOOOOOO X  OOOOOOOooX  +oOO     OOOOOOO X  OOOOOOOooX  +oOO     OOOOOOO X  OOOOOOOooX  +oOO     OOOOOOO X  OOO",
"0000000%#0000&O  O0000000*0%$0000000000%#0000&O  O0000000*0%$0000000000%#0000&O  O0000000*0%$0000000000%#0000&O  O0000000*0%$000",
"000000000000000O o00000000000000000000000000000O o00000000000000000000000000000O o00000000000000000000000000000O o00000000000000",
"000000000000000O @00000000000000000000000000000O @00000000000000000000000000000O @00000000000000000000000000000O @00000000000000",
"000000000000000oo000000000000000000000000000000oo000000000000000000000000000000oo000000000000000000000000000000oo000000000000000",
"000000000000000oo000000000000000000000000000000oo000000000000000000000000000000oo000000000000000000000000000000oo000000000000000",
"000000000000000oo000000000000000000000000000000oo000000000000000000000000000000oo000000000000000000000000000000oo000000000000000",
"000000000000000oo000000000000000000000000000000oo000000000000000000000000000000oo000000000000000000000000000000oo000000000000000",
"000000000000000oO000000000000000000000000000000oO000000000000000000000000000000oO000000000000000000000000000000oO000000000000000",
"000000000000090o 900000000000000000000000000090o 900000000000000000000000000090o 900000000000000000000000000090o 900000000000000",
"000000000000051 O000>00000000000000000000000051 O000>00000000000000000000000051 O000>00000000000000000000000051 O000>00000000000",
"0000;0000000001  60000--000:00000000;0000000001  60000--000:00000000;0000000001  60000--000:00000000;0000000001  60000--000:0000",
"000000000000001  104160000000000000000000000001  104160000000000000000000000001  104160000000000000000000000001  104160000000000",
"00000411117004,  ,3=,,211600000800000411117004,  ,3=,,211600000800000411117004,  ,3=,,211600000800000411117004,  ,3=,,2116000004",
"11111,,,,,<1o       ,,.,,,21111,11111,,,,,<1o       ,,.,,,21111,11111,,,,,<1o       ,,.,,,21111,11111,,,,,<1o       ,,.,,,21111,",
"                       .                               .                               .                               .        ",
"  OOOOOOO X  OOOOOOOooX  +oOO     OOOOOOO X  OOOOOOOooX  +oOO     OOOOOOO X  OOOOOOOooX  +oOO     OOOOOOO X  OOOOOOOooX  +oOO   ",
" O0000000*0%$0000000000%#0000&O  O0000000*0%$0000000000%#0000&O  O0000000*0%$0000000000%#0000&O  O0000000*0%$0000000000%#0000&O ",
" o00000000000000000000000000000O o00000000000000000000000000000O o00000000000000000000000000000O o00000000000000000000000000000O",
" @00000000000000000000000000000O @00000000000000000000000000000O @00000000000000000000000000000O @00000000000000000000000000000O",
"o000000000000000000000000000000oo000000000000000000000000000000oo000000000000000000000000000000oo000000000000000000000000000000o",
"o000000000000000000000000000000oo000000000000000000000000000000oo000000000000000000000000000000oo000000000000000000000000000000o",
"o000000000000000000000000000000oo000000000000000000000000000000oo000000000000000000000000000000oo000000000000000000000000000000o",
"o000000000000000000000000000000oo000000000000000000000000000000oo000000000000000000000000000000oo000000000000000000000000000000o",
"O000000000000000000000000000000oO000000000000000000000000000000oO000000000000000000000000000000oO000000000000000000000000000000o",
" 900000000000000000000000000090o 900000000000000000000000000090o 900000000000000000000000000090o 900000000000000000000000000090o",
"O000>00000000000000000000000051 O000>00000000000000000000000051 O000>00000000000000000000000051 O000>00000000000000000000000051 ",
" 60000--000:00000000;0000000001  60000--000:00000000;0000000001  60000--000:00000000;0000000001  60000--000:00000000;0000000001 ",
" 104160000000000000000000000001  104160000000000000000000000001  104160000000000000000000000001  104160000000000000000000000001 ",
" ,3=,,211600000800000411117004,  ,3=,,211600000800000411117004,  ,3=,,211600000800000411117004,  ,3=,,211600000800000411117004, ",
"    ,,.,,,21111,11111,,,,,<1o       ,,.,,,21111,11111,,,,,<1o       ,,.,,,21111,11111,,,,,<1o       ,,.,,,21111,11111,,,,,<1o   ",
"       .                               .                               .                               .                        ",
"OOOOooX  +oOO     OOOOOOO X  OOOOOOOooX  +oOO     OOOOOOO X  OOOOOOOooX  +oOO     OOOOOOO X  OOOOOOOooX  +oOO     OOOOOOO X  OOO",
"0000000%#0000&O  O0000000*0%$0000000000%#0000&O  O0000000*0%$0000000000%#0000&O  O0000000*0%$0000000000%#0000&O  O0000000*0%$000",
"000000000000000O o00000000000000000000000000000O o00000000000000000000000000000O o00000000000000000000000000000O o00000000000000",
"000000000000000O @00000000000000000000000000000O @00000000000000000000000000000O @00000000000000000000000000000O @00000000000000",
"000000000000000oo000000000000000000000000000000oo000000000000000000000000000000oo000000000000000000000000000000oo000000000000000",
"000000000000000oo000000000000000000000000000000oo000000000000000000000000000000oo000000000000000000000000000000oo000000000000000",
"000000000000000oo000000000000000000000000000000oo000000000000000000000000000000oo000000000000000000000000000000oo000000000000000",
"000000000000000oo000000000000000000000000000000oo000000000000000000000000000000oo000000000000000000000000000000oo000000000000000",
"000000000000000oO000000000000000000000000000000oO000000000000000000000000000000oO000000000000000000000000000000oO000000000000000",
"000000000000090o 900000000000000000000000000090o 900000000000000000000000000090o 900000000000000000000000000090o 900000000000000",
"000000000000051 O000>00000000000000000000000051 O000>00000000000000000000000051 O000>00000000000000000000000051 O000>00000000000",
"0000;0000000001  60000--000:00000000;0000000001  60000--000:00000000;0000000001  60000--000:00000000;0000000001  60000--000:0000",
"000000000000001  104160000000000000000000000001  104160000000000000000000000001  104160000000000000000000000001  104160000000000",
"00000411117004,  ,3=,,211600000800000411117004,  ,3=,,211600000800000411117004,  ,3=,,211600000800000411117004,  ,3=,,2116000004",
"11111,,,,,<1o       ,,.,,,21111,11111,,,,,<1o       ,,.,,,21111,11111,,,,,<1o       ,,.,,,21111,11111,,,,,<1o       ,,.,,,21111,",
"                       .                               .                               .                               .        "
};
