/* XPM */
static char *result[] = {
/* columns rows colors chars-per-pixel */
"128 128 33 1 ",
"  c black",
". c #010101",
"X c #060707",
"o c #0B0C0C",
"O c #0B0C0D",
"+ c #0B0D0D",
"@ c #0C0C0D",
"# c #0C0D0D",
"$ c #101213",
"% c #111213",
"& c #111314",
"* c #161919",
"= c #171A1B",
"- c #1E2021",
"; c gray50",
": c #919639",
"> c #91963A",
", c #959B45",
"< c #959A46",
"1 c #808080",
"2 c #818181",
"3 c #888A8C",
"4 c #898A8C",
"5 c #898B8C",
"6 c #8D8F91",
"7 c #8D8F92",
"8 c #8D9092",
"9 c #919597",
"0 c #919598",
"q c #929598",
"w c #959A9D",
"e c #969A9E",
"r c #C8D7E3",
/* pixels */
"  OOOOOO# X  +OOOOOOooX  #OO#     OOOOOO# X  +OOOOOOooX  #OO#     OOOOOO# X  +OOOOOOooX  #OO#     OOOOOO# X  +OOOOOOooX  #OO#   ",
" @rrrrrrr-r*&rrrrrrrrrr*%rrrr=O  @rrrrrrr-r*&rrrrrrrrrr*%rrrr=O  @rrrrrrr-r*&rrrrrrrrrr*%rrrr=O  @rrrrrrr-r*&rrrrrrrrrr*%rrrr=O ",
" OrrrrrrrrrrrrrrrrrrrrrrrrrrrrrO OrrrrrrrrrrrrrrrrrrrrrrrrrrrrrO OrrrrrrrrrrrrrrrrrrrrrrrrrrrrrO OrrrrrrrrrrrrrrrrrrrrrrrrrrrrrO",
" $rrrrrrrrrrrrrrrrrrrrrrrrrrrrrO $rrrrrrrrrrrrrrrrrrrrrrrrrrrrrO $rrrrrrrrrrrrrrrrrrrrrrrrrrrrrO $rrrrrrrrrrrrrrrrrrrrrrrrrrrrrO",
"orrrrrrrrrrrrrrrrrrrrrrrrrrrrrroorrrrrrrrrrrrrrrrrrrrrrrrrrrrrroorrrrrrrrrrrrrrrrrrrrrrrrrrrrrroorrrrrrrrrrrrrrrrrrrrrrrrrrrrrro",
"orrrrrrrrrrrrrrrrrrrrrrrrrrrrrroorrrrrrrrrrrrrrrrrrrrrrrrrrrrrroorrrrrrrrrrrrrrrrrrrrrrrrrrrrrroorrrrrrrrrrrrrrrrrrrrrrrrrrrrrro",
"orrrrrrrrrrrrrrrrrrrrrrrrrrrrrroorrrrrrrrrrrrrrrrrrrrrrrrrrrrrroorrrrrrrrrrrrrrrrrrrrrrrrrrrrrroorrrrrrrrrrrrrrrrrrrrrrrrrrrrrro",
"orrrrrrrrrrrrrrrrrrrrrrrrrrrrrroorrrrrrrrrrrrrrrrrrrrrrrrrrrrrroorrrrrrrrrrrrrrrrrrrrrrrrrrrrrroorrrrrrrrrrrrrrrrrrrrrrrrrrrrrro",
"OrrrrrrrrrrrrrrrrrrrrrrrrrrrrrroOrrrrrrrrrrrrrrrrrrrrrrrrrrrrrroOrrrrrrrrrrrrrrrrrrrrrrrrrrrrrroOrrrrrrrrrrrrrrrrrrrrrrrrrrrrrro",
" errrrrrrrrrrrrrrrrrrrrrrrrrrero errrrrrrrrrrrrrrrrrrrrrrrrrrero errrrrrrrrrrrrrrrrrrrrrrrrrrero errrrrrrrrrrrrrrrrrrrrrrrrrrero",
"@rrr<rrrrrrrrrrrrrrrrrrrrrrrr94 @rrr<rrrrrrrrrrrrrrrrrrrrrrrr94 @rrr<rrrrrrrrrrrrrrrrrrrrrrrr94 @rrr<rrrrrrrrrrrrrrrrrrrrrrrr94 ",
" 9rrrr>:rrr,rrrrrrrr,rrrrrrrrr5  9rrrr>:rrr,rrrrrrrr,rrrrrrrrr5  9rrrr>:rrr,rrrrrrrr,rrrrrrrrr5  9rrrr>:rrr,rrrrrrrr,rrrrrrrrr5 ",
" 5r630rrrrrrrrrrrrrrrrrrrrrrrr5  5r630rrrrrrrrrrrrrrrrrrrrrrrr5  5r630rrrrrrrrrrrrrrrrrrrrrrrr5  5r630rrrrrrrrrrrrrrrrrrrrrrrr5 ",
" 15;115330rrrrrwrrrrr83333qrr71  15;115330rrrrrwrrrrr83333qrr71  15;115330rrrrrwrrrrr83333qrr71  15;115330rrrrrwrrrrr83333qrr71 ",
"    11.111555541555551111125o       11.111555541555551111125o       11.111555541555551111125o       11.111555541555551111125o   ",
"       .                               .                               .                               .                        ",
"OOOOooX  #OO#     OOOOOO# X  +OOOOOOooX  #OO#     OOOOOO# X  +OOOOOOooX  #OO#     OOOOOO# X  +OOOOOOooX  #OO#     OOOOOO# X  +OO",
"rrrrrrr*%rrrr=O  @rrrrrrr-r*&rrrrrrrrrr*%rrrr=O  @rrrrrrr-r*&rrrrrrrrrr*%rrrr=O  @rrrrrrr-r*&rrrrrrrrrr*%rrrr=O  @rrrrrrr-r*&rrr",
"rrrrrrrrrrrrrrrO OrrrrrrrrrrrrrrrrrrrrrrrrrrrrrO OrrrrrrrrrrrrrrrrrrrrrrrrrrrrrO OrrrrrrrrrrrrrrrrrrrrrrrrrrrrrO Orrrrrrrrrrrrrr",
"rrrrrrrrrrrrrrrO $rrrrrrrrrrrrrrrrrrrrrrrrrrrrrO $rrrrrrrrrrrrrrrrrrrrrrrrrrrrrO $rrrrrrrrrrrrrrrrrrrrrrrrrrrrrO $rrrrrrrrrrrrrr",
"rrrrrrrrrrrrrrroorrrrrrrrrrrrrrrrrrrrrrrrrrrrrroorrrrrrrrrrrrrrrrrrrrrrrrrrrrrroorrrrrrrrrrrrrrrrrrrrrrrrrrrrrroorrrrrrrrrrrrrrr",
"rrrrrrrrrrrrrrroorrrrrrrrrrrrrrrrrrrrrrrrrrrrrroorrrrrrrrrrrrrrrrrrrrrrrrrrrrrroorrrrrrrrrrrrrrrrrrrrrrrrrrrrrroorrrrrrrrrrrrrrr",
"rrrrrrrrrrrrrrroorrrrrrrrrrrrrrrrrrrrrrrrrrrrrroorrrrrrrrrrrrrrrrrrrrrrrrrrrrrroorrrrrrrrrrrrrrrrrrrrrrrrrrrrrroorrrrrrrrrrrrrrr",
"rrrrrrrrrrrrrrroorrrrrrrrrrrrrrrrrrrrrrrrrrrrrroorrrrrrrrrrrrrrrrrrrrrrrrrrrrrroorrrrrrrrrrrrrrrrrrrrrrrrrrrrrroorrrrrrrrrrrrrrr",
"rrrrrrrrrrrrrrroOrrrrrrrrrrrrrrrrrrrrrrrrrrrrrroOrrrrrrrrrrrrrrrrrrrrrrrrrrrrrroOrrrrrrrrrrrrrrrrrrrrrrrrrrrrrroOrrrrrrrrrrrrrrr",
"rrrrrrrrrrrrrero errrrrrrrrrrrrrrrrrrrrrrrrrrero errrrrrrrrrrrrrrrrrrrrrrrrrrero errrrrrrrrrrrrrrrrrrrrrrrrrrero errrrrrrrrrrrrr",
"rrrrrrrrrrrrr94 @rrr<rrrrrrrrrrrrrrrrrrrrrrrr94 @rrr<rrrrrrrrrrrrrrrrrrrrrrrr94 @rrr<rrrrrrrrrrrrrrrrrrrrrrrr94 @rrr<rrrrrrrrrrr",
"rrrr,rrrrrrrrr5  9rrrr>:rrr,rrrrrrrr,rrrrrrrrr5  9rrrr>:rrr,rrrrrrrr,rrrrrrrrr5  9rrrr>:rrr,rrrrrrrr,rrrrrrrrr5  9rrrr>:rrr,rrrr",
"rrrrrrrrrrrrrr5  5r630rrrrrrrrrrrrrrrrrrrrrrrr5  5r630rrrrrrrrrrrrrrrrrrrrrrrr5  5r630rrrrrrrrrrrrrrrrrrrrrrrr5  5r630rrrrrrrrrr",
"rrrrr83333qrr71  15;115330rrrrrwrrrrr83333qrr71  15;115330rrrrrwrrrrr83333qrr71  15;115330rrrrrwrrrrr83333qrr71  15;115330rrrrr6",
"555551111125o       11.111555541555551111125o       11.111555541555551111125o       11.111555541555551111125o       11.111555541",
"                       .                               .                               .                               .        ",
"  OOOOOO# X  +OOOOOOooX  #OO#     OOOOOO# X  +OOOOOOooX  #OO#     OOOOOO# X  +OOOOOOooX  #OO#     OOOOOO# X  +OOOOOOooX  #OO#   ",
" @rrrrrrr-r*&rrrrrrrrrr*%rrrr=O  @rrrrrrr-r*&rrrrrrrrrr*%rrrr=O  @rrrrrrr-r*&rrrrrrrrrr*%rrrr=O  @rrrrrrr-r*&rrrrrrrrrr*%rrrr=O ",
" OrrrrrrrrrrrrrrrrrrrrrrrrrrrrrO OrrrrrrrrrrrrrrrrrrrrrrrrrrrrrO OrrrrrrrrrrrrrrrrrrrrrrrrrrrrrO OrrrrrrrrrrrrrrrrrrrrrrrrrrrrrO",
" $rrrrrrrrrrrrrrrrrrrrrrrrrrrrrO $rrrrrrrrrrrrrrrrrrrrrrrrrrrrrO $rrrrrrrrrrrrrrrrrrrrrrrrrrrrrO $rrrrrrrrrrrrrrrrrrrrrrrrrrrrrO",
"orrrrrrrrrrrrrrrrrrrrrrrrrrrrrroorrrrrrrrrrrrrrrrrrrrrrrrrrrrrroorrrrrrrrrrrrrrrrrrrrrrrrrrrrrroorrrrrrrrrrrrrrrrrrrrrrrrrrrrrro",
"orrrrrrrrrrrrrrrrrrrrrrrrrrrrrroorrrrrrrrrrrrrrrrrrrrrrrrrrrrrroorrrrrrrrrrrrrrrrrrrrrrrrrrrrrroorrrrrrrrrrrrrrrrrrrrrrrrrrrrrro",
"orrrrrrrrrrrrrrrrrrrrrrrrrrrrrroorrrrrrrrrrrrrrrrrrrrrrrrrrrrrroorrrrrrrrrrrrrrrrrrrrrrrrrrrrrroorrrrrrrrrrrrrrrrrrrrrrrrrrrrrro",
"orrrrrrrrrrrrrrrrrrrrrrrrrrrrrroorrrrrrrrrrrrrrrrrrrrrrrrrrrrrroorrrrrrrrrrrrrrrrrrrrrrrrrrrrrroorrrrrrrrrrrrrrrrrrrrrrrrrrrrrro",
"OrrrrrrrrrrrrrrrrrrrrrrrrrrrrrroOrrrrrrrrrrrrrrrrrrrrrrrrrrrrrroOrrrrrrrrrrrrrrrrrrrrrrrrrrrrrroOrrrrrrrrrrrrrrrrrrrrrrrrrrrrrro",
" errrrrrrrrrrrrrrrrrrrrrrrrrrero errrrrrrrrrrrrrrrrrrrrrrrrrrero errrrrrrrrrrrrrrrrrrrrrrrrrrero errrrrrrrrrrrrrrrrrrrrrrrrrrero",
"@rrr<rrrrrrrrrrrrrrrrrrrrrrrr94 @rrr<rrrrrrrrrrrrrrrrrrrrrrrr94 @rrr<rrrrrrrrrrrrrrrrrrrrrrrr94 @rrr<rrrrrrrrrrrrrrrrrrrrrrrr94 ",
" 9rrrr>:rrr,rrrrrrrr,rrrrrrrrr5  9rrrr>:rrr,rrrrrrrr,rrrrrrrrr5  9rrrr>:rrr,rrrrrrrr,rrrrrrrrr5  9rrrr>:rrr,rrrrrrrr,rrrrrrrrr5 ",
" 5r630rrrrrrrrrrrrrrrrrrrrrrrr5  5r630rrrrrrrrrrrrrrrrrrrrrrrr5  5r630rrrrrrrrrrrrrrrrrrrrrrrr5  5r630rrrrrrrrrrrrrrrrrrrrrrrr5 ",
" 15;115330rrrrrwrrrrr83333qrr71  15;115330rrrrrwrrrrr83333qrr71  15;115330rrrrrwrrrrr83333qrr71  15;115330rrrrrwrrrrr83333qrr71 ",
"    11.111555541555551111125o       11.111555541555551111125o       11.111555541555551111125o       11.111555541555551111125o   ",
"       .                               .                               .                               .                        ",
"OOOOooX  #OO#     OOOOOO# X  +OOOOOOooX  #OO#     OOOOOO# X  +OOOOOOooX  #OO#     OOOOOO# X  +OOOOOOooX  #OO#     OOOOOO# X  +OO",
"rrrrrrr*%rrrr=O  @rrrrrrr-r*&rrrrrrrrrr*%rrrr=O  @rrrrrrr-r*&rrrrrrrrrr*%rrrr=O  @rrrrrrr-r*&rrrrrrrrrr*%rrrr=O  @rrrrrrr-r*&rrr",
"rrrrrrrrrrrrrrrO OrrrrrrrrrrrrrrrrrrrrrrrrrrrrrO OrrrrrrrrrrrrrrrrrrrrrrrrrrrrrO OrrrrrrrrrrrrrrrrrrrrrrrrrrrrrO Orrrrrrrrrrrrrr",
"rrrrrrrrrrrrrrrO $rrrrrrrrrrrrrrrrrrrrrrrrrrrrrO $rrrrrrrrrrrrrrrrrrrrrrrrrrrrrO $rrrrrrrrrrrrrrrrrrrrrrrrrrrrrO $rrrrrrrrrrrrrr",
"rrrrrrrrrrrrrrroorrrrrrrrrrrrrrrrrrrrrrrrrrrrrroorrrrrrrrrrrrrrrrrrrrrrrrrrrrrroorrrrrrrrrrrrrrrrrrrrrrrrrrrrrroorrrrrrrrrrrrrrr",
"rrrrrrrrrrrrrrroorrrrrrrrrrrrrrrrrrrrrrrrrrrrrroorrrrrrrrrrrrrrrrrrrrrrrrrrrrrroorrrrrrrrrrrrrrrrrrrrrrrrrrrrrroorrrrrrrrrrrrrrr",
"rrrrrrrrrrrrrrroorrrrrrrrrrrrrrrrrrrrrrrrrrrrrroorrrrrrrrrrrrrrrrrrrrrrrrrrrrrroorrrrrrrrrrrrrrrrrrrrrrrrrrrrrroorrrrrrrrrrrrrrr",
"rrrrrrrrrrrrrrroorrrrrrrrrrrrrrrrrrrrrrrrrrrrrroorrrrrrrrrrrrrrrrrrrrrrrrrrrrrroorrrrrrrrrrrrrrrrrrrrrrrrrrrrrroorrrrrrrrrrrrrrr",
"rrrrrrrrrrrrrrroOrrrrrrrrrrrrrrrrrrrrrrrrrrrrrroOrrrrrrrrrrrrrrrrrrrrrrrrrrrrrroOrrrrrrrrrrrrrrrrrrrrrrrrrrrrrroOrrrrrrrrrrrrrrr",
"rrrrrrrrrrrrrero errrrrrrrrrrrrrrrrrrrrrrrrrrero errrrrrrrrrrrrrrrrrrrrrrrrrrero errrrrrrrrrrrrrrrrrrrrrrrrrrero errrrrrrrrrrrrr",
"rrrrrrrrrrrrr94 @rrr<rrrrrrrrrrrrrrrrrrrrrrrr94 @rrr<rrrrrrrrrrrrrrrrrrrrrrrr94 @rrr<rrrrrrrrrrrrrrrrrrrrrrrr94 @rrr<rrrrrrrrrrr",
"rrrr,rrrrrrrrr5  9rrrr>:rrr,rrrrrrrr,rrrrrrrrr5  9rrrr>:rrr,rrrrrrrr,rrrrrrrrr5  9rrrr>:rrr,rrrrrrrr,rrrrrrrrr5  9rrrr>:rrr,rrrr",
"rrrrrrrrrrrrrr5  5r630rrrrrrrrrrrrrrrrrrrrrrrr5  5r630rrrrrrrrrrrrrrrrrrrrrrrr5  5r630rrrrrrrrrrrrrrrrrrrrrrrr5  5r630rrrrrrrrrr",
"rrrrr83333qrr71  15;115330rrrrrwrrrrr83333qrr71  15;115330rrrrrwrrrrr83333qrr71  15;115330rrrrrwrrrrr83333qrr71  15;115330rrrrr6",
"555551111125o       11.111555541555551111125o       11.111555541555551111125o       11.111555541555551111125o       11.111555541",
"                       .                               .                               .                               .        ",
"  OOOOOO# X  +OOOOOOooX  #OO#     OOOOOO# X  +OOOOOOooX  #OO#     OOOOOO# X  +OOOOOOooX  #OO#     OOOOOO# X  +OOOOOOooX  #OO#   ",
" @rrrrrrr-r*&rrrrrrrrrr*%rrrr=O  @rrrrrrr-r*&rrrrrrrrrr*%rrrr=O  @rrrrrrr-r*&rrrrrrrrrr*%rrrr=O  @rrrrrrr-r*&rrrrrrrrrr*%rrrr=O ",
" OrrrrrrrrrrrrrrrrrrrrrrrrrrrrrO OrrrrrrrrrrrrrrrrrrrrrrrrrrrrrO OrrrrrrrrrrrrrrrrrrrrrrrrrrrrrO OrrrrrrrrrrrrrrrrrrrrrrrrrrrrrO",
" $rrrrrrrrrrrrrrrrrrrrrrrrrrrrrO $rrrrrrrrrrrrrrrrrrrrrrrrrrrrrO $rrrrrrrrrrrrrrrrrrrrrrrrrrrrrO $rrrrrrrrrrrrrrrrrrrrrrrrrrrrrO",
"orrrrrrrrrrrrrrrrrrrrrrrrrrrrrroorrrrrrrrrrrrrrrrrrrrrrrrrrrrrroorrrrrrrrrrrrrrrrrrrrrrrrrrrrrroorrrrrrrrrrrrrrrrrrrrrrrrrrrrrro",
"orrrrrrrrrrrrrrrrrrrrrrrrrrrrrroorrrrrrrrrrrrrrrrrrrrrrrrrrrrrroorrrrrrrrrrrrrrrrrrrrrrrrrrrrrroorrrrrrrrrrrrrrrrrrrrrrrrrrrrrro",
"orrrrrrrrrrrrrrrrrrrrrrrrrrrrrroorrrrrrrrrrrrrrrrrrrrrrrrrrrrrroorrrrrrrrrrrrrrrrrrrrrrrrrrrrrroorrrrrrrrrrrrrrrrrrrrrrrrrrrrrro",
"orrrrrrrrrrrrrrrrrrrrrrrrrrrrrroorrrrrrrrrrrrrrrrrrrrrrrrrrrrrroorrrrrrrrrrrrrrrrrrrrrrrrrrrrrroorrrrrrrrrrrrrrrrrrrrrrrrrrrrrro",
"OrrrrrrrrrrrrrrrrrrrrrrrrrrrrrroOrrrrrrrrrrrrrrrrrrrrrrrrrrrrrroOrrrrrrrrrrrrrrrrrrrrrrrrrrrrrroOrrrrrrrrrrrrrrrrrrrrrrrrrrrrrro",
" errrrrrrrrrrrrrrrrrrrrrrrrrrero errrrrrrrrrrrrrrrrrrrrrrrrrrero errrrrrrrrrrrrrrrrrrrrrrrrrrero errrrrrrrrrrrrrrrrrrrrrrrrrrero",
"@rrr<rrrrrrrrrrrrrrrrrrrrrrrr94 @rrr<rrrrrrrrrrrrrrrrrrrrrrrr94 @rrr<rrrrrrrrrrrrrrrrrrrrrrrr94 @rrr<rrrrrrrrrrrrrrrrrrrrrrrr94 ",
" 9rrrr>:rrr,rrrrrrrr,rrrrrrrrr5  9rrrr>:rrr,rrrrrrrr,rrrrrrrrr5  9rrrr>:rrr,rrrrrrrr,rrrrrrrrr5  9rrrr>:rrr,rrrrrrrr,rrrrrrrrr5 ",
" 5r630rrrrrrrrrrrrrrrrrrrrrrrr5  5r630rrrrrrrrrrrrrrrrrrrrrrrr5  5r630rrrrrrrrrrrrrrrrrrrrrrrr5  5r630rrrrrrrrrrrrrrrrrrrrrrrr5 ",
" 15;115330rrrrrwrrrrr83333qrr71  15;115330rrrrrwrrrrr83333qrr71  15;115330rrrrrwrrrrr83333qrr71  15;115330rrrrrwrrrrr83333qrr71 ",
"    11.111555541555551111125o       11.111555541555551111125o       11.111555541555551111125o       11.111555541555551111125o   ",
"       .                               .                               .                               .                        ",
"OOOOooX  #OO#     OOOOOO# X  +OOOOOOooX  #OO#     OOOOOO# X  +OOOOOOooX  #OO#     OOOOOO# X  +OOOOOOooX  #OO#     OOOOOO# X  +OO",
"rrrrrrr*%rrrr=O  @rrrrrrr-r*&rrrrrrrrrr*%rrrr=O  @rrrrrrr-r*&rrrrrrrrrr*%rrrr=O  @rrrrrrr-r*&rrrrrrrrrr*%rrrr=O  @rrrrrrr-r*&rrr",
"rrrrrrrrrrrrrrrO OrrrrrrrrrrrrrrrrrrrrrrrrrrrrrO OrrrrrrrrrrrrrrrrrrrrrrrrrrrrrO OrrrrrrrrrrrrrrrrrrrrrrrrrrrrrO Orrrrrrrrrrrrrr",
"rrrrrrrrrrrrrrrO $rrrrrrrrrrrrrrrrrrrrrrrrrrrrrO $rrrrrrrrrrrrrrrrrrrrrrrrrrrrrO $rrrrrrrrrrrrrrrrrrrrrrrrrrrrrO $rrrrrrrrrrrrrr",
"rrrrrrrrrrrrrrroorrrrrrrrrrrrrrrrrrrrrrrrrrrrrroorrrrrrrrrrrrrrrrrrrrrrrrrrrrrroorrrrrrrrrrrrrrrrrrrrrrrrrrrrrroorrrrrrrrrrrrrrr",
"rrrrrrrrrrrrrrroorrrrrrrrrrrrrrrrrrrrrrrrrrrrrroorrrrrrrrrrrrrrrrrrrrrrrrrrrrrroorrrrrrrrrrrrrrrrrrrrrrrrrrrrrroorrrrrrrrrrrrrrr",
"rrrrrrrrrrrrrrroorrrrrrrrrrrrrrrrrrrrrrrrrrrrrroorrrrrrrrrrrrrrrrrrrrrrrrrrrrrroorrrrrrrrrrrrrrrrrrrrrrrrrrrrrroorrrrrrrrrrrrrrr",
"rrrrrrrrrrrrrrroorrrrrrrrrrrrrrrrrrrrrrrrrrrrrroorrrrrrrrrrrrrrrrrrrrrrrrrrrrrroorrrrrrrrrrrrrrrrrrrrrrrrrrrrrroorrrrrrrrrrrrrrr",
"rrrrrrrrrrrrrrroOrrrrrrrrrrrrrrrrrrrrrrrrrrrrrroOrrrrrrrrrrrrrrrrrrrrrrrrrrrrrroOrrrrrrrrrrrrrrrrrrrrrrrrrrrrrroOrrrrrrrrrrrrrrr",
"rrrrrrrrrrrrrero errrrrrrrrrrrrrrrrrrrrrrrrrrero errrrrrrrrrrrrrrrrrrrrrrrrrrero errrrrrrrrrrrrrrrrrrrrrrrrrrero errrrrrrrrrrrrr",
"rrrrrrrrrrrrr94 @rrr<rrrrrrrrrrrrrrrrrrrrrrrr94 @rrr<rrrrrrrrrrrrrrrrrrrrrrrr94 @rrr<rrrrrrrrrrrrrrrrrrrrrrrr94 @rrr<rrrrrrrrrrr",
"rrrr,rrrrrrrrr5  9rrrr>:rrr,rrrrrrrr,rrrrrrrrr5  9rrrr>:rrr,rrrrrrrr,rrrrrrrrr5  9rrrr>:rrr,rrrrrrrr,rrrrrrrrr5  9rrrr>:rrr,rrrr",
"rrrrrrrrrrrrrr5  5r630rrrrrrrrrrrrrrrrrrrrrrrr5  5r630rrrrrrrrrrrrrrrrrrrrrrrr5  5r630rrrrrrrrrrrrrrrrrrrrrrrr5  5r630rrrrrrrrrr",
"rrrrr83333qrr71  15;115330rrrrrwrrrrr83333qrr71  15;115330rrrrrwrrrrr83333qrr71  15;115330rrrrrwrrrrr83333qrr71  15;115330rrrrr6",
"555551111125o       11.111555541555551111125o       11.111555541555551111125o       11.111555541555551111125o       11.111555541",
"                       .                               .                               .                               .        ",
"  OOOOOO# X  +OOOOOOooX  #OO#     OOOOOO# X  +OOOOOOooX  #OO#     OOOOOO# X  +OOOOOOooX  #OO#     OOOOOO# X  +OOOOOOooX  #OO#   ",
" @rrrrrrr-r*&rrrrrrrrrr*%rrrr=O  @rrrrrrr-r*&rrrrrrrrrr*%rrrr=O  @rrrrrrr-r*&rrrrrrrrrr*%rrrr=O  @rrrrrrr-r*&rrrrrrrrrr*%rrrr=O ",
" OrrrrrrrrrrrrrrrrrrrrrrrrrrrrrO OrrrrrrrrrrrrrrrrrrrrrrrrrrrrrO OrrrrrrrrrrrrrrrrrrrrrrrrrrrrrO OrrrrrrrrrrrrrrrrrrrrrrrrrrrrrO",
" $rrrrrrrrrrrrrrrrrrrrrrrrrrrrrO $rrrrrrrrrrrrrrrrrrrrrrrrrrrrrO $rrrrrrrrrrrrrrrrrrrrrrrrrrrrrO $rrrrrrrrrrrrrrrrrrrrrrrrrrrrrO",
"orrrrrrrrrrrrrrrrrrrrrrrrrrrrrroorrrrrrrrrrrrrrrrrrrrrrrrrrrrrroorrrrrrrrrrrrrrrrrrrrrrrrrrrrrroorrrrrrrrrrrrrrrrrrrrrrrrrrrrrro",
"orrrrrrrrrrrrrrrrrrrrrrrrrrrrrroorrrrrrrrrrrrrrrrrrrrrrrrrrrrrroorrrrrrrrrrrrrrrrrrrrrrrrrrrrrroorrrrrrrrrrrrrrrrrrrrrrrrrrrrrro",
"orrrrrrrrrrrrrrrrrrrrrrrrrrrrrroorrrrrrrrrrrrrrrrrrrrrrrrrrrrrroorrrrrrrrrrrrrrrrrrrrrrrrrrrrrroorrrrrrrrrrrrrrrrrrrrrrrrrrrrrro",
"orrrrrrrrrrrrrrrrrrrrrrrrrrrrrroorrrrrrrrrrrrrrrrrrrrrrrrrrrrrroorrrrrrrrrrrrrrrrrrrrrrrrrrrrrroorrrrrrrrrrrrrrrrrrrrrrrrrrrrrro",
"OrrrrrrrrrrrrrrrrrrrrrrrrrrrrrroOrrrrrrrrrrrrrrrrrrrrrrrrrrrrrroOrrrrrrrrrrrrrrrrrrrrrrrrrrrrrroOrrrrrrrrrrrrrrrrrrrrrrrrrrrrrro",
" errrrrrrrrrrrrrrrrrrrrrrrrrrero errrrrrrrrrrrrrrrrrrrrrrrrrrero errrrrrrrrrrrrrrrrrrrrrrrrrrero errrrrrrrrrrrrrrrrrrrrrrrrrrero",
"@rrr<rrrrrrrrrrrrrrrrrrrrrrrr94 @rrr<rrrrrrrrrrrrrrrrrrrrrrrr94 @rrr<rrrrrrrrrrrrrrrrrrrrrrrr94 @rrr<rrrrrrrrrrrrrrrrrrrrrrrr94 ",
" 9rrrr>:rrr,rrrrrrrr,rrrrrrrrr5  9rrrr>:rrr,rrrrrrrr,rrrrrrrrr5  9rrrr>:rrr,rrrrrrrr,rrrrrrrrr5  9rrrr>:rrr,rrrrrrrr,rrrrrrrrr5 ",
" 5r630rrrrrrrrrrrrrrrrrrrrrrrr5  5r630rrrrrrrrrrrrrrrrrrrrrrrr5  5r630rrrrrrrrrrrrrrrrrrrrrrrr5  5r630rrrrrrrrrrrrrrrrrrrrrrrr5 ",
" 15;115330rrrrrwrrrrr83333qrr71  15;115330rrrrrwrrrrr83333qrr71  15;115330rrrrrwrrrrr83333qrr71  15;115330rrrrrwrrrrr83333qrr71 ",
"    11.111555541555551111125o       11.111555541555551111125o       11.111555541555551111125o       11.111555541555551111125o   ",
"       .                               .                               .                               .                        ",
"OOOOooX  #OO#     OOOOOO# X  +OOOOOOooX  #OO#     OOOOOO# X  +OOOOOOooX  #OO#     OOOOOO# X  +OOOOOOooX  #OO#     OOOOOO# X  +OO",
"rrrrrrr*%rrrr=O  @rrrrrrr-r*&rrrrrrrrrr*%rrrr=O  @rrrrrrr-r*&rrrrrrrrrr*%rrrr=O  @rrrrrrr-r*&rrrrrrrrrr*%rrrr=O  @rrrrrrr-r*&rrr",
"rrrrrrrrrrrrrrrO OrrrrrrrrrrrrrrrrrrrrrrrrrrrrrO OrrrrrrrrrrrrrrrrrrrrrrrrrrrrrO OrrrrrrrrrrrrrrrrrrrrrrrrrrrrrO Orrrrrrrrrrrrrr",
"rrrrrrrrrrrrrrrO $rrrrrrrrrrrrrrrrrrrrrrrrrrrrrO $rrrrrrrrrrrrrrrrrrrrrrrrrrrrrO $rrrrrrrrrrrrrrrrrrrrrrrrrrrrrO $rrrrrrrrrrrrrr",
"rrrrrrrrrrrrrrroorrrrrrrrrrrrrrrrrrrrrrrrrrrrrroorrrrrrrrrrrrrrrrrrrrrrrrrrrrrroorrrrrrrrrrrrrrrrrrrrrrrrrrrrrroorrrrrrrrrrrrrrr",
"rrrrrrrrrrrrrrroorrrrrrrrrrrrrrrrrrrrrrrrrrrrrroorrrrrrrrrrrrrrrrrrrrrrrrrrrrrroorrrrrrrrrrrrrrrrrrrrrrrrrrrrrroorrrrrrrrrrrrrrr",
"rrrrrrrrrrrrrrroorrrrrrrrrrrrrrrrrrrrrrrrrrrrrroorrrrrrrrrrrrrrrrrrrrrrrrrrrrrroorrrrrrrrrrrrrrrrrrrrrrrrrrrrrroorrrrrrrrrrrrrrr",
"rrrrrrrrrrrrrrroorrrrrrrrrrrrrrrrrrrrrrrrrrrrrroorrrrrrrrrrrrrrrrrrrrrrrrrrrrrroorrrrrrrrrrrrrrrrrrrrrrrrrrrrrroorrrrrrrrrrrrrrr",
"rrrrrrrrrrrrrrroOrrrrrrrrrrrrrrrrrrrrrrrrrrrrrroOrrrrrrrrrrrrrrrrrrrrrrrrrrrrrroOrrrrrrrrrrrrrrrrrrrrrrrrrrrrrroOrrrrrrrrrrrrrrr",
"rrrrrrrrrrrrrero errrrrrrrrrrrrrrrrrrrrrrrrrrero errrrrrrrrrrrrrrrrrrrrrrrrrrero errrrrrrrrrrrrrrrrrrrrrrrrrrero errrrrrrrrrrrrr",
"rrrrrrrrrrrrr94 @rrr<rrrrrrrrrrrrrrrrrrrrrrrr94 @rrr<rrrrrrrrrrrrrrrrrrrrrrrr94 @rrr<rrrrrrrrrrrrrrrrrrrrrrrr94 @rrr<rrrrrrrrrrr",
"rrrr,rrrrrrrrr5  9rrrr>:rrr,rrrrrrrr,rrrrrrrrr5  9rrrr>:rrr,rrrrrrrr,rrrrrrrrr5  9rrrr>:rrr,rrrrrrrr,rrrrrrrrr5  9rrrr>:rrr,rrrr",
"rrrrrrrrrrrrrr5  5r630rrrrrrrrrrrrrrrrrrrrrrrr5  5r630rrrrrrrrrrrrrrrrrrrrrrrr5  5r630rrrrrrrrrrrrrrrrrrrrrrrr5  5r630rrrrrrrrrr",
"rrrrr83333qrr71  15;115330rrrrrwrrrrr83333qrr71  15;115330rrrrrwrrrrr83333qrr71  15;115330rrrrrwrrrrr83333qrr71  15;115330rrrrr6",
"555551111125o       11.111555541555551111125o       11.111555541555551111125o       11.111555541555551111125o       11.111555541",
"                       .                               .                               .                               .        "
};
