/* XPM */
static char *_283dd297c144d05b360a3111bf64222DwZIyjB7PrPFqFOp[] = {
/* columns rows colors chars-per-pixel */
"64 64 211 2 ",
"   c #0D0A03",
".  c #160500",
"X  c #180700",
"o  c #120900",
"O  c #1C0C00",
"+  c #170E09",
"@  c #1F1304",
"#  c #1B140A",
"$  c #220D00",
"%  c #2B0D00",
"&  c #2A0700",
"*  c #330E00",
"=  c #241201",
"-  c #2C1400",
";  c #2D1901",
":  c #331500",
">  c #3A1700",
",  c #351A00",
"<  c #3B1B00",
"1  c #3D2101",
"2  c #411C00",
"3  c #401F0C",
"4  c #422100",
"5  c #44250B",
"6  c #48290D",
"7  c #492910",
"8  c #6C4416",
"9  c #66451E",
"0  c #6C441B",
"q  c #6E491E",
"w  c #724417",
"e  c #7A4B17",
"r  c #72461B",
"t  c #744B1D",
"y  c #7A4C1C",
"u  c #7D4718",
"i  c #7C5117",
"p  c #7B511D",
"a  c #5F4429",
"s  c #674620",
"d  c #6B4623",
"f  c #6E4B23",
"g  c #64462B",
"h  c #69462D",
"j  c #654A2D",
"k  c #6D492B",
"l  c #754D22",
"z  c #794D22",
"x  c #734D2A",
"c  c #784C29",
"v  c #765124",
"b  c #7A5223",
"n  c #765129",
"m  c #7B542B",
"M  c #7E5929",
"N  c #644431",
"B  c #664C33",
"V  c #6B4B33",
"C  c #6D4D39",
"Z  c #6A4630",
"A  c #714E33",
"S  c #724F3B",
"D  c #735134",
"F  c #824D1C",
"G  c #814E15",
"H  c #83531B",
"J  c #855316",
"K  c #885124",
"L  c #875C2D",
"P  c #815625",
"I  c #865B31",
"U  c #855831",
"Y  c #9E662D",
"T  c #9E692F",
"R  c #9E6531",
"E  c #9E6B33",
"W  c #9E6D3C",
"Q  c #9F7135",
"!  c #9F713B",
"~  c #A56B2D",
"^  c #AA6D2E",
"/  c #A36728",
"(  c #AD732E",
")  c #A46734",
"_  c #A46C34",
"`  c #AA6D34",
"'  c #A46D3A",
"]  c #AA6E3A",
"[  c #A57135",
"{  c #AB7235",
"}  c #A5723B",
"|  c #AA733B",
" . c #A6783E",
".. c #AE7A3C",
"X. c #B27334",
"o. c #B1743A",
"O. c #B27B3D",
"+. c #BA7C3E",
"@. c #B3702B",
"#. c #846745",
"$. c #8C6E49",
"%. c #876945",
"&. c #906F4C",
"*. c #91704E",
"=. c #9F7545",
"-. c #81715C",
";. c #9F7954",
":. c #A06D40",
">. c #A47442",
",. c #AB7543",
"<. c #A67A44",
"1. c #AC7A44",
"2. c #A4774C",
"3. c #AB7648",
"4. c #A57A4B",
"5. c #AB7B4B",
"6. c #B27645",
"7. c #B27C44",
"8. c #B37649",
"9. c #B37D4C",
"0. c #B87C40",
"q. c #A37B52",
"w. c #AC7C52",
"e. c #A17E58",
"r. c #B37C50",
"t. c #827161",
"y. c #937D65",
"u. c #AE814E",
"i. c #AF8145",
"p. c #B28045",
"a. c #B4814D",
"s. c #AD8253",
"d. c #A5825B",
"f. c #AC835B",
"g. c #AC8B5D",
"h. c #AB8956",
"j. c #B48452",
"k. c #B98554",
"l. c #B18956",
"z. c #B2865C",
"x. c #B38C5C",
"c. c #BC8D5C",
"v. c #B88953",
"b. c #B3905F",
"n. c #BD905E",
"m. c #9F8666",
"M. c #9F8668",
"N. c #9B8B7B",
"B. c #968677",
"V. c #A58363",
"C. c #AA8662",
"Z. c #A68B63",
"A. c #AC8B64",
"S. c #A5846A",
"D. c #A88769",
"F. c #A48A6A",
"G. c #AB8D6A",
"H. c #B28663",
"J. c #B28C64",
"K. c #BD8E62",
"L. c #B38E6A",
"P. c #B98D6B",
"I. c #B2846A",
"U. c #AB9165",
"Y. c #AD916C",
"T. c #B49063",
"R. c #BD9364",
"E. c #B5926C",
"W. c #BB926B",
"Q. c #BC9A6C",
"!. c #BF9B67",
"~. c #AC8D71",
"^. c #A68C71",
"/. c #B78D74",
"(. c #B98B73",
"). c #AE9073",
"_. c #B39473",
"`. c #B99672",
"'. c #BA9A74",
"]. c #BB9C7A",
"[. c #C28D55",
"{. c #C38F5B",
"}. c #C69256",
"|. c #CB9356",
" X c #C4945D",
".X c #CA955C",
"XX c #C6985E",
"oX c #CD9A5E",
"OX c #D49B5B",
"+X c #C48F61",
"@X c #C49462",
"#X c #CA9463",
"$X c #C59A65",
"%X c #CC9A64",
"&X c #C29569",
"*X c #CB956A",
"=X c #C49A6B",
"-X c #CB9B6A",
";X c #D39B63",
":X c #DA9E64",
">X c #D09B6A",
",X c #D09665",
"<X c #C49B71",
"1X c #CE9B71",
"2X c #CFA168",
"3X c #D2A26C",
"4X c #D3A267",
"5X c #D3A271",
"6X c #B59E8C",
"7X c #B29C87",
"8X c #B2A088",
/* pixels */
"    > > - ; : : > 1 > : > , , = o @ ; < : : , ; ; = 1 , > > > ; # o , : : : , , , 1 > : , 1 , = o = - 1 : : - ; ; - , , 2 2 > 1 ",
"  N.`.J._.Y.G.H.c.b.J.C.A.A.G.^.t.X ].E.V.C.b.g.Z./.Y.V.P.H.L.F.@ N.L.A._.G.A.V.b.b.x.H.Z.Z.G.^.t.X ].E.C.A.L.Z.A.U.G.V.(.H.A.A.",
"- G.r.7.5.=.W 9.p.p.1.1.1.5.u.f.B : f.@X3.9.1.O.,.q.j.5.9.9.R.n : G.s.7.r.>.W 5.i.p.6.,.<.i.u.f.C : s. X,.j.3.9.>.<.j.s.9.9.n.p ",
": q.7.o._ } ] | { { { { | [ } 4.h * j.;X..| ~ ^ o.) [ | ~ ' 2Xv , q.1.o.} } | | { { ` { { [ ! 2.V : a.:X{ o.) ] { _ [ | ) ] 3Xp ",
": J.7.` | _ ,.E [ [ [ ` { _ [ 2.C & P.%X` o.` X.) ] } ..O.T c.l , T.<.^ | [ ,.E [ [ _ ` [ Q [ 2.A % n.oX{ | ` o._ _ ' ,.6.E K.c ",
"< d.1.} <.E R } }  .| { } [ >.q.N 1 s. X| | ~ ` ) ' E [ } | !.f < f.1._ <.E E  . .} | { } } >.q.g 5 u.}.[ { _ ) _ ' W >.| ,.@Xl ",
", d.-X%X@X=Xn.$XR.$X@X X X@X@X'.V : f.5X-X#X X,X#X+X=X=XXX$X=Xv : d.-X%Xc.$Xc.@XR.!.XX}.XX$X@X<XV : w.3X2X%X.X*X@X@X=X=X+X$X<Xm ",
", $.8 y t q l t 9 f t e t t l l a , m b t t e e d l d f v t v 9 , &.0 y l l l f 9 f t t t t t f g : m b t t t e w d s f c t l 0 ",
"- , > > 2 < < > = , > 4 > < < 1 , , > < < < < > , : ; : < 4 > > ; , > > > 2 > , = , , 2 > < < < - , < 1 1 < < < > , ; - < 2 > < ",
"F.G.A.A.A.G.A.G.m.= `.K.J.J.E.A.g.U.A.J.A.U.J.A.Z.S.$ 6XD.C.W.T.G.Z.J.A.A.Z.J.Y.y.- '.T.C.J.`.A.A.A.J.I.F.G.A.U.Z.M.$ 6XV.g.R.n.",
"5.5.<.3.5.3.5.f.A > 5.[.>.3.a.1.i...,.3.4.<.<.<.c.m > D.H.k.7.7.5.4.5.1.3.5.5.w.D > 5.[.,.,.9.1.7.1.,.3.4.4. .<.x.m > V.z.a.7.+.",
"_ _ _ } ] ] } 5.k < a.:X] ) | O.X.( { } } } } }  XL * (.w.,.X.{ [ _ ) | | ' | 5.x < a.:X] ' | | { X.| ' >.} [ [ *XI * W.9...@.^ ",
"_ _ E [ ' ) } 5.A * k.OX) ' | } { ^ _ _ W ' ' '  Xe 2 V.4.' ` { _ _ ) } ' _ } 5.D * a.|._ ] ..[ { { _ ' ! ! [ _ {.l < d.5.[ { ^ ",
"| } ! [ | ' } 5.V 5 9.|.) >.} [ } } _ [ }  .] o.#XP < e.h.<.} T  .} }  .} }  .5.V 5 u.}.) ]  .[ { [ ' ' ! >.} | *XU > d.u.<.` Y ",
".XXXXXn.@X#XXX=XB % l.3X X@X%X3X&X&X@X$X$X$X*X*X%Xz > S.=X2Xn.XX.XXX X@XR.XX X=XB - l.3X@X#X%X2X%X@X@X@X-X%X.X.X1Xc > V.!.$Xc.+X",
"q t t t y t t f B - P y w c y t d d t t p b u y y 0 4 #.f v 8 q t t p t t l t f B - M p 0 b z r q 9 q t b b y u l d 1 #.f b 8 q ",
"= O < 2 > < > > , < 2 > > 1 , , $ ; : > > > 4 < , : , , 2 < > , ; $ < 2 < < > > , < 2 > 1 < < , = = : 4 > < < > , , 1 > < 2 > < ",
"+ B.G.g.E.Z.C.A.T.T.H.H.Z.U.G.~.t.O ].W.C.C.U.h.G.).Y.V.P.J.G.F.@ N.G.A.'.Z.C.A.g.K.H.H.Z.Z.G.~.-.. ].T.A.C.T.Z.g.U.G.V.P.J.T.g.",
"- ~.u...5.>.>.1.p.7.8.,.<.i.4.f.V * f.*X5.a.p.1.>.w.u.u.9.9.K.n - _.j.,.<.>.>.3.p.p.6.6.<.<.5.f.C : x. X1.9.9.5. .<.u.u.9.9.@Xb ",
": ;.1.o.{ [ | | { { ] ] | [ } 5.h > j.;Xo.{ / ^ | ) [ { ` ` 2Xl > e.7.o.} | | '  .{ ` | } } } w.h : j.OX{ { ) ` | ~ [ | ) | 5Xp ",
": J...[ | E } T [ [ ` ` [ [ [ 4.S % +X,X' ] ^ X.) ' [  .| T n.v > L.9._ >.' ,.E { } ` ) _ [ [ 2.V &  X}.^ { X.o._ [ [ 1.6.R K.z ",
": f.5.~ } ! [ } <.>.| ] } } } q.N < s. X| ..` ` ) ' W Q [ <.R.x : C.9._ } ' ' } <.<.,.] >.} >.q.g 5 s.}. .{ _ ` ~ _ E } | ,.P.l ",
": d.$X2XXX@Xc.$XR.&X@X@Xn.@X@X=XC * f.3X-X#X[..X#X@X=X$XXX$X=Xn > e.=X%X@X@Xc.-XW.&X#X+X$X@X@X&XV % s.3X4X}. X#X@X@X=X=X+X$X1Xn ",
": $.r y 8 t l t s f z e v t l l N : m z t b u y q q s f v w v 9 > *.r z t t l r 9 d l y l l l l h : m b p q t e r r s f c r m 9 ",
"- : > > < < > > = , : 2 > > < 1 : , > < < < < > , , ; - > 2 > < , , > < < < < < = , > 2 > 2 < 1 - , > 2 1 , < > > - , = < 4 > 2 ",
"m.D.A.J.A.A.A.Y.y.- '.W.J.I.E.J.A.J.J.J.G.G.A.U.A.M.$ 8XS.C.R.T.Z.F.A.J.A.A.g.G.y.- '.T.J.J.E.g.A.A.J.I.Y.U.A.U.G.M.= 7XD.C.R.R.",
"2.5.5.1.5.5.5.s.A > 5.{.,.,.i.1.7...,.,.4.<.<.4.x.m > S.H.j.7.7.5.5.<.1.1.<.1.s.x > 5.[.>.,.5.1.p.1.,.3.2.4. . .c.n < V.z.j.7.+.",
"' ' ' { { ) | 5.d 2 j.:X6.' { { ( X.X.{ } [ } [  XI : /.r.7.o.` { ) ` { { [ | 1.l 2 a.4X] ` { { X.{ ] >.>.! [ [ @XI : P.9.7.X.@.",
"_ _ [ _ [ E [ <.A * v..X) ] | [ { ^ ` _ [ ! ' _  Xy < V.q.' [ { _ _ _ [ [ ~ [ 4.D * v.|.) _ { [ { ` _ ' =.W ~ [ +Xl 2 V.5._ { { ",
"} } | }  .} } 4.Z 7 u..X) ,.} [ | } _ ' ! } | ,.%Xb > V.s.1.[ Y | } } | } [ } <.h 5 s..X' | } [ [ } ' ' }  .} | *XU > V.w.<.] R ",
" X.X X X@X$XXX!.B - x.3X#X#X#X3X*X#X@X@X$X$X%X,X%Xp , V.=X2Xn.XXXX.X X XXXXX X!.B % z.3X+X#X%X4X@X@X@X=X=X$XOX#X*Xc : Z.=X=XK.+X",
"r v t t y p w q N - M y w c t t d d r z v p z y y 8 1 #.f n 8 q q t t t t p t f B - L y w z b r d d l l b p y u r k < %.q z 0 d ",
"= $ 1 < > < < < , < 2 2 1 < , , = ; , < > > < , , - 1 < 2 < > , ; = < < > < < < , < 2 > < < > , = - : 4 > < < < , - < , > 2 > 2 ",
"o N._.f._.U.I.C.x.c.H.H.g.Z.D.~.t.X '.c.Z.Z.T.h.A.Y.G.D.(.I.L.F.O N.E.A.E.U.A.A.b.b.J.z.g.Z.Z.~.-.X 7XW.C.g.U.g.U.Y.Y.V.W.J.T.A.",
"- G.a.7.j.>.:.5.p.i.6.,.<.<.5.f.C - l. X9.9.9.1.>.5.u.5.r.r.K.l ; D.s.7.w.>.' 5.p.p.6.6.<.i.4.f.V : l.#X1.p.7.1. .<.j.9.7.9.@Xb ",
": ;.1.o.} } | _ { { | { {  .| q.Z : j.OX..] ^ ` | _ _ | ` ] 5Xz , q.7.o.} | | ' { { ` ]  .{  .4.d : k.;X{ { / ` { _ _ } ^ ` 5Xz ",
", J.1.^ | _ ,.E [ [ ^ _ [ Q [ 2.C & +X.X] | ` o._ ' [ ..O.E c.l > J.1._ | ' ,.E [ [ ` ` [ _ ' 2.V %  X.X~ { { X._ ] _ 1.o.E R.c ",
"< d.1.[ <.) E  . . .| [ [ } >.q.N 3 s. X..| ` ) ) E E [ } ,.@Xf < f.1.} 3.' E >.>.>.| ] } >.>.q.g 5 s..X{ { ~ ~ _ } E [ } | &Xz ",
": d.-X%X@X=Xc.$XR.=X.X X@X@X@X<XV - s.5X3X@X X#X@X@X=X$X@X$X1Xc : d.*X%X@X*XK.$XW.=X#X@X@X$X$X&XZ : w.3X2XXX}.oX@X@X=X=XK.$X<Xc ",
", *.0 z t l l t 9 f t e t l t l g : v z z t y y r q s f l t v 9 > *.0 l t l z d s f t e l l l f h : n n t t i t w q s f c e m 9 ",
"- , > > 2 2 < , = , : 2 2 < > 1 : , > < 1 1 < , > , ; - < 4 > > - , > > > < < , = , > 2 > < < 1 - , > > 1 < < < > : ; - 1 4 > 2 ",
"G.D.A.A.A.A.G.G.y.- '.J.J.J.E.A.g.A.J.J.G.A.g.A.I.y.$ 6XD.C.P.K.A.G.A.A.g.A.J.G.y.- Q.T.J.J.E.J.L.J.J.A.Z.Y.A.A.Z.M.$ 8XD.f.R.n.",
"4.5.5.,.5.5.5.z.x > 5.[.,.,.5.5.O.O...>.<.<.<.<.z.U 3 y.H.j.9.9.5.5.1.1.<.3.5.j.x 2 5.v.| 3.9.7.1.7.1.3.2.2.<.<.x.m < V.x.j.0.O.",
"[ _ _ ' } ` ] 5.x 2 a.OX] ] ] O.{ ( { | } [ [ [ +XU 2 <Xw.o.o.X.[ _ { | | _ | 5.x 4 a.OX| ) | | X.{ ` } >.>.} [ .XL : (.5...X.@.",
"_ _ _ ' ' ) [ q.A * k.|.) ] | [ ^ ^ ) ' ! Q [ Q  Xz 2 y.5._ ` ] _ _ _ [ ' _ } <.A * v.|.) _ | } { ` _ ' ! ! [ ' {.y > V.q.' { X.",
"[ | } } } }  .5.V 6 u.}.' ,.} [ [ } ' :.! Q  .| %XP > e.s.1.] R | [ } } } } ,.4.V 6 u.}.' | | |  .' _ ' } >.} | *XP < d.r.5.] Y ",
".XoX X@X@XXX X=XB - l.>X X+X%X2X$X$X@X@XXX%XoX,X*Xz , Z.=X2Xc.@X.X X X X@X@X@X<XB - s.3X+X+X%X>X$X$X XXX$X$X%X#X>Xc > Z.'.=XK.{.",
"q l y t t l t f B - M y w K p r 9 f l v v p y e l 9 1 #.q t 0 l l l t z l l t f B : m p w P z d d f q t v b F u z 8 < #.x m 0 r ",
"@ = 1 < : < < > , < 2 2 > < < , = ; , 2 < < 1 , , - < , 2 2 > , = $ 1 4 < < > > > 2 2 > < 1 > , $ - > 4 , 1 > > > : 1 , < > < 4 ",
"+ N.G.x.E.Z.A.J.T.T.J.H.D.A.G.).-.. '.L.Z.C.T.h.Z.E.Y.C.P.H.P.^.= N.G.A.`.C.C.J.g.J.H.H.A.Z.G.~.t.. ].T.V.A.A.A.g.U.U.V.L.J.T.J.",
"% G.l.,.5.<.>.1.p.p.8.,.<.i.5.f.C : z.{.9.9.7.1.>.4.u.u.9.9.K.m - _.j.| <.<.>.5.p.p.6.6.<.<.5.f.B : s.oX1.9.9.1. .<.u.9.9.9.@Xp ",
": ;.7.O.{ [ } | { { ] ] [ [ } 4.k * j.;X| ] ~ ( | _ [ { _ ` 5Xc > e.7.X.[ } } } { | | | [ [ | q.h : u.:XX.` _ { { ~ [ | ) ] 2Xp ",
"> J.<.` | _ | E [ [ ` ] } Q [ 4.A & R. X` ] ` X.` ` [ ..X.T K.l > J.1._ } [ | E [ [ ` ` [ Q [ 4.B * c.OX^ ` | | ~ [ ' 0.6._ c.v ",
"< f.p._ [ Q _ } <.3.| ] }  . .4.g 5 z. X,.{ _ ^ ) ' E Q [ ..W.l > A.a.~ [ Q [ } <.<.| ] } [  .4.g 5 u..XX.{ _ _ E _ ' ' ] ,.R.f ",
", ;.=X%X@X$Xc.$XR.$X@X+XXX@X@X=Xk - f.5X-X@X X#X@X@X$X$XXX$X=Xx > e.$X%X X@Xc.-XR.&X@X{.@X$X@X=XB % s.4X>XoX}.$XXXR.=X*X@X@X<Xm ",
": *.t p t t t q s f z t t l t v g : m b b t z y r f s f v l c d , $.t p r t t t s f l y t v t q g , m v t p r e r q s f c t v q ",
"; , > > < < > > = , : 4 2 > < 1 - , > < 1 , > < , ; , : 4 2 > > : , > > > < < , $ < : 2 2 > > 1 : , < < 1 , < < , : ; ; 1 4 > 2 ",
"F.D.J.J.U.A.A.G.y.$ `.P.I.J.W.A.x.U.T.J.G.U.A.A.Z.S.$ 6XD.C.&XP.F.G.A.J.A.T.A.G.y.% '.L.J.L.E.A.J.J.J.A.F.U.T.T.C.S.O 8XZ.f.R.R.",
"4.5.5.1.5.5.1.s.D > r.@X,.5.a.1.O.O...,.<.=.4.4.c.m > y.H.k.8.7.5.5.5.,.5.<.5.w.A > 5.{.3.8.3.1.7.1.1.4.;.<. .<.c.m , S.x.k.0.+.",
"' ' ' { | _ } 5.x > a.:X] ) [ { ( { { } >.} } } XXL * (.w.3.o.` ] ' _ | ] [ | 5.f 2 j.:X,.) ` { X.X.| } =.! [ ^ #XI : L.4.o.X.@.",
") _ _ _ _ _ [ 5.A % j..X' ) | ` ^ ^ _ _ W W ' ' [.y 2 V.q.) | ] _ _ _ _ _ _ [ <.D * j..X' ] | { ` ` _ ' =.! ~ [  Xc 2 V.<._ { X.",
"} } [ }  .[ } 4.V 6 a..X] ,.| } | ' ' ! ! >.,.,..Xb > V.s.<.>.R | | } } } } } 4.C 7 s..X' | | } [ [ ' ' >.} [ [ *Xm > d.s.<.} R ",
".X%X XXX@XXX}.=XB $ s.4X+X@X$X4X*X$X@X$X=X-X*X,X%Xp > V.Q.2X{.@X@X#X@X X$XXXXX&XB $ l.4X#X+X X-X$X$X@X$X%X%XOX%X-Xc > V.=X=Xc.K.",
"H H y e i i p l B - L H u K H e y z y p P P K F F 8 4 #.v b r w H H H i e i i t N - L H u K H p e y y z P H J e K d 2 %.b P r r "
};
