/* XPM */
static char *result[] = {
/* columns rows colors chars-per-pixel */
"128 128 31 1 ",
"  c black",
". c #010101",
"X c #020304",
"o c #030406",
"O c #030506",
"+ c #030507",
"@ c #040609",
"# c #040709",
"$ c #04070A",
"% c #05090C",
"& c #060A0E",
"* c #080D11",
"= c #6A731C",
"- c #6B731C",
"; c #667122",
": c #677122",
"> c #667023",
", c #2F4E6F",
"< c #68717B",
"1 c #68727B",
"2 c #6D747C",
"3 c #6D757D",
"4 c #71777D",
"5 c #72777D",
"6 c #767A7E",
"7 c #777A7E",
"8 c #777B7E",
"9 c #777B7F",
"0 c gray50",
"q c #808080",
"w c #818181",
/* pixels */
"  oooooo+ X  OooooooooX  +oo+     oooooo+ X  OooooooooX  +oo+     oooooo+ X  OooooooooX  +oo+     oooooo+ X  OooooooooX  +oo+   ",
" O,,,,,,,*,%$,,,,,,,,,,%#,,,,&O  O,,,,,,,*,%$,,,,,,,,,,%#,,,,&O  O,,,,,,,*,%$,,,,,,,,,,%#,,,,&O  O,,,,,,,*,%$,,,,,,,,,,%#,,,,&O ",
" o,,,,,,,,,,,,,,,,,,,,,,,,,,,,,o o,,,,,,,,,,,,,,,,,,,,,,,,,,,,,o o,,,,,,,,,,,,,,,,,,,,,,,,,,,,,o o,,,,,,,,,,,,,,,,,,,,,,,,,,,,,o",
" @,,,,,,,,,,,,,,,,,,,,,,,,,,,,,o @,,,,,,,,,,,,,,,,,,,,,,,,,,,,,o @,,,,,,,,,,,,,,,,,,,,,,,,,,,,,o @,,,,,,,,,,,,,,,,,,,,,,,,,,,,,o",
"o,,,,,,,,,,,,,,,,,,,,,,,,,,,,,,oo,,,,,,,,,,,,,,,,,,,,,,,,,,,,,,oo,,,,,,,,,,,,,,,,,,,,,,,,,,,,,,oo,,,,,,,,,,,,,,,,,,,,,,,,,,,,,,o",
"o,,,,,,,,,,,,,,,,,,,,,,,,,,,,,,oo,,,,,,,,,,,,,,,,,,,,,,,,,,,,,,oo,,,,,,,,,,,,,,,,,,,,,,,,,,,,,,oo,,,,,,,,,,,,,,,,,,,,,,,,,,,,,,o",
"o,,,,,,,,,,,,,,,,,,,,,,,,,,,,,,oo,,,,,,,,,,,,,,,,,,,,,,,,,,,,,,oo,,,,,,,,,,,,,,,,,,,,,,,,,,,,,,oo,,,,,,,,,,,,,,,,,,,,,,,,,,,,,,o",
"o,,,,,,,,,,,,,,,,,,,,,,,,,,,,,,oo,,,,,,,,,,,,,,,,,,,,,,,,,,,,,,oo,,,,,,,,,,,,,,,,,,,,,,,,,,,,,,oo,,,,,,,,,,,,,,,,,,,,,,,,,,,,,,o",
"o,,,,,,,,,,,,,,,,,,,,,,,,,,,,,,oo,,,,,,,,,,,,,,,,,,,,,,,,,,,,,,oo,,,,,,,,,,,,,,,,,,,,,,,,,,,,,,oo,,,,,,,,,,,,,,,,,,,,,,,,,,,,,,o",
" 1,,,,,,,,,,,,,,,,,,,,,,,,,,,1,o 1,,,,,,,,,,,,,,,,,,,,,,,,,,,1,o 1,,,,,,,,,,,,,,,,,,,,,,,,,,,1,o 1,,,,,,,,,,,,,,,,,,,,,,,,,,,1,o",
"+,,,>,,,,,,,,,,,,,,,,,,,,,,,,26 +,,,>,,,,,,,,,,,,,,,,,,,,,,,,26 +,,,>,,,,,,,,,,,,,,,,,,,,,,,,26 +,,,>,,,,,,,,,,,,,,,,,,,,,,,,26 ",
" 2,,,,=-,,,:,,,,,,,,;,,,,,,,,,7  2,,,,=-,,,:,,,,,,,,;,,,,,,,,,7  2,,,,=-,,,:,,,,,,,,;,,,,,,,,,7  2,,,,=-,,,:,,,,,,,,;,,,,,,,,,7 ",
" 7,562,,,,,,,,,,,,,,,,,,,,,,,,7  7,562,,,,,,,,,,,,,,,,,,,,,,,,7  7,562,,,,,,,,,,,,,,,,,,,,,,,,7  7,562,,,,,,,,,,,,,,,,,,,,,,,,7 ",
" q90qq8662,,,,,<,,,,,566663,,4q  q90qq8662,,,,,<,,,,,566663,,4q  q90qq8662,,,,,<,,,,,566663,,4q  q90qq8662,,,,,<,,,,,566663,,4q ",
"    qq.qqq97777q77777qqqqqw7o       qq.qqq97777q77777qqqqqw7o       qq.qqq97777q77777qqqqqw7o       qq.qqq97777q77777qqqqqw7o   ",
"       .                               .                               .                               .                        ",
"ooooooX  +oo+     oooooo+ X  OooooooooX  +oo+     oooooo+ X  OooooooooX  +oo+     oooooo+ X  OooooooooX  +oo+     oooooo+ X  Ooo",
",,,,,,,%#,,,,&O  O,,,,,,,*,%$,,,,,,,,,,%#,,,,&O  O,,,,,,,*,%$,,,,,,,,,,%#,,,,&O  O,,,,,,,*,%$,,,,,,,,,,%#,,,,&O  O,,,,,,,*,%$,,,",
",,,,,,,,,,,,,,,o o,,,,,,,,,,,,,,,,,,,,,,,,,,,,,o o,,,,,,,,,,,,,,,,,,,,,,,,,,,,,o o,,,,,,,,,,,,,,,,,,,,,,,,,,,,,o o,,,,,,,,,,,,,,",
",,,,,,,,,,,,,,,o @,,,,,,,,,,,,,,,,,,,,,,,,,,,,,o @,,,,,,,,,,,,,,,,,,,,,,,,,,,,,o @,,,,,,,,,,,,,,,,,,,,,,,,,,,,,o @,,,,,,,,,,,,,,",
",,,,,,,,,,,,,,,oo,,,,,,,,,,,,,,,,,,,,,,,,,,,,,,oo,,,,,,,,,,,,,,,,,,,,,,,,,,,,,,oo,,,,,,,,,,,,,,,,,,,,,,,,,,,,,,oo,,,,,,,,,,,,,,,",
",,,,,,,,,,,,,,,oo,,,,,,,,,,,,,,,,,,,,,,,,,,,,,,oo,,,,,,,,,,,,,,,,,,,,,,,,,,,,,,oo,,,,,,,,,,,,,,,,,,,,,,,,,,,,,,oo,,,,,,,,,,,,,,,",
",,,,,,,,,,,,,,,oo,,,,,,,,,,,,,,,,,,,,,,,,,,,,,,oo,,,,,,,,,,,,,,,,,,,,,,,,,,,,,,oo,,,,,,,,,,,,,,,,,,,,,,,,,,,,,,oo,,,,,,,,,,,,,,,",
",,,,,,,,,,,,,,,oo,,,,,,,,,,,,,,,,,,,,,,,,,,,,,,oo,,,,,,,,,,,,,,,,,,,,,,,,,,,,,,oo,,,,,,,,,,,,,,,,,,,,,,,,,,,,,,oo,,,,,,,,,,,,,,,",
",,,,,,,,,,,,,,,oo,,,,,,,,,,,,,,,,,,,,,,,,,,,,,,oo,,,,,,,,,,,,,,,,,,,,,,,,,,,,,,oo,,,,,,,,,,,,,,,,,,,,,,,,,,,,,,oo,,,,,,,,,,,,,,,",
",,,,,,,,,,,,,1,o 1,,,,,,,,,,,,,,,,,,,,,,,,,,,1,o 1,,,,,,,,,,,,,,,,,,,,,,,,,,,1,o 1,,,,,,,,,,,,,,,,,,,,,,,,,,,1,o 1,,,,,,,,,,,,,,",
",,,,,,,,,,,,,26 +,,,>,,,,,,,,,,,,,,,,,,,,,,,,26 +,,,>,,,,,,,,,,,,,,,,,,,,,,,,26 +,,,>,,,,,,,,,,,,,,,,,,,,,,,,26 +,,,>,,,,,,,,,,,",
",,,,;,,,,,,,,,7  2,,,,=-,,,:,,,,,,,,;,,,,,,,,,7  2,,,,=-,,,:,,,,,,,,;,,,,,,,,,7  2,,,,=-,,,:,,,,,,,,;,,,,,,,,,7  2,,,,=-,,,:,,,,",
",,,,,,,,,,,,,,7  7,562,,,,,,,,,,,,,,,,,,,,,,,,7  7,562,,,,,,,,,,,,,,,,,,,,,,,,7  7,562,,,,,,,,,,,,,,,,,,,,,,,,7  7,562,,,,,,,,,,",
",,,,,566663,,4q  q90qq8662,,,,,<,,,,,566663,,4q  q90qq8662,,,,,<,,,,,566663,,4q  q90qq8662,,,,,<,,,,,566663,,4q  q90qq8662,,,,,4",
"77777qqqqqw7o       qq.qqq97777q77777qqqqqw7o       qq.qqq97777q77777qqqqqw7o       qq.qqq97777q77777qqqqqw7o       qq.qqq97777q",
"                       .                               .                               .                               .        ",
"  oooooo+ X  OooooooooX  +oo+     oooooo+ X  OooooooooX  +oo+     oooooo+ X  OooooooooX  +oo+     oooooo+ X  OooooooooX  +oo+   ",
" O,,,,,,,*,%$,,,,,,,,,,%#,,,,&O  O,,,,,,,*,%$,,,,,,,,,,%#,,,,&O  O,,,,,,,*,%$,,,,,,,,,,%#,,,,&O  O,,,,,,,*,%$,,,,,,,,,,%#,,,,&O ",
" o,,,,,,,,,,,,,,,,,,,,,,,,,,,,,o o,,,,,,,,,,,,,,,,,,,,,,,,,,,,,o o,,,,,,,,,,,,,,,,,,,,,,,,,,,,,o o,,,,,,,,,,,,,,,,,,,,,,,,,,,,,o",
" @,,,,,,,,,,,,,,,,,,,,,,,,,,,,,o @,,,,,,,,,,,,,,,,,,,,,,,,,,,,,o @,,,,,,,,,,,,,,,,,,,,,,,,,,,,,o @,,,,,,,,,,,,,,,,,,,,,,,,,,,,,o",
"o,,,,,,,,,,,,,,,,,,,,,,,,,,,,,,oo,,,,,,,,,,,,,,,,,,,,,,,,,,,,,,oo,,,,,,,,,,,,,,,,,,,,,,,,,,,,,,oo,,,,,,,,,,,,,,,,,,,,,,,,,,,,,,o",
"o,,,,,,,,,,,,,,,,,,,,,,,,,,,,,,oo,,,,,,,,,,,,,,,,,,,,,,,,,,,,,,oo,,,,,,,,,,,,,,,,,,,,,,,,,,,,,,oo,,,,,,,,,,,,,,,,,,,,,,,,,,,,,,o",
"o,,,,,,,,,,,,,,,,,,,,,,,,,,,,,,oo,,,,,,,,,,,,,,,,,,,,,,,,,,,,,,oo,,,,,,,,,,,,,,,,,,,,,,,,,,,,,,oo,,,,,,,,,,,,,,,,,,,,,,,,,,,,,,o",
"o,,,,,,,,,,,,,,,,,,,,,,,,,,,,,,oo,,,,,,,,,,,,,,,,,,,,,,,,,,,,,,oo,,,,,,,,,,,,,,,,,,,,,,,,,,,,,,oo,,,,,,,,,,,,,,,,,,,,,,,,,,,,,,o",
"o,,,,,,,,,,,,,,,,,,,,,,,,,,,,,,oo,,,,,,,,,,,,,,,,,,,,,,,,,,,,,,oo,,,,,,,,,,,,,,,,,,,,,,,,,,,,,,oo,,,,,,,,,,,,,,,,,,,,,,,,,,,,,,o",
" 1,,,,,,,,,,,,,,,,,,,,,,,,,,,1,o 1,,,,,,,,,,,,,,,,,,,,,,,,,,,1,o 1,,,,,,,,,,,,,,,,,,,,,,,,,,,1,o 1,,,,,,,,,,,,,,,,,,,,,,,,,,,1,o",
"+,,,>,,,,,,,,,,,,,,,,,,,,,,,,26 +,,,>,,,,,,,,,,,,,,,,,,,,,,,,26 +,,,>,,,,,,,,,,,,,,,,,,,,,,,,26 +,,,>,,,,,,,,,,,,,,,,,,,,,,,,26 ",
" 2,,,,=-,,,:,,,,,,,,;,,,,,,,,,7  2,,,,=-,,,:,,,,,,,,;,,,,,,,,,7  2,,,,=-,,,:,,,,,,,,;,,,,,,,,,7  2,,,,=-,,,:,,,,,,,,;,,,,,,,,,7 ",
" 7,562,,,,,,,,,,,,,,,,,,,,,,,,7  7,562,,,,,,,,,,,,,,,,,,,,,,,,7  7,562,,,,,,,,,,,,,,,,,,,,,,,,7  7,562,,,,,,,,,,,,,,,,,,,,,,,,7 ",
" q90qq8662,,,,,<,,,,,566663,,4q  q90qq8662,,,,,<,,,,,566663,,4q  q90qq8662,,,,,<,,,,,566663,,4q  q90qq8662,,,,,<,,,,,566663,,4q ",
"    qq.qqq97777q77777qqqqqw7o       qq.qqq97777q77777qqqqqw7o       qq.qqq97777q77777qqqqqw7o       qq.qqq97777q77777qqqqqw7o   ",
"       .                               .                               .                               .                        ",
"ooooooX  +oo+     oooooo+ X  OooooooooX  +oo+     oooooo+ X  OooooooooX  +oo+     oooooo+ X  OooooooooX  +oo+     oooooo+ X  Ooo",
",,,,,,,%#,,,,&O  O,,,,,,,*,%$,,,,,,,,,,%#,,,,&O  O,,,,,,,*,%$,,,,,,,,,,%#,,,,&O  O,,,,,,,*,%$,,,,,,,,,,%#,,,,&O  O,,,,,,,*,%$,,,",
",,,,,,,,,,,,,,,o o,,,,,,,,,,,,,,,,,,,,,,,,,,,,,o o,,,,,,,,,,,,,,,,,,,,,,,,,,,,,o o,,,,,,,,,,,,,,,,,,,,,,,,,,,,,o o,,,,,,,,,,,,,,",
",,,,,,,,,,,,,,,o @,,,,,,,,,,,,,,,,,,,,,,,,,,,,,o @,,,,,,,,,,,,,,,,,,,,,,,,,,,,,o @,,,,,,,,,,,,,,,,,,,,,,,,,,,,,o @,,,,,,,,,,,,,,",
",,,,,,,,,,,,,,,oo,,,,,,,,,,,,,,,,,,,,,,,,,,,,,,oo,,,,,,,,,,,,,,,,,,,,,,,,,,,,,,oo,,,,,,,,,,,,,,,,,,,,,,,,,,,,,,oo,,,,,,,,,,,,,,,",
",,,,,,,,,,,,,,,oo,,,,,,,,,,,,,,,,,,,,,,,,,,,,,,oo,,,,,,,,,,,,,,,,,,,,,,,,,,,,,,oo,,,,,,,,,,,,,,,,,,,,,,,,,,,,,,oo,,,,,,,,,,,,,,,",
",,,,,,,,,,,,,,,oo,,,,,,,,,,,,,,,,,,,,,,,,,,,,,,oo,,,,,,,,,,,,,,,,,,,,,,,,,,,,,,oo,,,,,,,,,,,,,,,,,,,,,,,,,,,,,,oo,,,,,,,,,,,,,,,",
",,,,,,,,,,,,,,,oo,,,,,,,,,,,,,,,,,,,,,,,,,,,,,,oo,,,,,,,,,,,,,,,,,,,,,,,,,,,,,,oo,,,,,,,,,,,,,,,,,,,,,,,,,,,,,,oo,,,,,,,,,,,,,,,",
",,,,,,,,,,,,,,,oo,,,,,,,,,,,,,,,,,,,,,,,,,,,,,,oo,,,,,,,,,,,,,,,,,,,,,,,,,,,,,,oo,,,,,,,,,,,,,,,,,,,,,,,,,,,,,,oo,,,,,,,,,,,,,,,",
",,,,,,,,,,,,,1,o 1,,,,,,,,,,,,,,,,,,,,,,,,,,,1,o 1,,,,,,,,,,,,,,,,,,,,,,,,,,,1,o 1,,,,,,,,,,,,,,,,,,,,,,,,,,,1,o 1,,,,,,,,,,,,,,",
",,,,,,,,,,,,,26 +,,,>,,,,,,,,,,,,,,,,,,,,,,,,26 +,,,>,,,,,,,,,,,,,,,,,,,,,,,,26 +,,,>,,,,,,,,,,,,,,,,,,,,,,,,26 +,,,>,,,,,,,,,,,",
",,,,;,,,,,,,,,7  2,,,,=-,,,:,,,,,,,,;,,,,,,,,,7  2,,,,=-,,,:,,,,,,,,;,,,,,,,,,7  2,,,,=-,,,:,,,,,,,,;,,,,,,,,,7  2,,,,=-,,,:,,,,",
",,,,,,,,,,,,,,7  7,562,,,,,,,,,,,,,,,,,,,,,,,,7  7,562,,,,,,,,,,,,,,,,,,,,,,,,7  7,562,,,,,,,,,,,,,,,,,,,,,,,,7  7,562,,,,,,,,,,",
",,,,,566663,,4q  q90qq8662,,,,,<,,,,,566663,,4q  q90qq8662,,,,,<,,,,,566663,,4q  q90qq8662,,,,,<,,,,,566663,,4q  q90qq8662,,,,,4",
"77777qqqqqw7o       qq.qqq97777q77777qqqqqw7o       qq.qqq97777q77777qqqqqw7o       qq.qqq97777q77777qqqqqw7o       qq.qqq97777q",
"                       .                               .                               .                               .        ",
"  oooooo+ X  OooooooooX  +oo+     oooooo+ X  OooooooooX  +oo+     oooooo+ X  OooooooooX  +oo+     oooooo+ X  OooooooooX  +oo+   ",
" O,,,,,,,*,%$,,,,,,,,,,%#,,,,&O  O,,,,,,,*,%$,,,,,,,,,,%#,,,,&O  O,,,,,,,*,%$,,,,,,,,,,%#,,,,&O  O,,,,,,,*,%$,,,,,,,,,,%#,,,,&O ",
" o,,,,,,,,,,,,,,,,,,,,,,,,,,,,,o o,,,,,,,,,,,,,,,,,,,,,,,,,,,,,o o,,,,,,,,,,,,,,,,,,,,,,,,,,,,,o o,,,,,,,,,,,,,,,,,,,,,,,,,,,,,o",
" @,,,,,,,,,,,,,,,,,,,,,,,,,,,,,o @,,,,,,,,,,,,,,,,,,,,,,,,,,,,,o @,,,,,,,,,,,,,,,,,,,,,,,,,,,,,o @,,,,,,,,,,,,,,,,,,,,,,,,,,,,,o",
"o,,,,,,,,,,,,,,,,,,,,,,,,,,,,,,oo,,,,,,,,,,,,,,,,,,,,,,,,,,,,,,oo,,,,,,,,,,,,,,,,,,,,,,,,,,,,,,oo,,,,,,,,,,,,,,,,,,,,,,,,,,,,,,o",
"o,,,,,,,,,,,,,,,,,,,,,,,,,,,,,,oo,,,,,,,,,,,,,,,,,,,,,,,,,,,,,,oo,,,,,,,,,,,,,,,,,,,,,,,,,,,,,,oo,,,,,,,,,,,,,,,,,,,,,,,,,,,,,,o",
"o,,,,,,,,,,,,,,,,,,,,,,,,,,,,,,oo,,,,,,,,,,,,,,,,,,,,,,,,,,,,,,oo,,,,,,,,,,,,,,,,,,,,,,,,,,,,,,oo,,,,,,,,,,,,,,,,,,,,,,,,,,,,,,o",
"o,,,,,,,,,,,,,,,,,,,,,,,,,,,,,,oo,,,,,,,,,,,,,,,,,,,,,,,,,,,,,,oo,,,,,,,,,,,,,,,,,,,,,,,,,,,,,,oo,,,,,,,,,,,,,,,,,,,,,,,,,,,,,,o",
"o,,,,,,,,,,,,,,,,,,,,,,,,,,,,,,oo,,,,,,,,,,,,,,,,,,,,,,,,,,,,,,oo,,,,,,,,,,,,,,,,,,,,,,,,,,,,,,oo,,,,,,,,,,,,,,,,,,,,,,,,,,,,,,o",
" 1,,,,,,,,,,,,,,,,,,,,,,,,,,,1,o 1,,,,,,,,,,,,,,,,,,,,,,,,,,,1,o 1,,,,,,,,,,,,,,,,,,,,,,,,,,,1,o 1,,,,,,,,,,,,,,,,,,,,,,,,,,,1,o",
"+,,,>,,,,,,,,,,,,,,,,,,,,,,,,26 +,,,>,,,,,,,,,,,,,,,,,,,,,,,,26 +,,,>,,,,,,,,,,,,,,,,,,,,,,,,26 +,,,>,,,,,,,,,,,,,,,,,,,,,,,,26 ",
" 2,,,,=-,,,:,,,,,,,,;,,,,,,,,,7  2,,,,=-,,,:,,,,,,,,;,,,,,,,,,7  2,,,,=-,,,:,,,,,,,,;,,,,,,,,,7  2,,,,=-,,,:,,,,,,,,;,,,,,,,,,7 ",
" 7,562,,,,,,,,,,,,,,,,,,,,,,,,7  7,562,,,,,,,,,,,,,,,,,,,,,,,,7  7,562,,,,,,,,,,,,,,,,,,,,,,,,7  7,562,,,,,,,,,,,,,,,,,,,,,,,,7 ",
" q90qq8662,,,,,<,,,,,566663,,4q  q90qq8662,,,,,<,,,,,566663,,4q  q90qq8662,,,,,<,,,,,566663,,4q  q90qq8662,,,,,<,,,,,566663,,4q ",
"    qq.qqq97777q77777qqqqqw7o       qq.qqq97777q77777qqqqqw7o       qq.qqq97777q77777qqqqqw7o       qq.qqq97777q77777qqqqqw7o   ",
"       .                               .                               .                               .                        ",
"ooooooX  +oo+     oooooo+ X  OooooooooX  +oo+     oooooo+ X  OooooooooX  +oo+     oooooo+ X  OooooooooX  +oo+     oooooo+ X  Ooo",
",,,,,,,%#,,,,&O  O,,,,,,,*,%$,,,,,,,,,,%#,,,,&O  O,,,,,,,*,%$,,,,,,,,,,%#,,,,&O  O,,,,,,,*,%$,,,,,,,,,,%#,,,,&O  O,,,,,,,*,%$,,,",
",,,,,,,,,,,,,,,o o,,,,,,,,,,,,,,,,,,,,,,,,,,,,,o o,,,,,,,,,,,,,,,,,,,,,,,,,,,,,o o,,,,,,,,,,,,,,,,,,,,,,,,,,,,,o o,,,,,,,,,,,,,,",
",,,,,,,,,,,,,,,o @,,,,,,,,,,,,,,,,,,,,,,,,,,,,,o @,,,,,,,,,,,,,,,,,,,,,,,,,,,,,o @,,,,,,,,,,,,,,,,,,,,,,,,,,,,,o @,,,,,,,,,,,,,,",
",,,,,,,,,,,,,,,oo,,,,,,,,,,,,,,,,,,,,,,,,,,,,,,oo,,,,,,,,,,,,,,,,,,,,,,,,,,,,,,oo,,,,,,,,,,,,,,,,,,,,,,,,,,,,,,oo,,,,,,,,,,,,,,,",
",,,,,,,,,,,,,,,oo,,,,,,,,,,,,,,,,,,,,,,,,,,,,,,oo,,,,,,,,,,,,,,,,,,,,,,,,,,,,,,oo,,,,,,,,,,,,,,,,,,,,,,,,,,,,,,oo,,,,,,,,,,,,,,,",
",,,,,,,,,,,,,,,oo,,,,,,,,,,,,,,,,,,,,,,,,,,,,,,oo,,,,,,,,,,,,,,,,,,,,,,,,,,,,,,oo,,,,,,,,,,,,,,,,,,,,,,,,,,,,,,oo,,,,,,,,,,,,,,,",
",,,,,,,,,,,,,,,oo,,,,,,,,,,,,,,,,,,,,,,,,,,,,,,oo,,,,,,,,,,,,,,,,,,,,,,,,,,,,,,oo,,,,,,,,,,,,,,,,,,,,,,,,,,,,,,oo,,,,,,,,,,,,,,,",
",,,,,,,,,,,,,,,oo,,,,,,,,,,,,,,,,,,,,,,,,,,,,,,oo,,,,,,,,,,,,,,,,,,,,,,,,,,,,,,oo,,,,,,,,,,,,,,,,,,,,,,,,,,,,,,oo,,,,,,,,,,,,,,,",
",,,,,,,,,,,,,1,o 1,,,,,,,,,,,,,,,,,,,,,,,,,,,1,o 1,,,,,,,,,,,,,,,,,,,,,,,,,,,1,o 1,,,,,,,,,,,,,,,,,,,,,,,,,,,1,o 1,,,,,,,,,,,,,,",
",,,,,,,,,,,,,26 +,,,>,,,,,,,,,,,,,,,,,,,,,,,,26 +,,,>,,,,,,,,,,,,,,,,,,,,,,,,26 +,,,>,,,,,,,,,,,,,,,,,,,,,,,,26 +,,,>,,,,,,,,,,,",
",,,,;,,,,,,,,,7  2,,,,=-,,,:,,,,,,,,;,,,,,,,,,7  2,,,,=-,,,:,,,,,,,,;,,,,,,,,,7  2,,,,=-,,,:,,,,,,,,;,,,,,,,,,7  2,,,,=-,,,:,,,,",
",,,,,,,,,,,,,,7  7,562,,,,,,,,,,,,,,,,,,,,,,,,7  7,562,,,,,,,,,,,,,,,,,,,,,,,,7  7,562,,,,,,,,,,,,,,,,,,,,,,,,7  7,562,,,,,,,,,,",
",,,,,566663,,4q  q90qq8662,,,,,<,,,,,566663,,4q  q90qq8662,,,,,<,,,,,566663,,4q  q90qq8662,,,,,<,,,,,566663,,4q  q90qq8662,,,,,4",
"77777qqqqqw7o       qq.qqq97777q77777qqqqqw7o       qq.qqq97777q77777qqqqqw7o       qq.qqq97777q77777qqqqqw7o       qq.qqq97777q",
"                       .                               .                               .                               .        ",
"  oooooo+ X  OooooooooX  +oo+     oooooo+ X  OooooooooX  +oo+     oooooo+ X  OooooooooX  +oo+     oooooo+ X  OooooooooX  +oo+   ",
" O,,,,,,,*,%$,,,,,,,,,,%#,,,,&O  O,,,,,,,*,%$,,,,,,,,,,%#,,,,&O  O,,,,,,,*,%$,,,,,,,,,,%#,,,,&O  O,,,,,,,*,%$,,,,,,,,,,%#,,,,&O ",
" o,,,,,,,,,,,,,,,,,,,,,,,,,,,,,o o,,,,,,,,,,,,,,,,,,,,,,,,,,,,,o o,,,,,,,,,,,,,,,,,,,,,,,,,,,,,o o,,,,,,,,,,,,,,,,,,,,,,,,,,,,,o",
" @,,,,,,,,,,,,,,,,,,,,,,,,,,,,,o @,,,,,,,,,,,,,,,,,,,,,,,,,,,,,o @,,,,,,,,,,,,,,,,,,,,,,,,,,,,,o @,,,,,,,,,,,,,,,,,,,,,,,,,,,,,o",
"o,,,,,,,,,,,,,,,,,,,,,,,,,,,,,,oo,,,,,,,,,,,,,,,,,,,,,,,,,,,,,,oo,,,,,,,,,,,,,,,,,,,,,,,,,,,,,,oo,,,,,,,,,,,,,,,,,,,,,,,,,,,,,,o",
"o,,,,,,,,,,,,,,,,,,,,,,,,,,,,,,oo,,,,,,,,,,,,,,,,,,,,,,,,,,,,,,oo,,,,,,,,,,,,,,,,,,,,,,,,,,,,,,oo,,,,,,,,,,,,,,,,,,,,,,,,,,,,,,o",
"o,,,,,,,,,,,,,,,,,,,,,,,,,,,,,,oo,,,,,,,,,,,,,,,,,,,,,,,,,,,,,,oo,,,,,,,,,,,,,,,,,,,,,,,,,,,,,,oo,,,,,,,,,,,,,,,,,,,,,,,,,,,,,,o",
"o,,,,,,,,,,,,,,,,,,,,,,,,,,,,,,oo,,,,,,,,,,,,,,,,,,,,,,,,,,,,,,oo,,,,,,,,,,,,,,,,,,,,,,,,,,,,,,oo,,,,,,,,,,,,,,,,,,,,,,,,,,,,,,o",
"o,,,,,,,,,,,,,,,,,,,,,,,,,,,,,,oo,,,,,,,,,,,,,,,,,,,,,,,,,,,,,,oo,,,,,,,,,,,,,,,,,,,,,,,,,,,,,,oo,,,,,,,,,,,,,,,,,,,,,,,,,,,,,,o",
" 1,,,,,,,,,,,,,,,,,,,,,,,,,,,1,o 1,,,,,,,,,,,,,,,,,,,,,,,,,,,1,o 1,,,,,,,,,,,,,,,,,,,,,,,,,,,1,o 1,,,,,,,,,,,,,,,,,,,,,,,,,,,1,o",
"+,,,>,,,,,,,,,,,,,,,,,,,,,,,,26 +,,,>,,,,,,,,,,,,,,,,,,,,,,,,26 +,,,>,,,,,,,,,,,,,,,,,,,,,,,,26 +,,,>,,,,,,,,,,,,,,,,,,,,,,,,26 ",
" 2,,,,=-,,,:,,,,,,,,;,,,,,,,,,7  2,,,,=-,,,:,,,,,,,,;,,,,,,,,,7  2,,,,=-,,,:,,,,,,,,;,,,,,,,,,7  2,,,,=-,,,:,,,,,,,,;,,,,,,,,,7 ",
" 7,562,,,,,,,,,,,,,,,,,,,,,,,,7  7,562,,,,,,,,,,,,,,,,,,,,,,,,7  7,562,,,,,,,,,,,,,,,,,,,,,,,,7  7,562,,,,,,,,,,,,,,,,,,,,,,,,7 ",
" q90qq8662,,,,,<,,,,,566663,,4q  q90qq8662,,,,,<,,,,,566663,,4q  q90qq8662,,,,,<,,,,,566663,,4q  q90qq8662,,,,,<,,,,,566663,,4q ",
"    qq.qqq97777q77777qqqqqw7o       qq.qqq97777q77777qqqqqw7o       qq.qqq97777q77777qqqqqw7o       qq.qqq97777q77777qqqqqw7o   ",
"       .                               .                               .                               .                        ",
"ooooooX  +oo+     oooooo+ X  OooooooooX  +oo+     oooooo+ X  OooooooooX  +oo+     oooooo+ X  OooooooooX  +oo+     oooooo+ X  Ooo",
",,,,,,,%#,,,,&O  O,,,,,,,*,%$,,,,,,,,,,%#,,,,&O  O,,,,,,,*,%$,,,,,,,,,,%#,,,,&O  O,,,,,,,*,%$,,,,,,,,,,%#,,,,&O  O,,,,,,,*,%$,,,",
",,,,,,,,,,,,,,,o o,,,,,,,,,,,,,,,,,,,,,,,,,,,,,o o,,,,,,,,,,,,,,,,,,,,,,,,,,,,,o o,,,,,,,,,,,,,,,,,,,,,,,,,,,,,o o,,,,,,,,,,,,,,",
",,,,,,,,,,,,,,,o @,,,,,,,,,,,,,,,,,,,,,,,,,,,,,o @,,,,,,,,,,,,,,,,,,,,,,,,,,,,,o @,,,,,,,,,,,,,,,,,,,,,,,,,,,,,o @,,,,,,,,,,,,,,",
",,,,,,,,,,,,,,,oo,,,,,,,,,,,,,,,,,,,,,,,,,,,,,,oo,,,,,,,,,,,,,,,,,,,,,,,,,,,,,,oo,,,,,,,,,,,,,,,,,,,,,,,,,,,,,,oo,,,,,,,,,,,,,,,",
",,,,,,,,,,,,,,,oo,,,,,,,,,,,,,,,,,,,,,,,,,,,,,,oo,,,,,,,,,,,,,,,,,,,,,,,,,,,,,,oo,,,,,,,,,,,,,,,,,,,,,,,,,,,,,,oo,,,,,,,,,,,,,,,",
",,,,,,,,,,,,,,,oo,,,,,,,,,,,,,,,,,,,,,,,,,,,,,,oo,,,,,,,,,,,,,,,,,,,,,,,,,,,,,,oo,,,,,,,,,,,,,,,,,,,,,,,,,,,,,,oo,,,,,,,,,,,,,,,",
",,,,,,,,,,,,,,,oo,,,,,,,,,,,,,,,,,,,,,,,,,,,,,,oo,,,,,,,,,,,,,,,,,,,,,,,,,,,,,,oo,,,,,,,,,,,,,,,,,,,,,,,,,,,,,,oo,,,,,,,,,,,,,,,",
",,,,,,,,,,,,,,,oo,,,,,,,,,,,,,,,,,,,,,,,,,,,,,,oo,,,,,,,,,,,,,,,,,,,,,,,,,,,,,,oo,,,,,,,,,,,,,,,,,,,,,,,,,,,,,,oo,,,,,,,,,,,,,,,",
",,,,,,,,,,,,,1,o 1,,,,,,,,,,,,,,,,,,,,,,,,,,,1,o 1,,,,,,,,,,,,,,,,,,,,,,,,,,,1,o 1,,,,,,,,,,,,,,,,,,,,,,,,,,,1,o 1,,,,,,,,,,,,,,",
",,,,,,,,,,,,,26 +,,,>,,,,,,,,,,,,,,,,,,,,,,,,26 +,,,>,,,,,,,,,,,,,,,,,,,,,,,,26 +,,,>,,,,,,,,,,,,,,,,,,,,,,,,26 +,,,>,,,,,,,,,,,",
",,,,;,,,,,,,,,7  2,,,,=-,,,:,,,,,,,,;,,,,,,,,,7  2,,,,=-,,,:,,,,,,,,;,,,,,,,,,7  2,,,,=-,,,:,,,,,,,,;,,,,,,,,,7  2,,,,=-,,,:,,,,",
",,,,,,,,,,,,,,7  7,562,,,,,,,,,,,,,,,,,,,,,,,,7  7,562,,,,,,,,,,,,,,,,,,,,,,,,7  7,562,,,,,,,,,,,,,,,,,,,,,,,,7  7,562,,,,,,,,,,",
",,,,,566663,,4q  q90qq8662,,,,,<,,,,,566663,,4q  q90qq8662,,,,,<,,,,,566663,,4q  q90qq8662,,,,,<,,,,,566663,,4q  q90qq8662,,,,,4",
"77777qqqqqw7o       qq.qqq97777q77777qqqqqw7o       qq.qqq97777q77777qqqqqw7o       qq.qqq97777q77777qqqqqw7o       qq.qqq97777q",
"                       .                               .                               .                               .        "
};
