/* XPM */
static char *_313a12df3cb4816c231dcbc9990e2eaVoTGAqaMdVbuYjvb[] = {
/* columns rows colors chars-per-pixel */
"64 64 214 2 ",
"   c #190700",
".  c #2C0E00",
"X  c #330900",
"o  c #341200",
"O  c #361800",
"+  c #3C1A00",
"@  c #3D1000",
"#  c #431600",
"$  c #4D1500",
"%  c #4E1A00",
"&  c #551700",
"*  c #5C1300",
"=  c #521B00",
"-  c #5D1E00",
";  c #641500",
":  c #641C00",
">  c #6B1C00",
",  c #691700",
"<  c #731700",
"1  c #741C00",
"2  c #7A1E00",
"3  c #4B2000",
"4  c #552100",
"5  c #5B2200",
"6  c #642300",
"7  c #6C2400",
"8  c #652901",
"9  c #6C2900",
"0  c #742500",
"q  c #7A2500",
"w  c #742A00",
"e  c #7A2B00",
"r  c #712B09",
"t  c #7D3101",
"y  c #723000",
"u  c #812600",
"i  c #822D00",
"p  c #882F00",
"a  c #833301",
"s  c #8A3401",
"d  c #F7751F",
"f  c #FB751D",
"g  c #F5791E",
"h  c #FC791E",
"j  c #FC7617",
"k  c #CC6C27",
"l  c #C66D2D",
"z  c #CB6D2C",
"x  c #C66B25",
"c  c #D26A22",
"v  c #D26E2D",
"b  c #DC6E26",
"n  c #CB732E",
"m  c #C3702E",
"M  c #D3742D",
"N  c #DB752C",
"B  c #DC792D",
"V  c #DC7027",
"C  c #C66F33",
"Z  c #CC6F34",
"A  c #D16F31",
"S  c #C77232",
"D  c #CC7333",
"F  c #CB763D",
"G  c #CC783B",
"H  c #C9783A",
"J  c #D47533",
"K  c #DC7632",
"L  c #D47C36",
"P  c #DD7A34",
"I  c #D57639",
"U  c #DF7738",
"Y  c #D47A3B",
"T  c #DB7B3A",
"R  c #E3752C",
"E  c #EA742C",
"W  c #E3792E",
"Q  c #EB7C2C",
"!  c #E77325",
"~  c #F57523",
"^  c #FC7624",
"/  c #F57B25",
"(  c #FD7A24",
")  c #F4762A",
"_  c #FC762A",
"`  c #F67B2C",
"'  c #FC7B2B",
"]  c #E27633",
"[  c #E27A33",
"{  c #EC7D33",
"}  c #E37D3A",
"|  c #EB7D3B",
" . c #F57C32",
".. c #FC7D32",
"X. c #F17E3D",
"o. c #FE7F38",
"O. c #F67730",
"+. c #BE7241",
"@. c #C27443",
"#. c #C57B45",
"$. c #CA7C45",
"%. c #C67B49",
"&. c #CC7B4B",
"*. c #C87648",
"=. c #D27C44",
"-. c #DA7E41",
";. c #ED812D",
":. c #FE8126",
">. c #F3812C",
",. c #FE812B",
"<. c #E48136",
"1. c #EC8134",
"2. c #E5823C",
"3. c #EC823B",
"4. c #EC883D",
"5. c #F58234",
"6. c #FD8435",
"7. c #FE8A35",
"8. c #F4843C",
"9. c #FD843A",
"0. c #F78A3E",
"q. c #FD8B3C",
"w. c #FF923D",
"e. c #CC8449",
"r. c #CA8347",
"t. c #D68347",
"y. c #DE8344",
"u. c #D3864D",
"i. c #DF864C",
"p. c #CE8254",
"a. c #CD8A5C",
"s. c #D48451",
"d. c #DF8C53",
"f. c #D2855C",
"g. c #D88758",
"h. c #D48B5A",
"j. c #D98A5B",
"k. c #DC8655",
"l. c #DF9057",
"z. c #E38343",
"x. c #EC8541",
"c. c #E1874A",
"v. c #F48542",
"b. c #FA8642",
"n. c #F58B44",
"m. c #FC8B43",
"M. c #F58749",
"N. c #FA874A",
"B. c #F58C49",
"V. c #FB8D4B",
"C. c #F69146",
"Z. c #FF9344",
"A. c #FF9945",
"S. c #F7924C",
"D. c #FE944B",
"F. c #FF9A4B",
"G. c #E68C52",
"H. c #EE965A",
"J. c #EC995E",
"K. c #E8995B",
"L. c #F39356",
"P. c #FC9552",
"I. c #FF9C53",
"U. c #F39559",
"Y. c #FC9C5C",
"T. c #F9985B",
"R. c #FFA153",
"E. c #FFA25C",
"W. c #EC9761",
"Q. c #E69C64",
"!. c #EC9C64",
"~. c #EB9D69",
"^. c #E39763",
"/. c #F39C64",
"(. c #FB9D64",
"). c #F39E6B",
"_. c #FF9E6C",
"`. c #EEA169",
"'. c #ECA062",
"]. c #F4A265",
"[. c #FDA464",
"{. c #FFAA66",
"}. c #F4A36C",
"|. c #FCA46C",
" X c #F6A86D",
".X c #FBA96D",
"XX c #EDAC7C",
"oX c #EBA878",
"OX c #F4A473",
"+X c #FBA573",
"@X c #F5AA74",
"#X c #FCAB74",
"$X c #F1A57A",
"%X c #FEA779",
"&X c #F4AD7B",
"*X c #FCAC7A",
"=X c #F6B073",
"-X c #F6B17B",
";X c #FEB27D",
":X c #EEAD81",
">X c #F4AD82",
",X c #EFB286",
"<X c #F4B282",
"1X c #FCB582",
"2X c #FAB689",
"3X c #EDBC95",
"4X c #EDBC9A",
"5X c #E6B998",
"6X c #F4BE9A",
"7X c #EDC19E",
"8X c #F5C19C",
"9X c #F8C49F",
"0X c #F4C2A1",
"qX c #FBC4A4",
/* pixels */
"  O - 0 : - 5 6 w 9 6 5 6 7 6 = X @ 5 8 8 - 7 0 : - r 7 6 7 9 8 . O : 7 7 : : 8 w w 8 5 7 7 6 4 . o 5 0 6 - 7 7 : : 8 : 8 8 7 a ",
"O 5X1X|.%X%X@X X). X.X.X X|.@X<X0X= <X~.$X`.[.[.*X*X$X).*XOX`.XX3 7X1X|.%X$X X}.}.+X+X.X|.OX@X<X7X% >X~.@X X{.|.*X*X*X X@X@X+X).",
"= &XP.m.V.b.1.7.5.7.7.8.9.8.m.E.f.* U.n.4.Z.7.q.n.8.8.9.q.Z.I.y.6 -XP.m.V.b.5.5.6.6.7.q.9.9.N.E.p.: T.m.x.C.7.q.8.M.0.8.0.C.D.5.",
"9 J.8.' ' ' ( g ( ( ^ ^ _ _  .S.&., S.7./ >.j j ( ' ' ' g ,.A.B 0 W.8.' ..6.( h ( ( ( ( _ _ ' S.#.: V.6./ :.g ( ' 6./ ( :./ Z. .",
"6 }.8.` 6._ ,./ ( ' ^ ^ ' ..O.S.f.; L...>.' ( ( ` ,.~ ^ ( ^ w.2.0 OX3...o._ ' ^ ' ( ( ( ' '  .S.h.* P.9._ _ h h '  .~ ( / ^ Z.Q ",
"9 }.n.5.q.' / ,.7.7.,._ ..O.b.T.%.a L.9.` ( ( ( ' O._ ' ,.,.Z.T w }.B. .q.../ ,.7.6.,.( _ ` 6.P.%.q N.q./ / ,.' _  .' ' :.7.F.E ",
"8 '.R.Z.q.F.Z.Z.R.I.D.Z.m.V.P.[.&., P.D.Z.Z.Z.w.D.m.F.F.Z.F.E.U 7 ~.E.D.m.F.Z.A.R.I.Z.w.Z.m.F.[.p., T.Z.Z.Z.Z.w.D.D.D.Z.A.A.R.1.",
"8 Q.n } [ P K M S D K [ } ] P D %.: i.z.P P R W J J Z J U B [ m w Q.z } } K J M S D K P } } K J @.> y.2.[ [ V ] M D D Y P B [ k ",
"- 7 0 q q q 7 9 4 = 7 p q q q w - 6 7 w w e w 0 7 w = 5 9 t q 0 6 9 0 0 q q 0 7 4 = 7 a q q q w 5 6 w w w w q q > 7 5 4 9 t w w ",
"-X#X+X_.|.+X@X<X3X5 *X).).].{.#X#X@X X}.`.}.]..X@XXX% 9X<X`..X[.#X#X|.[.|.|.+X<X3X4 1X).).].|.#X#X X X}.}.}.}.|.@XXX= 6X<X}..X[.",
"Z.m.o.o.o.v.M.L.h.0 L.m.5.m.6.6.6.7.q.m.m.n.q.0.I.T w $X[.V.6.q.q.q.9.o.6.8.B.U.h.0 P.N.8.N.9.6.6.6.0.n.n.q.b.m.I.-.t OXE.N.5.7.",
"( ^ ^ _ _ '  .B.H 0 m.7._ ,.( ( h ( ' ' ) _ _ ` Z.3.2 #Xn. .^ ( h ( ^ ^ ' )  .B.H 2 b.9.' ' ' ( ( ( ( ( ) ) _ ' Z.v.2 #XN.) :.:.",
"( ' ^ ' ' _ 5.B.G.> N.7.` _ ' ^ ( ( ' ^ ^ _ ' 6.F.R 2 |.N.O._ _ ( ( ' ' ^ _  .B.l.> V.7...) ' ^ ^ ^ ' ' ' ' ..o.D.] u _.V.) _ ^ ",
",.,...' _ / 6.P.e.s b.q. .` 6.' _ ) _ _ _ ' o.6.D.| u +XB.9...' ,.,.' ' ' ` 9.S.e.a b.q.O.` 6.' ^ _ / / ' ' ..9.D.| 2 _.V.o.6.` ",
"w.A.D.m.w.w.F.E.e.> D.m.m.m.Z.F.R.F.Z.w.w.Z.F.F.R.<.2  XP.F.Z.D.Z.C.Z.m.Z.Z.A.E.e.> D.m.m.w.Z.F.R.F.A.w.w.w.F.R.R.[ q |.P.D.Z.D.",
"n L ] W R N N J e.7 3.] ] 2.K T l D M B { { [ B M D 0 ~.L 2.v M D <.P P W B B J e.6 2.R ] <.B P n n n <.[ Q W B M n w W.Y 4.k M ",
"# 4 0 u q q 0 0 9 w 0 q q 0 q 7 $ & 7 e t 7 q q > 7 w > w w 0 9 & - 0 u q 0 0 w 9 9 q q q 0 0 7 % % 9 e i 2 q 0 > 7 0 7 w w 0 t ",
"O 8X;X(.OX#X#X].]. X X(.). X@X2X0X& &X~.&X X[.[.*X%X+XOX#X+X@X-X% 6X;XT.|.+X#X].]. X}.]./.}.@X1X8X% -X`.*X|.{.[.+X*X%XOX=X=X{./.",
"% -XP.0.V.M.5.0.q.m.0.9.8.v.B.[.f.* U.B.x.m.7.7.b.N.b.0.m.N.F.y.5 &XP.m.N.N.5.0.0.m.0.5.8.3.V.[.a.* U.B.v.m.q.q.v.N.b.8.n.C.P.X.",
"9 !.8.6... .' ^ ' ,._ ^ ..'  .S.&.; V.q.' 6.^ ' ~ o.' ' ^ ,.Z.[ q W.8...` _ ~ / ,.,.^ _ .... .P.&.; V.q...' ( ( ...._ ' ` / Z. .",
"- @Xv.) ..) ' f :.,.h f ' ' ' S.j.; P.5.' ^ h ( ' ' ~ ^ ( _ Z.<.7 #Xb._ .._ ,.h :.:.h f ' ' ` S.g.; P.,.' ( j h / _ f ( h :.w.Q ",
"9  Xm.` 9.' ^ ,.7.7.,.( ^ ) 6.I.@.a B.6.>._ ( ( ' 6.^ ' :.,.Z.B 0 }.N.` 6.) h :.7.7.,.h ^ _ 7.I.+.t n.7.( ( ( :./ ,.^ ( :.,.w.! ",
"9 !.Y.D.m.F.w.A.F.F.Z.w.w.w.A.E.s.> F.A.A.w.w.w.q.Z.Z.Z.A.A.R.<.q J.R.F.Z.F.w.A.F.A.Z.w.q.q.Z.E.s.> P.D.Z.Z.w.w.Z.F.D.Z.A.w.R.>.",
"8 !.M [ K B B M n n B W W ] [ J $.; y.2.B B ! W N M z L B N [ x 7 Q.M [ W B B M n n N W ] [ [ L %.; c.x.P ] R W v A D L P N [ k ",
"4 8 0 q q 0 7 8 5 % w e q q q e - 6 9 w w e 0 0 > 9 = 6 9 t 0 0 5 8 0 q q q 7 8 4 & w e q q q y - 6 9 w w w q q 7 7 5 5 w a 0 e ",
"&X=X#X|.+X+X&X<X4X= <X).OXOX#X#X*X#XOX}.`.}. XOX*X:X% 0X<XOX.X|.*X*X+X|.+X+X$X:X4X4 <X~.OX X#X#X@X#X X}.`.}.}. X*XoX& 8XXX X].[.",
"q.q.9.9.9.8.B.W.f.0 H.N.v.m.q.5.5.6.q.m.N.m.m.m.Y.-.w $X(.V.6.6.w.q.7.o.q.8.n.H.h.0 B.V.b.N.q.5.7.q.m.m.M.M.b.N.Y.-.w $X(.V.5.q.",
"( ( ^ _ ' ) 5.B.C q N.q._ ' ' ( h h ( _ _ ) _ ' m.8.< #XB.` ( ( h h ^ ' _ _  .B.F 2 v.q.' _ ' ( ^ ^ ' _ ` ` ..' m.8.1 *XN...' ( ",
"h h ( ' ^ ^ ` x.d.< Z.7._ _ ' ( ( ( ( ( ^ ' ' 6.F.E 2 _.N./ ^ ( h ( ^ ^ ^ ^ ' M.c.< D.6._ ^ ( h ( ( ( ( ( :.' ' F.] q [.N.^ ~ f ",
":.:.' ' ' ' 6.C.=.i m.q.' 9.' / / / ' ^ ' ( ' 6.A.{ q  Xn.6.,.( ( ' ' ' ' '  .n.=.p m.q.` 6.,.~ ^ f ^ ^ / :.,.6.Z.{ 2 |.m.o.,./ ",
"Z.w.Z.Z.Z.Z.F.E.r.: S.D.m.V.Z.A.R.F.A.w.w.w.F.R.R.<.0  XF.F.m.D.Z.Z.D.V.m.Z.F.Y.$.> D.F.w.Z.A.A.R.R.A.w.w.w.F.I.R.<.7 +XP.D.D.F.",
"D t.T ] [ W J D #.7 y.} P } U T m n M [ { [ ] B J D 7 '.G z.k M D Y T ] ] ] M L $.7 T <.P [ B T l D M P <.[ W ] J D 7 ~.I 3.z n ",
"# = 0 u q q w w 9 0 0 q q q 0 6 % & 9 w t 0 u q , 7 w > w e w 9 & 4 0 u q q 0 0 9 0 0 w q e 0 7 $ & 7 e t 0 0 q 7 7 0 7 w w w p ",
"+ 3X;X[.+X@X|.}.]. X+X).}.OX@X<X0X& &X~.@XOX[.(.;X*X+XOX#X.X X&X3 3X;X[.+X+X X].].]. X}.|. X@X<X8X= -X`.+X{.{.{.+X*X*X).=X=X|./.",
"= -XT.m.P.N.3.5.8.q.m.q.0.v.B.[.f.* U.V.x.m.7.7.v.N.b.9.m.Z.P.c.: ;XP.m.D.m.3.8.8.q.q.0.9.v.B.(.f.* U.V.v.N.7.7.v.B.b.b.n.Z.P.X.",
"7 Q.8...'  .( h ' ' ^ ' ' `  .S.*.; V.q.6.>.( ( ~ 6.' ' ' ' Z.[ q ~.8. .O. .:.g ( ,.( ^ .._ ` V.%.; V.q.' ' ~ /  .o._ ..>.) D. .",
"8 +X0.` 9._ ,.( :.:.f ^ ' ' ` V.g.; P.6.>.h j j ' ' f ( h ^ Z.<.7 +X8. .o._ ,.( :.:.g f ' ) ' S.j.; P.6.' ^ f h ) ' ^ ^ ( / Z. .",
"7 `.n. .7.` ^ ' 7.7.,.^ ' ' 9.P.@.i m.6.( ^ h :.' ( g ( :.,.A.B 0 }.m.' 9.' g :.7.7.:.( ' ' 6.P.@.t B.6.( ( ( :.' ' _ ^ :.,.A.E ",
"9 '.R.F.Z.F.w.w.F.A.Z.w.w.m.D.E.s.> T.Z.Z.Z.w.w.Z.D.Z.Z.Z.F.R.} 0 ].E.A.Z.F.w.w.F.F.Z.w.q.Z.A.E.u.> P.D.Z.Z.Z.Z.D.P.D.D.A.D.I. .",
"8 K.k [ P B B M n D P W ] [ ] J %.: y.z.B P R W v v D Y ] M [ x 9 K.x ] ] B B M n n B R E [ [ J %.; y.x.U [ R ] M M Z L U B [ k ",
"4 8 0 q q 0 7 9 4 % 6 a 0 q q w : 5 7 w q w q w > 7 5 5 w a 0 w 6 8 0 0 q q 7 8 5 % 7 a q q w w 5 6 9 w q w q q 7 7 5 - w t q w ",
"-X*X#X|.+XOX$X<X4X4 >X).).OX|.*X#X@X X).}.`.}. X*X2X# qXXX X|.[.@X*X|.}.|.OX&X>X4X4 >X).).}.#X*X@X+X X}.`.}.}.+X@XXX$ 9X<X/..X[.",
"Z.q.6.9.0.8.B.J.h.0 U.N.X.m.0.q.q.q.b.m.m.N.m.N.P.-.7 %X).P.b.q.m.q.9.9.9.v.B./.h.0 L.N.3.N.9.9.6.q.m.m.n.M.m.b.I.z.w $X[.N.w.7.",
"( h ( ^ ' _ { B.H 2 N.7._ ' ' ^ ( ^ ' _ ' ` _ ' D.X.q #XM.O.^ ^ ( ( ^ ^ ^ _ ..B.H 2 b.q.` ' ( ^ f ( ( ' ` ) ' ' m.3.q +Xb.' / h ",
"( ( ^ _ ^ ^ ` M.G.1 m.6.' _ ' ( ( ( ( ^ ' ^ ' ,.A.b q (.D.) ^ ( h ( ^ _ ^ ^ _ b.G.1 m.6.' ^ ,.h ( ( ( ( / ' ' ' A.R u (.m.' f h ",
":.' ' ' ^ ' 5.D.t.s n.q.' ' ,./ / ^ / ^ ^ ( ,.6.A.1.q |.n.6.6.^ ,.,.' ' ' ' 9.D.e.s q.q.' ) ,.( ^ ^ ( / ( ^ ' 6.Z.| 0 [.V.' 7./ ",
"Z.Z.D.V.Z.Z.F.E.e., D.Z.q.Z.A.F.R.R.A.Z.w.w.F.I.R.<.7 +XP.F.D.D.Z.Z.V.V.m.Z.D.Y.e.> D.m.w.Z.Z.F.R.I.Z.Z.Z.Z.F.P.I.<.0  XP.D.Z.A.",
"G Y T ] ] K J G e.6 y.B U 2.P P S n K [ [ { ] P U l t ^.Y z.z J J Y } ] [ ] N I e.: z.K P <.P T C Z J [ } } } U U Z w Q.I x.m D ",
"# 4 0 i 0 0 0 7 9 7 q q w 0 w 6 $ = 0 u e 0 q q 2 1 w > w w 0 7 = = 1 u u q 0 9 w 7 0 0 q q 0 6 $ & 0 e e 0 u u 2 > 0 7 w q w a ",
"# 4X;X(.+X+X+X X X X X}.).}.*X2X0X& *X~.@X X{.[.*X+X+XOX=X X#X&X% 8X;X/._.+X@X}.}.[.}.OX}.|.*X2X0X% %X).#X X[.[.+X*X*X X@X=X|./.",
"% -XP.9.m.n.8.5.7.0.5.5.8.3.n.[.a.- U.B.x.C.7.7.b.N.b.8.0.n.P.y.6 -XP.q.m.0.5.q.7.q.q.5.5.5.C.[.a.& U.B.x.n.7.7.v.N.n.8.0.C.P.2.",
"6 J.8.' ) ' :.h ' ,.( / ,.` 5.S.%.; S.q.{ >./ :.) o.' ' ,.5.F.P q J.5.' _ ^ ^ / :.:.( ^ ,.) >.S.%.* V.q.` >./ ( .. ._ >.>.>.Z.5.",
"6 @Xv...9.' ,.( ' ,.h ^ ' '  .S.h.: P.6.>./ g ( ' ` ~ ' ( ` D.} 7 @Xv._ ..' 6./ :.:.h ^ ( _ >.D.a.- P.6.` / g ( ` ' / ( h g A.1.",
"8 }.N.O.9.O.^ ' 7.q.,.^ ' ' 6.Y.+.t V.9.:./ :.' ' ..^ ' :.,.D.P 0 }.B. .9.' ^ ' 7.7.,.^ _ _ 6.Y.+.t B.7.` ( ( :.` ` / ( :.7.A.! ",
"7 }.[.D.b.P.Z.D.F.I.Z.m.m.m.F.E.s.1 P.D.Z.w.w.w.q.D.Z.Z.A.Z.R.3.0 ).Y.F.m.D.Z.F.F.F.A.Z.m.Z.F.E.s.> P.Z.Z.w.w.w.Z.F.Z.Z.w.A.R.` ",
"7 Q.Z } ] U K J D D B [ [ ] [ J *.; z.3.B W ! R ] v A I P R [ x 7 Q.D } K K B M S D B W [ [ P D %.; z.3.B R R R b v n P [ V ] c ",
"5 8 0 q q 0 w 8 4 = 9 e q e 0 e : 6 0 q q e u q > > 8 & q e u 0 6 6 0 q 0 w w 8 4 4 9 t w q q t : > 0 q q q q e , 7 : - t q e i ",
"=X+X#X[.|..X$XXX8X4 &X X}. X.X.X#X*X+X}.).}.).|.*XoX& 0X>X+X|.|.@X#X{.|..X+X@XXX3X4 &X`.}. X.X.X#X@X@X X}.).|.OX*X:X& qX>X).(.[.",
"w.q.6.o.q.b.x.H.h.0 B.D.8.q.q. .5.6.0.n.M.n.0.m.Y.T w $X(.V.9.q.w.q.6.6.q.M.x.L.j.7 S.D.3.m.0.>.6.5.7.n.B.N.m.8.I.Y w $X(.I.5.q.",
"h ( ^ ^ ' _  .B.G < M.m._ _ ,.( h ( :.,.' / ' ' Z.4.1 *XB.) ( ( ( ( f ^ ' ' ` n.@.1 m.q._ _ ' ( h ( / >.` ` ' 6.D.3.q +Xv.` ( / ",
"f ' ^ _ ' _ O.B.G.2 V.9.O._ _ ^ h h :./ f ^ _ ' F.W 0  XV.) ^ ^ ^ ^ ^ _ .._ ) N.k.2 V.6..._ ' ( h ( :./ g ^ _ ' A.V q (.N.) ( ( ",
"( ' ....' ' o.V.=.s N.7.o.9.' _ _ ' / :.( ' 6.6.A.2.0 |.N.9.6._ ' ' ..' ......N.&.s m.6.o.o.' ^ ^ ( ` :.' ' 6.6.F.| q |.m.6.>./ ",
"w.Z.Z.Z.w.C.F.R.*., D.Z.Z.Z.Z.F.F.D.w.w.q.w.D.F.R.<.2  XT.D.D.D.Z.Z.Z.m.Z.Z.Z.R.#.: Z.w.m.Z.F.A.F.D.w.w.w.w.D.F.I.[ 2 |.P.D.D.F.",
";.Q { { / / Q B $.: <.` W Q >.1.R R Q ` ' ' ..Q R M q W.| O.V V Q Q { { ` / Q P r.: 1.>.R { Q ;.E W ! Q ' '  .{ Q M q H.v.! R c "
};
