/* XPM */
static char *result[] = {
/* columns rows colors chars-per-pixel */
"128 128 31 1 ",
"  c black",
". c #010101",
"X c #070301",
"o c #0C0401",
"O c #0C0501",
"+ c #0D0501",
"@ c #0D0502",
"# c #120702",
"$ c #130702",
"% c #130703",
"& c #190903",
"* c #1A0B04",
"= c #210D05",
"- c gray50",
"; c #987406",
": c #9D7109",
"> c #9D7208",
", c #E15119",
"< c #977567",
"1 c #9D7261",
"2 c #9D7262",
"3 c #9D7362",
"4 c #977568",
"5 c #91776D",
"6 c #987568",
"7 c #91786E",
"8 c #8B7A74",
"9 c #8C7A74",
"0 c #8C7B74",
"q c #808080",
"w c #818181",
/* pixels */
"  ++++++@ X  @++++++ooX  @O+@     ++++++@ X  @++++++ooX  @O+@     ++++++@ X  @++++++ooX  @O+@     ++++++@ X  @++++++ooX  @O+@   ",
" @,,,,,,,=,&%,,,,,,,,,,&$,,,,*@  @,,,,,,,=,&%,,,,,,,,,,&$,,,,*@  @,,,,,,,=,&%,,,,,,,,,,&$,,,,*@  @,,,,,,,=,&%,,,,,,,,,,&$,,,,*@ ",
" o,,,,,,,,,,,,,,,,,,,,,,,,,,,,,+ o,,,,,,,,,,,,,,,,,,,,,,,,,,,,,+ o,,,,,,,,,,,,,,,,,,,,,,,,,,,,,+ o,,,,,,,,,,,,,,,,,,,,,,,,,,,,,+",
" #,,,,,,,,,,,,,,,,,,,,,,,,,,,,,+ #,,,,,,,,,,,,,,,,,,,,,,,,,,,,,+ #,,,,,,,,,,,,,,,,,,,,,,,,,,,,,+ #,,,,,,,,,,,,,,,,,,,,,,,,,,,,,+",
"o,,,,,,,,,,,,,,,,,,,,,,,,,,,,,,oo,,,,,,,,,,,,,,,,,,,,,,,,,,,,,,oo,,,,,,,,,,,,,,,,,,,,,,,,,,,,,,oo,,,,,,,,,,,,,,,,,,,,,,,,,,,,,,o",
"o,,,,,,,,,,,,,,,,,,,,,,,,,,,,,,oo,,,,,,,,,,,,,,,,,,,,,,,,,,,,,,oo,,,,,,,,,,,,,,,,,,,,,,,,,,,,,,oo,,,,,,,,,,,,,,,,,,,,,,,,,,,,,,o",
"o,,,,,,,,,,,,,,,,,,,,,,,,,,,,,,oo,,,,,,,,,,,,,,,,,,,,,,,,,,,,,,oo,,,,,,,,,,,,,,,,,,,,,,,,,,,,,,oo,,,,,,,,,,,,,,,,,,,,,,,,,,,,,,o",
"o,,,,,,,,,,,,,,,,,,,,,,,,,,,,,,oo,,,,,,,,,,,,,,,,,,,,,,,,,,,,,,oo,,,,,,,,,,,,,,,,,,,,,,,,,,,,,,oo,,,,,,,,,,,,,,,,,,,,,,,,,,,,,,o",
"@,,,,,,,,,,,,,,,,,,,,,,,,,,,,,,o@,,,,,,,,,,,,,,,,,,,,,,,,,,,,,,o@,,,,,,,,,,,,,,,,,,,,,,,,,,,,,,o@,,,,,,,,,,,,,,,,,,,,,,,,,,,,,,o",
" 2,,,,,,,,,,,,,,,,,,,,,,,,,,,3,o 2,,,,,,,,,,,,,,,,,,,,,,,,,,,3,o 2,,,,,,,,,,,,,,,,,,,,,,,,,,,3,o 2,,,,,,,,,,,,,,,,,,,,,,,,,,,3,o",
"@,,,:,,,,,,,,,,,,,,,,,,,,,,,,<9 @,,,:,,,,,,,,,,,,,,,,,,,,,,,,<9 @,,,:,,,,,,,,,,,,,,,,,,,,,,,,<9 @,,,:,,,,,,,,,,,,,,,,,,,,,,,,<9 ",
" 4,,,,;;,,,>,,,,,,,,>,,,,,,,,,0  4,,,,;;,,,>,,,,,,,,>,,,,,,,,,0  4,,,,;;,,,>,,,,,,,,>,,,,,,,,,0  4,,,,;;,,,>,,,,,,,,>,,,,,,,,,0 ",
" 0,784,,,,,,,,,,,,,,,,,,,,,,,,0  0,784,,,,,,,,,,,,,,,,,,,,,,,,0  0,784,,,,,,,,,,,,,,,,,,,,,,,,0  0,784,,,,,,,,,,,,,,,,,,,,,,,,0 ",
" q0-qq0884,,,,,1,,,,,788886,,7q  q0-qq0884,,,,,1,,,,,788886,,7q  q0-qq0884,,,,,1,,,,,788886,,7q  q0-qq0884,,,,,1,,,,,788886,,7q ",
"    qq.qqq00000q00000qqqqqw0o       qq.qqq00000q00000qqqqqw0o       qq.qqq00000q00000qqqqqw0o       qq.qqq00000q00000qqqqqw0o   ",
"       .                               .                               .                               .                        ",
"++++ooX  @O+@     ++++++@ X  @++++++ooX  @O+@     ++++++@ X  @++++++ooX  @O+@     ++++++@ X  @++++++ooX  @O+@     ++++++@ X  @++",
",,,,,,,&$,,,,*@  @,,,,,,,=,&%,,,,,,,,,,&$,,,,*@  @,,,,,,,=,&%,,,,,,,,,,&$,,,,*@  @,,,,,,,=,&%,,,,,,,,,,&$,,,,*@  @,,,,,,,=,&%,,,",
",,,,,,,,,,,,,,,+ o,,,,,,,,,,,,,,,,,,,,,,,,,,,,,+ o,,,,,,,,,,,,,,,,,,,,,,,,,,,,,+ o,,,,,,,,,,,,,,,,,,,,,,,,,,,,,+ o,,,,,,,,,,,,,,",
",,,,,,,,,,,,,,,+ #,,,,,,,,,,,,,,,,,,,,,,,,,,,,,+ #,,,,,,,,,,,,,,,,,,,,,,,,,,,,,+ #,,,,,,,,,,,,,,,,,,,,,,,,,,,,,+ #,,,,,,,,,,,,,,",
",,,,,,,,,,,,,,,oo,,,,,,,,,,,,,,,,,,,,,,,,,,,,,,oo,,,,,,,,,,,,,,,,,,,,,,,,,,,,,,oo,,,,,,,,,,,,,,,,,,,,,,,,,,,,,,oo,,,,,,,,,,,,,,,",
",,,,,,,,,,,,,,,oo,,,,,,,,,,,,,,,,,,,,,,,,,,,,,,oo,,,,,,,,,,,,,,,,,,,,,,,,,,,,,,oo,,,,,,,,,,,,,,,,,,,,,,,,,,,,,,oo,,,,,,,,,,,,,,,",
",,,,,,,,,,,,,,,oo,,,,,,,,,,,,,,,,,,,,,,,,,,,,,,oo,,,,,,,,,,,,,,,,,,,,,,,,,,,,,,oo,,,,,,,,,,,,,,,,,,,,,,,,,,,,,,oo,,,,,,,,,,,,,,,",
",,,,,,,,,,,,,,,oo,,,,,,,,,,,,,,,,,,,,,,,,,,,,,,oo,,,,,,,,,,,,,,,,,,,,,,,,,,,,,,oo,,,,,,,,,,,,,,,,,,,,,,,,,,,,,,oo,,,,,,,,,,,,,,,",
",,,,,,,,,,,,,,,o@,,,,,,,,,,,,,,,,,,,,,,,,,,,,,,o@,,,,,,,,,,,,,,,,,,,,,,,,,,,,,,o@,,,,,,,,,,,,,,,,,,,,,,,,,,,,,,o@,,,,,,,,,,,,,,,",
",,,,,,,,,,,,,3,o 2,,,,,,,,,,,,,,,,,,,,,,,,,,,3,o 2,,,,,,,,,,,,,,,,,,,,,,,,,,,3,o 2,,,,,,,,,,,,,,,,,,,,,,,,,,,3,o 2,,,,,,,,,,,,,,",
",,,,,,,,,,,,,<9 @,,,:,,,,,,,,,,,,,,,,,,,,,,,,<9 @,,,:,,,,,,,,,,,,,,,,,,,,,,,,<9 @,,,:,,,,,,,,,,,,,,,,,,,,,,,,<9 @,,,:,,,,,,,,,,,",
",,,,>,,,,,,,,,0  4,,,,;;,,,>,,,,,,,,>,,,,,,,,,0  4,,,,;;,,,>,,,,,,,,>,,,,,,,,,0  4,,,,;;,,,>,,,,,,,,>,,,,,,,,,0  4,,,,;;,,,>,,,,",
",,,,,,,,,,,,,,0  0,784,,,,,,,,,,,,,,,,,,,,,,,,0  0,784,,,,,,,,,,,,,,,,,,,,,,,,0  0,784,,,,,,,,,,,,,,,,,,,,,,,,0  0,784,,,,,,,,,,",
",,,,,788886,,7q  q0-qq0884,,,,,1,,,,,788886,,7q  q0-qq0884,,,,,1,,,,,788886,,7q  q0-qq0884,,,,,1,,,,,788886,,7q  q0-qq0884,,,,,5",
"00000qqqqqw0o       qq.qqq00000q00000qqqqqw0o       qq.qqq00000q00000qqqqqw0o       qq.qqq00000q00000qqqqqw0o       qq.qqq00000q",
"                       .                               .                               .                               .        ",
"  ++++++@ X  @++++++ooX  @O+@     ++++++@ X  @++++++ooX  @O+@     ++++++@ X  @++++++ooX  @O+@     ++++++@ X  @++++++ooX  @O+@   ",
" @,,,,,,,=,&%,,,,,,,,,,&$,,,,*@  @,,,,,,,=,&%,,,,,,,,,,&$,,,,*@  @,,,,,,,=,&%,,,,,,,,,,&$,,,,*@  @,,,,,,,=,&%,,,,,,,,,,&$,,,,*@ ",
" o,,,,,,,,,,,,,,,,,,,,,,,,,,,,,+ o,,,,,,,,,,,,,,,,,,,,,,,,,,,,,+ o,,,,,,,,,,,,,,,,,,,,,,,,,,,,,+ o,,,,,,,,,,,,,,,,,,,,,,,,,,,,,+",
" #,,,,,,,,,,,,,,,,,,,,,,,,,,,,,+ #,,,,,,,,,,,,,,,,,,,,,,,,,,,,,+ #,,,,,,,,,,,,,,,,,,,,,,,,,,,,,+ #,,,,,,,,,,,,,,,,,,,,,,,,,,,,,+",
"o,,,,,,,,,,,,,,,,,,,,,,,,,,,,,,oo,,,,,,,,,,,,,,,,,,,,,,,,,,,,,,oo,,,,,,,,,,,,,,,,,,,,,,,,,,,,,,oo,,,,,,,,,,,,,,,,,,,,,,,,,,,,,,o",
"o,,,,,,,,,,,,,,,,,,,,,,,,,,,,,,oo,,,,,,,,,,,,,,,,,,,,,,,,,,,,,,oo,,,,,,,,,,,,,,,,,,,,,,,,,,,,,,oo,,,,,,,,,,,,,,,,,,,,,,,,,,,,,,o",
"o,,,,,,,,,,,,,,,,,,,,,,,,,,,,,,oo,,,,,,,,,,,,,,,,,,,,,,,,,,,,,,oo,,,,,,,,,,,,,,,,,,,,,,,,,,,,,,oo,,,,,,,,,,,,,,,,,,,,,,,,,,,,,,o",
"o,,,,,,,,,,,,,,,,,,,,,,,,,,,,,,oo,,,,,,,,,,,,,,,,,,,,,,,,,,,,,,oo,,,,,,,,,,,,,,,,,,,,,,,,,,,,,,oo,,,,,,,,,,,,,,,,,,,,,,,,,,,,,,o",
"@,,,,,,,,,,,,,,,,,,,,,,,,,,,,,,o@,,,,,,,,,,,,,,,,,,,,,,,,,,,,,,o@,,,,,,,,,,,,,,,,,,,,,,,,,,,,,,o@,,,,,,,,,,,,,,,,,,,,,,,,,,,,,,o",
" 2,,,,,,,,,,,,,,,,,,,,,,,,,,,3,o 2,,,,,,,,,,,,,,,,,,,,,,,,,,,3,o 2,,,,,,,,,,,,,,,,,,,,,,,,,,,3,o 2,,,,,,,,,,,,,,,,,,,,,,,,,,,3,o",
"@,,,:,,,,,,,,,,,,,,,,,,,,,,,,<9 @,,,:,,,,,,,,,,,,,,,,,,,,,,,,<9 @,,,:,,,,,,,,,,,,,,,,,,,,,,,,<9 @,,,:,,,,,,,,,,,,,,,,,,,,,,,,<9 ",
" 4,,,,;;,,,>,,,,,,,,>,,,,,,,,,0  4,,,,;;,,,>,,,,,,,,>,,,,,,,,,0  4,,,,;;,,,>,,,,,,,,>,,,,,,,,,0  4,,,,;;,,,>,,,,,,,,>,,,,,,,,,0 ",
" 0,784,,,,,,,,,,,,,,,,,,,,,,,,0  0,784,,,,,,,,,,,,,,,,,,,,,,,,0  0,784,,,,,,,,,,,,,,,,,,,,,,,,0  0,784,,,,,,,,,,,,,,,,,,,,,,,,0 ",
" q0-qq0884,,,,,1,,,,,788886,,7q  q0-qq0884,,,,,1,,,,,788886,,7q  q0-qq0884,,,,,1,,,,,788886,,7q  q0-qq0884,,,,,1,,,,,788886,,7q ",
"    qq.qqq00000q00000qqqqqw0o       qq.qqq00000q00000qqqqqw0o       qq.qqq00000q00000qqqqqw0o       qq.qqq00000q00000qqqqqw0o   ",
"       .                               .                               .                               .                        ",
"++++ooX  @O+@     ++++++@ X  @++++++ooX  @O+@     ++++++@ X  @++++++ooX  @O+@     ++++++@ X  @++++++ooX  @O+@     ++++++@ X  @++",
",,,,,,,&$,,,,*@  @,,,,,,,=,&%,,,,,,,,,,&$,,,,*@  @,,,,,,,=,&%,,,,,,,,,,&$,,,,*@  @,,,,,,,=,&%,,,,,,,,,,&$,,,,*@  @,,,,,,,=,&%,,,",
",,,,,,,,,,,,,,,+ o,,,,,,,,,,,,,,,,,,,,,,,,,,,,,+ o,,,,,,,,,,,,,,,,,,,,,,,,,,,,,+ o,,,,,,,,,,,,,,,,,,,,,,,,,,,,,+ o,,,,,,,,,,,,,,",
",,,,,,,,,,,,,,,+ #,,,,,,,,,,,,,,,,,,,,,,,,,,,,,+ #,,,,,,,,,,,,,,,,,,,,,,,,,,,,,+ #,,,,,,,,,,,,,,,,,,,,,,,,,,,,,+ #,,,,,,,,,,,,,,",
",,,,,,,,,,,,,,,oo,,,,,,,,,,,,,,,,,,,,,,,,,,,,,,oo,,,,,,,,,,,,,,,,,,,,,,,,,,,,,,oo,,,,,,,,,,,,,,,,,,,,,,,,,,,,,,oo,,,,,,,,,,,,,,,",
",,,,,,,,,,,,,,,oo,,,,,,,,,,,,,,,,,,,,,,,,,,,,,,oo,,,,,,,,,,,,,,,,,,,,,,,,,,,,,,oo,,,,,,,,,,,,,,,,,,,,,,,,,,,,,,oo,,,,,,,,,,,,,,,",
",,,,,,,,,,,,,,,oo,,,,,,,,,,,,,,,,,,,,,,,,,,,,,,oo,,,,,,,,,,,,,,,,,,,,,,,,,,,,,,oo,,,,,,,,,,,,,,,,,,,,,,,,,,,,,,oo,,,,,,,,,,,,,,,",
",,,,,,,,,,,,,,,oo,,,,,,,,,,,,,,,,,,,,,,,,,,,,,,oo,,,,,,,,,,,,,,,,,,,,,,,,,,,,,,oo,,,,,,,,,,,,,,,,,,,,,,,,,,,,,,oo,,,,,,,,,,,,,,,",
",,,,,,,,,,,,,,,o@,,,,,,,,,,,,,,,,,,,,,,,,,,,,,,o@,,,,,,,,,,,,,,,,,,,,,,,,,,,,,,o@,,,,,,,,,,,,,,,,,,,,,,,,,,,,,,o@,,,,,,,,,,,,,,,",
",,,,,,,,,,,,,3,o 2,,,,,,,,,,,,,,,,,,,,,,,,,,,3,o 2,,,,,,,,,,,,,,,,,,,,,,,,,,,3,o 2,,,,,,,,,,,,,,,,,,,,,,,,,,,3,o 2,,,,,,,,,,,,,,",
",,,,,,,,,,,,,<9 @,,,:,,,,,,,,,,,,,,,,,,,,,,,,<9 @,,,:,,,,,,,,,,,,,,,,,,,,,,,,<9 @,,,:,,,,,,,,,,,,,,,,,,,,,,,,<9 @,,,:,,,,,,,,,,,",
",,,,>,,,,,,,,,0  4,,,,;;,,,>,,,,,,,,>,,,,,,,,,0  4,,,,;;,,,>,,,,,,,,>,,,,,,,,,0  4,,,,;;,,,>,,,,,,,,>,,,,,,,,,0  4,,,,;;,,,>,,,,",
",,,,,,,,,,,,,,0  0,784,,,,,,,,,,,,,,,,,,,,,,,,0  0,784,,,,,,,,,,,,,,,,,,,,,,,,0  0,784,,,,,,,,,,,,,,,,,,,,,,,,0  0,784,,,,,,,,,,",
",,,,,788886,,7q  q0-qq0884,,,,,1,,,,,788886,,7q  q0-qq0884,,,,,1,,,,,788886,,7q  q0-qq0884,,,,,1,,,,,788886,,7q  q0-qq0884,,,,,5",
"00000qqqqqw0o       qq.qqq00000q00000qqqqqw0o       qq.qqq00000q00000qqqqqw0o       qq.qqq00000q00000qqqqqw0o       qq.qqq00000q",
"                       .                               .                               .                               .        ",
"  ++++++@ X  @++++++ooX  @O+@     ++++++@ X  @++++++ooX  @O+@     ++++++@ X  @++++++ooX  @O+@     ++++++@ X  @++++++ooX  @O+@   ",
" @,,,,,,,=,&%,,,,,,,,,,&$,,,,*@  @,,,,,,,=,&%,,,,,,,,,,&$,,,,*@  @,,,,,,,=,&%,,,,,,,,,,&$,,,,*@  @,,,,,,,=,&%,,,,,,,,,,&$,,,,*@ ",
" o,,,,,,,,,,,,,,,,,,,,,,,,,,,,,+ o,,,,,,,,,,,,,,,,,,,,,,,,,,,,,+ o,,,,,,,,,,,,,,,,,,,,,,,,,,,,,+ o,,,,,,,,,,,,,,,,,,,,,,,,,,,,,+",
" #,,,,,,,,,,,,,,,,,,,,,,,,,,,,,+ #,,,,,,,,,,,,,,,,,,,,,,,,,,,,,+ #,,,,,,,,,,,,,,,,,,,,,,,,,,,,,+ #,,,,,,,,,,,,,,,,,,,,,,,,,,,,,+",
"o,,,,,,,,,,,,,,,,,,,,,,,,,,,,,,oo,,,,,,,,,,,,,,,,,,,,,,,,,,,,,,oo,,,,,,,,,,,,,,,,,,,,,,,,,,,,,,oo,,,,,,,,,,,,,,,,,,,,,,,,,,,,,,o",
"o,,,,,,,,,,,,,,,,,,,,,,,,,,,,,,oo,,,,,,,,,,,,,,,,,,,,,,,,,,,,,,oo,,,,,,,,,,,,,,,,,,,,,,,,,,,,,,oo,,,,,,,,,,,,,,,,,,,,,,,,,,,,,,o",
"o,,,,,,,,,,,,,,,,,,,,,,,,,,,,,,oo,,,,,,,,,,,,,,,,,,,,,,,,,,,,,,oo,,,,,,,,,,,,,,,,,,,,,,,,,,,,,,oo,,,,,,,,,,,,,,,,,,,,,,,,,,,,,,o",
"o,,,,,,,,,,,,,,,,,,,,,,,,,,,,,,oo,,,,,,,,,,,,,,,,,,,,,,,,,,,,,,oo,,,,,,,,,,,,,,,,,,,,,,,,,,,,,,oo,,,,,,,,,,,,,,,,,,,,,,,,,,,,,,o",
"@,,,,,,,,,,,,,,,,,,,,,,,,,,,,,,o@,,,,,,,,,,,,,,,,,,,,,,,,,,,,,,o@,,,,,,,,,,,,,,,,,,,,,,,,,,,,,,o@,,,,,,,,,,,,,,,,,,,,,,,,,,,,,,o",
" 2,,,,,,,,,,,,,,,,,,,,,,,,,,,3,o 2,,,,,,,,,,,,,,,,,,,,,,,,,,,3,o 2,,,,,,,,,,,,,,,,,,,,,,,,,,,3,o 2,,,,,,,,,,,,,,,,,,,,,,,,,,,3,o",
"@,,,:,,,,,,,,,,,,,,,,,,,,,,,,<9 @,,,:,,,,,,,,,,,,,,,,,,,,,,,,<9 @,,,:,,,,,,,,,,,,,,,,,,,,,,,,<9 @,,,:,,,,,,,,,,,,,,,,,,,,,,,,<9 ",
" 4,,,,;;,,,>,,,,,,,,>,,,,,,,,,0  4,,,,;;,,,>,,,,,,,,>,,,,,,,,,0  4,,,,;;,,,>,,,,,,,,>,,,,,,,,,0  4,,,,;;,,,>,,,,,,,,>,,,,,,,,,0 ",
" 0,784,,,,,,,,,,,,,,,,,,,,,,,,0  0,784,,,,,,,,,,,,,,,,,,,,,,,,0  0,784,,,,,,,,,,,,,,,,,,,,,,,,0  0,784,,,,,,,,,,,,,,,,,,,,,,,,0 ",
" q0-qq0884,,,,,1,,,,,788886,,7q  q0-qq0884,,,,,1,,,,,788886,,7q  q0-qq0884,,,,,1,,,,,788886,,7q  q0-qq0884,,,,,1,,,,,788886,,7q ",
"    qq.qqq00000q00000qqqqqw0o       qq.qqq00000q00000qqqqqw0o       qq.qqq00000q00000qqqqqw0o       qq.qqq00000q00000qqqqqw0o   ",
"       .                               .                               .                               .                        ",
"++++ooX  @O+@     ++++++@ X  @++++++ooX  @O+@     ++++++@ X  @++++++ooX  @O+@     ++++++@ X  @++++++ooX  @O+@     ++++++@ X  @++",
",,,,,,,&$,,,,*@  @,,,,,,,=,&%,,,,,,,,,,&$,,,,*@  @,,,,,,,=,&%,,,,,,,,,,&$,,,,*@  @,,,,,,,=,&%,,,,,,,,,,&$,,,,*@  @,,,,,,,=,&%,,,",
",,,,,,,,,,,,,,,+ o,,,,,,,,,,,,,,,,,,,,,,,,,,,,,+ o,,,,,,,,,,,,,,,,,,,,,,,,,,,,,+ o,,,,,,,,,,,,,,,,,,,,,,,,,,,,,+ o,,,,,,,,,,,,,,",
",,,,,,,,,,,,,,,+ #,,,,,,,,,,,,,,,,,,,,,,,,,,,,,+ #,,,,,,,,,,,,,,,,,,,,,,,,,,,,,+ #,,,,,,,,,,,,,,,,,,,,,,,,,,,,,+ #,,,,,,,,,,,,,,",
",,,,,,,,,,,,,,,oo,,,,,,,,,,,,,,,,,,,,,,,,,,,,,,oo,,,,,,,,,,,,,,,,,,,,,,,,,,,,,,oo,,,,,,,,,,,,,,,,,,,,,,,,,,,,,,oo,,,,,,,,,,,,,,,",
",,,,,,,,,,,,,,,oo,,,,,,,,,,,,,,,,,,,,,,,,,,,,,,oo,,,,,,,,,,,,,,,,,,,,,,,,,,,,,,oo,,,,,,,,,,,,,,,,,,,,,,,,,,,,,,oo,,,,,,,,,,,,,,,",
",,,,,,,,,,,,,,,oo,,,,,,,,,,,,,,,,,,,,,,,,,,,,,,oo,,,,,,,,,,,,,,,,,,,,,,,,,,,,,,oo,,,,,,,,,,,,,,,,,,,,,,,,,,,,,,oo,,,,,,,,,,,,,,,",
",,,,,,,,,,,,,,,oo,,,,,,,,,,,,,,,,,,,,,,,,,,,,,,oo,,,,,,,,,,,,,,,,,,,,,,,,,,,,,,oo,,,,,,,,,,,,,,,,,,,,,,,,,,,,,,oo,,,,,,,,,,,,,,,",
",,,,,,,,,,,,,,,o@,,,,,,,,,,,,,,,,,,,,,,,,,,,,,,o@,,,,,,,,,,,,,,,,,,,,,,,,,,,,,,o@,,,,,,,,,,,,,,,,,,,,,,,,,,,,,,o@,,,,,,,,,,,,,,,",
",,,,,,,,,,,,,3,o 2,,,,,,,,,,,,,,,,,,,,,,,,,,,3,o 2,,,,,,,,,,,,,,,,,,,,,,,,,,,3,o 2,,,,,,,,,,,,,,,,,,,,,,,,,,,3,o 2,,,,,,,,,,,,,,",
",,,,,,,,,,,,,<9 @,,,:,,,,,,,,,,,,,,,,,,,,,,,,<9 @,,,:,,,,,,,,,,,,,,,,,,,,,,,,<9 @,,,:,,,,,,,,,,,,,,,,,,,,,,,,<9 @,,,:,,,,,,,,,,,",
",,,,>,,,,,,,,,0  4,,,,;;,,,>,,,,,,,,>,,,,,,,,,0  4,,,,;;,,,>,,,,,,,,>,,,,,,,,,0  4,,,,;;,,,>,,,,,,,,>,,,,,,,,,0  4,,,,;;,,,>,,,,",
",,,,,,,,,,,,,,0  0,784,,,,,,,,,,,,,,,,,,,,,,,,0  0,784,,,,,,,,,,,,,,,,,,,,,,,,0  0,784,,,,,,,,,,,,,,,,,,,,,,,,0  0,784,,,,,,,,,,",
",,,,,788886,,7q  q0-qq0884,,,,,1,,,,,788886,,7q  q0-qq0884,,,,,1,,,,,788886,,7q  q0-qq0884,,,,,1,,,,,788886,,7q  q0-qq0884,,,,,5",
"00000qqqqqw0o       qq.qqq00000q00000qqqqqw0o       qq.qqq00000q00000qqqqqw0o       qq.qqq00000q00000qqqqqw0o       qq.qqq00000q",
"                       .                               .                               .                               .        ",
"  ++++++@ X  @++++++ooX  @O+@     ++++++@ X  @++++++ooX  @O+@     ++++++@ X  @++++++ooX  @O+@     ++++++@ X  @++++++ooX  @O+@   ",
" @,,,,,,,=,&%,,,,,,,,,,&$,,,,*@  @,,,,,,,=,&%,,,,,,,,,,&$,,,,*@  @,,,,,,,=,&%,,,,,,,,,,&$,,,,*@  @,,,,,,,=,&%,,,,,,,,,,&$,,,,*@ ",
" o,,,,,,,,,,,,,,,,,,,,,,,,,,,,,+ o,,,,,,,,,,,,,,,,,,,,,,,,,,,,,+ o,,,,,,,,,,,,,,,,,,,,,,,,,,,,,+ o,,,,,,,,,,,,,,,,,,,,,,,,,,,,,+",
" #,,,,,,,,,,,,,,,,,,,,,,,,,,,,,+ #,,,,,,,,,,,,,,,,,,,,,,,,,,,,,+ #,,,,,,,,,,,,,,,,,,,,,,,,,,,,,+ #,,,,,,,,,,,,,,,,,,,,,,,,,,,,,+",
"o,,,,,,,,,,,,,,,,,,,,,,,,,,,,,,oo,,,,,,,,,,,,,,,,,,,,,,,,,,,,,,oo,,,,,,,,,,,,,,,,,,,,,,,,,,,,,,oo,,,,,,,,,,,,,,,,,,,,,,,,,,,,,,o",
"o,,,,,,,,,,,,,,,,,,,,,,,,,,,,,,oo,,,,,,,,,,,,,,,,,,,,,,,,,,,,,,oo,,,,,,,,,,,,,,,,,,,,,,,,,,,,,,oo,,,,,,,,,,,,,,,,,,,,,,,,,,,,,,o",
"o,,,,,,,,,,,,,,,,,,,,,,,,,,,,,,oo,,,,,,,,,,,,,,,,,,,,,,,,,,,,,,oo,,,,,,,,,,,,,,,,,,,,,,,,,,,,,,oo,,,,,,,,,,,,,,,,,,,,,,,,,,,,,,o",
"o,,,,,,,,,,,,,,,,,,,,,,,,,,,,,,oo,,,,,,,,,,,,,,,,,,,,,,,,,,,,,,oo,,,,,,,,,,,,,,,,,,,,,,,,,,,,,,oo,,,,,,,,,,,,,,,,,,,,,,,,,,,,,,o",
"@,,,,,,,,,,,,,,,,,,,,,,,,,,,,,,o@,,,,,,,,,,,,,,,,,,,,,,,,,,,,,,o@,,,,,,,,,,,,,,,,,,,,,,,,,,,,,,o@,,,,,,,,,,,,,,,,,,,,,,,,,,,,,,o",
" 2,,,,,,,,,,,,,,,,,,,,,,,,,,,3,o 2,,,,,,,,,,,,,,,,,,,,,,,,,,,3,o 2,,,,,,,,,,,,,,,,,,,,,,,,,,,3,o 2,,,,,,,,,,,,,,,,,,,,,,,,,,,3,o",
"@,,,:,,,,,,,,,,,,,,,,,,,,,,,,<9 @,,,:,,,,,,,,,,,,,,,,,,,,,,,,<9 @,,,:,,,,,,,,,,,,,,,,,,,,,,,,<9 @,,,:,,,,,,,,,,,,,,,,,,,,,,,,<9 ",
" 4,,,,;;,,,>,,,,,,,,>,,,,,,,,,0  4,,,,;;,,,>,,,,,,,,>,,,,,,,,,0  4,,,,;;,,,>,,,,,,,,>,,,,,,,,,0  4,,,,;;,,,>,,,,,,,,>,,,,,,,,,0 ",
" 0,784,,,,,,,,,,,,,,,,,,,,,,,,0  0,784,,,,,,,,,,,,,,,,,,,,,,,,0  0,784,,,,,,,,,,,,,,,,,,,,,,,,0  0,784,,,,,,,,,,,,,,,,,,,,,,,,0 ",
" q0-qq0884,,,,,1,,,,,788886,,7q  q0-qq0884,,,,,1,,,,,788886,,7q  q0-qq0884,,,,,1,,,,,788886,,7q  q0-qq0884,,,,,1,,,,,788886,,7q ",
"    qq.qqq00000q00000qqqqqw0o       qq.qqq00000q00000qqqqqw0o       qq.qqq00000q00000qqqqqw0o       qq.qqq00000q00000qqqqqw0o   ",
"       .                               .                               .                               .                        ",
"++++ooX  @O+@     ++++++@ X  @++++++ooX  @O+@     ++++++@ X  @++++++ooX  @O+@     ++++++@ X  @++++++ooX  @O+@     ++++++@ X  @++",
",,,,,,,&$,,,,*@  @,,,,,,,=,&%,,,,,,,,,,&$,,,,*@  @,,,,,,,=,&%,,,,,,,,,,&$,,,,*@  @,,,,,,,=,&%,,,,,,,,,,&$,,,,*@  @,,,,,,,=,&%,,,",
",,,,,,,,,,,,,,,+ o,,,,,,,,,,,,,,,,,,,,,,,,,,,,,+ o,,,,,,,,,,,,,,,,,,,,,,,,,,,,,+ o,,,,,,,,,,,,,,,,,,,,,,,,,,,,,+ o,,,,,,,,,,,,,,",
",,,,,,,,,,,,,,,+ #,,,,,,,,,,,,,,,,,,,,,,,,,,,,,+ #,,,,,,,,,,,,,,,,,,,,,,,,,,,,,+ #,,,,,,,,,,,,,,,,,,,,,,,,,,,,,+ #,,,,,,,,,,,,,,",
",,,,,,,,,,,,,,,oo,,,,,,,,,,,,,,,,,,,,,,,,,,,,,,oo,,,,,,,,,,,,,,,,,,,,,,,,,,,,,,oo,,,,,,,,,,,,,,,,,,,,,,,,,,,,,,oo,,,,,,,,,,,,,,,",
",,,,,,,,,,,,,,,oo,,,,,,,,,,,,,,,,,,,,,,,,,,,,,,oo,,,,,,,,,,,,,,,,,,,,,,,,,,,,,,oo,,,,,,,,,,,,,,,,,,,,,,,,,,,,,,oo,,,,,,,,,,,,,,,",
",,,,,,,,,,,,,,,oo,,,,,,,,,,,,,,,,,,,,,,,,,,,,,,oo,,,,,,,,,,,,,,,,,,,,,,,,,,,,,,oo,,,,,,,,,,,,,,,,,,,,,,,,,,,,,,oo,,,,,,,,,,,,,,,",
",,,,,,,,,,,,,,,oo,,,,,,,,,,,,,,,,,,,,,,,,,,,,,,oo,,,,,,,,,,,,,,,,,,,,,,,,,,,,,,oo,,,,,,,,,,,,,,,,,,,,,,,,,,,,,,oo,,,,,,,,,,,,,,,",
",,,,,,,,,,,,,,,o@,,,,,,,,,,,,,,,,,,,,,,,,,,,,,,o@,,,,,,,,,,,,,,,,,,,,,,,,,,,,,,o@,,,,,,,,,,,,,,,,,,,,,,,,,,,,,,o@,,,,,,,,,,,,,,,",
",,,,,,,,,,,,,3,o 2,,,,,,,,,,,,,,,,,,,,,,,,,,,3,o 2,,,,,,,,,,,,,,,,,,,,,,,,,,,3,o 2,,,,,,,,,,,,,,,,,,,,,,,,,,,3,o 2,,,,,,,,,,,,,,",
",,,,,,,,,,,,,<9 @,,,:,,,,,,,,,,,,,,,,,,,,,,,,<9 @,,,:,,,,,,,,,,,,,,,,,,,,,,,,<9 @,,,:,,,,,,,,,,,,,,,,,,,,,,,,<9 @,,,:,,,,,,,,,,,",
",,,,>,,,,,,,,,0  4,,,,;;,,,>,,,,,,,,>,,,,,,,,,0  4,,,,;;,,,>,,,,,,,,>,,,,,,,,,0  4,,,,;;,,,>,,,,,,,,>,,,,,,,,,0  4,,,,;;,,,>,,,,",
",,,,,,,,,,,,,,0  0,784,,,,,,,,,,,,,,,,,,,,,,,,0  0,784,,,,,,,,,,,,,,,,,,,,,,,,0  0,784,,,,,,,,,,,,,,,,,,,,,,,,0  0,784,,,,,,,,,,",
",,,,,788886,,7q  q0-qq0884,,,,,1,,,,,788886,,7q  q0-qq0884,,,,,1,,,,,788886,,7q  q0-qq0884,,,,,1,,,,,788886,,7q  q0-qq0884,,,,,5",
"00000qqqqqw0o       qq.qqq00000q00000qqqqqw0o       qq.qqq00000q00000qqqqqw0o       qq.qqq00000q00000qqqqqw0o       qq.qqq00000q",
"                       .                               .                               .                               .        "
};
